<ttFont>
    <TTGlyph name=".ttfautohint" xMin="0" yMin="0" xMax="0" yMax="0">
      <contour>
        <pt x="0" y="0" on="1"/>
      </contour>
    </TTGlyph>
    <TTGlyph name="A" xMin="-52" yMin="0" xMax="546" yMax="627">
      <contour>
        <pt x="148" y="153" on="1"/>
        <pt x="103" y="68" on="1"/>
        <pt x="163" y="45" on="1"/>
        <pt x="154" y="0" on="1"/>
        <pt x="-52" y="0" on="1"/>
        <pt x="-43" y="44" on="1"/>
        <pt x="26" y="69" on="1"/>
        <pt x="314" y="614" on="1"/>
        <pt x="391" y="627" on="1"/>
        <pt x="483" y="69" on="1"/>
        <pt x="546" y="45" on="1"/>
        <pt x="537" y="0" on="1"/>
        <pt x="270" y="0" on="1"/>
        <pt x="279" y="45" on="1"/>
        <pt x="345" y="65" on="1"/>
        <pt x="331" y="153" on="1"/>
      </contour>
      <contour>
        <pt x="322" y="212" on="1"/>
        <pt x="290" y="423" on="1"/>
        <pt x="179" y="212" on="1"/>
      </contour>
    </TTGlyph>
    <TTGlyph name="AE" xMin="-141" yMin="0" xMax="670" yMax="614">
      <contour>
        <pt x="507" y="315" on="1"/>
        <pt x="540" y="381" on="1"/>
        <pt x="586" y="381" on="1"/>
        <pt x="549" y="190" on="1"/>
        <pt x="503" y="190" on="1"/>
        <pt x="494" y="259" on="1"/>
        <pt x="411" y="259" on="1"/>
        <pt x="386" y="69" on="1"/>
        <pt x="536" y="69" on="1"/>
        <pt x="578" y="162" on="1"/>
        <pt x="631" y="162" on="1"/>
        <pt x="600" y="0" on="1"/>
        <pt x="154" y="0" on="1"/>
        <pt x="162" y="45" on="1"/>
        <pt x="246" y="69" on="1"/>
        <pt x="271" y="259" on="1"/>
        <pt x="157" y="259" on="1"/>
        <pt x="21" y="68" on="1"/>
        <pt x="81" y="45" on="1"/>
        <pt x="72" y="0" on="1"/>
        <pt x="-141" y="0" on="1"/>
        <pt x="-132" y="44" on="1"/>
        <pt x="-63" y="69" on="1"/>
        <pt x="289" y="552" on="1"/>
        <pt x="233" y="569" on="1"/>
        <pt x="242" y="614" on="1"/>
        <pt x="670" y="614" on="1"/>
        <pt x="642" y="468" on="1"/>
        <pt x="589" y="468" on="1"/>
        <pt x="584" y="546" on="1"/>
        <pt x="449" y="546" on="1"/>
        <pt x="418" y="315" on="1"/>
      </contour>
      <contour>
        <pt x="297" y="454" on="1"/>
        <pt x="197" y="315" on="1"/>
        <pt x="278" y="315" on="1"/>
      </contour>
    </TTGlyph>
    <TTGlyph name="AEacute" xMin="-141" yMin="0" xMax="670" yMax="800">
      <component glyphName=".ttfautohint" x="0" y="0" flags="0x0"/>
      <component glyphName="AE" x="0" y="0" flags="0x0"/>
      <component glyphName="acutecomb" x="516" y="0" flags="0x0"/>
    </TTGlyph>
    <TTGlyph name="Aacute" xMin="-52" yMin="0" xMax="546" yMax="800">
      <contour>
        <pt x="242" y="669" on="1"/>
        <pt x="398" y="800" on="1"/>
        <pt x="497" y="766" on="1"/>
        <pt x="497" y="743" on="1"/>
        <pt x="269" y="634" on="1"/>
      </contour>
      <contour>
        <pt x="-43" y="44" on="1"/>
        <pt x="26" y="69" on="1"/>
        <pt x="314" y="614" on="1"/>
        <pt x="391" y="627" on="1"/>
        <pt x="483" y="69" on="1"/>
        <pt x="546" y="45" on="1"/>
        <pt x="537" y="0" on="1"/>
        <pt x="270" y="0" on="1"/>
        <pt x="279" y="45" on="1"/>
        <pt x="345" y="65" on="1"/>
        <pt x="331" y="153" on="1"/>
        <pt x="148" y="153" on="1"/>
        <pt x="103" y="68" on="1"/>
        <pt x="163" y="45" on="1"/>
        <pt x="154" y="0" on="1"/>
        <pt x="-52" y="0" on="1"/>
      </contour>
      <contour>
        <pt x="322" y="212" on="1"/>
        <pt x="290" y="423" on="1"/>
        <pt x="179" y="212" on="1"/>
      </contour>
    </TTGlyph>
    <TTGlyph name="Abreve" xMin="-52" yMin="0" xMax="546" yMax="788">
      <contour>
        <pt x="289" y="651" on="0"/>
        <pt x="241" y="700" on="0"/>
        <pt x="241" y="740" on="1"/>
        <pt x="241" y="763" on="0"/>
        <pt x="250" y="788" on="1"/>
        <pt x="306" y="788" on="1"/>
        <pt x="304" y="778" on="0"/>
        <pt x="304" y="770" on="1"/>
        <pt x="304" y="749" on="0"/>
        <pt x="324" y="727" on="0"/>
        <pt x="356" y="727" on="1"/>
        <pt x="399" y="727" on="0"/>
        <pt x="430" y="758" on="0"/>
        <pt x="438" y="788" on="1"/>
        <pt x="492" y="788" on="1"/>
        <pt x="479" y="725" on="0"/>
        <pt x="414" y="651" on="0"/>
        <pt x="344" y="651" on="1"/>
      </contour>
      <contour>
        <pt x="-43" y="44" on="1"/>
        <pt x="26" y="69" on="1"/>
        <pt x="314" y="614" on="1"/>
        <pt x="391" y="627" on="1"/>
        <pt x="483" y="69" on="1"/>
        <pt x="546" y="45" on="1"/>
        <pt x="537" y="0" on="1"/>
        <pt x="270" y="0" on="1"/>
        <pt x="279" y="45" on="1"/>
        <pt x="345" y="65" on="1"/>
        <pt x="331" y="153" on="1"/>
        <pt x="148" y="153" on="1"/>
        <pt x="103" y="68" on="1"/>
        <pt x="163" y="45" on="1"/>
        <pt x="154" y="0" on="1"/>
        <pt x="-52" y="0" on="1"/>
      </contour>
      <contour>
        <pt x="322" y="212" on="1"/>
        <pt x="290" y="423" on="1"/>
        <pt x="179" y="212" on="1"/>
      </contour>
    </TTGlyph>
    <TTGlyph name="Acircumflex" xMin="-52" yMin="0" xMax="546" yMax="795">
      <contour>
        <pt x="359" y="707" on="1"/>
        <pt x="225" y="639" on="1"/>
        <pt x="202" y="669" on="1"/>
        <pt x="330" y="795" on="1"/>
        <pt x="415" y="795" on="1"/>
        <pt x="497" y="665" on="1"/>
        <pt x="467" y="639" on="1"/>
      </contour>
      <contour>
        <pt x="148" y="153" on="1"/>
        <pt x="103" y="68" on="1"/>
        <pt x="163" y="45" on="1"/>
        <pt x="154" y="0" on="1"/>
        <pt x="-52" y="0" on="1"/>
        <pt x="-43" y="44" on="1"/>
        <pt x="26" y="69" on="1"/>
        <pt x="314" y="614" on="1"/>
        <pt x="391" y="627" on="1"/>
        <pt x="483" y="69" on="1"/>
        <pt x="546" y="45" on="1"/>
        <pt x="537" y="0" on="1"/>
        <pt x="270" y="0" on="1"/>
        <pt x="279" y="45" on="1"/>
        <pt x="345" y="65" on="1"/>
        <pt x="331" y="153" on="1"/>
      </contour>
      <contour>
        <pt x="322" y="212" on="1"/>
        <pt x="290" y="423" on="1"/>
        <pt x="179" y="212" on="1"/>
      </contour>
    </TTGlyph>
    <TTGlyph name="Adieresis" xMin="-52" yMin="0" xMax="551" yMax="792">
      <contour>
        <pt x="214" y="647" on="0"/>
        <pt x="168" y="688" on="0"/>
        <pt x="168" y="719" on="1"/>
        <pt x="168" y="749" on="0"/>
        <pt x="215" y="792" on="0"/>
        <pt x="246" y="792" on="1"/>
        <pt x="276" y="792" on="0"/>
        <pt x="320" y="749" on="0"/>
        <pt x="320" y="719" on="1"/>
        <pt x="320" y="688" on="0"/>
        <pt x="277" y="647" on="0"/>
        <pt x="246" y="647" on="1"/>
      </contour>
      <contour>
        <pt x="446" y="647" on="0"/>
        <pt x="401" y="688" on="0"/>
        <pt x="401" y="719" on="1"/>
        <pt x="401" y="750" on="0"/>
        <pt x="446" y="792" on="0"/>
        <pt x="478" y="792" on="1"/>
        <pt x="507" y="792" on="0"/>
        <pt x="551" y="749" on="0"/>
        <pt x="551" y="719" on="1"/>
        <pt x="551" y="688" on="0"/>
        <pt x="507" y="647" on="0"/>
        <pt x="478" y="647" on="1"/>
      </contour>
      <contour>
        <pt x="-43" y="44" on="1"/>
        <pt x="26" y="69" on="1"/>
        <pt x="314" y="614" on="1"/>
        <pt x="391" y="627" on="1"/>
        <pt x="483" y="69" on="1"/>
        <pt x="546" y="45" on="1"/>
        <pt x="537" y="0" on="1"/>
        <pt x="270" y="0" on="1"/>
        <pt x="279" y="45" on="1"/>
        <pt x="345" y="65" on="1"/>
        <pt x="331" y="153" on="1"/>
        <pt x="148" y="153" on="1"/>
        <pt x="103" y="68" on="1"/>
        <pt x="163" y="45" on="1"/>
        <pt x="154" y="0" on="1"/>
        <pt x="-52" y="0" on="1"/>
      </contour>
      <contour>
        <pt x="322" y="212" on="1"/>
        <pt x="290" y="423" on="1"/>
        <pt x="179" y="212" on="1"/>
      </contour>
    </TTGlyph>
    <TTGlyph name="Agrave" xMin="-52" yMin="0" xMax="546" yMax="800">
      <contour>
        <pt x="202" y="743" on="1"/>
        <pt x="206" y="766" on="1"/>
        <pt x="303" y="800" on="1"/>
        <pt x="457" y="669" on="1"/>
        <pt x="434" y="634" on="1"/>
      </contour>
      <contour>
        <pt x="-43" y="44" on="1"/>
        <pt x="26" y="69" on="1"/>
        <pt x="314" y="614" on="1"/>
        <pt x="391" y="627" on="1"/>
        <pt x="483" y="69" on="1"/>
        <pt x="546" y="45" on="1"/>
        <pt x="537" y="0" on="1"/>
        <pt x="270" y="0" on="1"/>
        <pt x="279" y="45" on="1"/>
        <pt x="345" y="65" on="1"/>
        <pt x="331" y="153" on="1"/>
        <pt x="148" y="153" on="1"/>
        <pt x="103" y="68" on="1"/>
        <pt x="163" y="45" on="1"/>
        <pt x="154" y="0" on="1"/>
        <pt x="-52" y="0" on="1"/>
      </contour>
      <contour>
        <pt x="322" y="212" on="1"/>
        <pt x="290" y="423" on="1"/>
        <pt x="179" y="212" on="1"/>
      </contour>
    </TTGlyph>
    <TTGlyph name="Amacron" xMin="-52" yMin="0" xMax="546" yMax="758">
      <contour>
        <pt x="230" y="758" on="1"/>
        <pt x="491" y="758" on="1"/>
        <pt x="480" y="679" on="1"/>
        <pt x="219" y="679" on="1"/>
      </contour>
      <contour>
        <pt x="-43" y="44" on="1"/>
        <pt x="26" y="69" on="1"/>
        <pt x="314" y="614" on="1"/>
        <pt x="391" y="627" on="1"/>
        <pt x="483" y="69" on="1"/>
        <pt x="546" y="45" on="1"/>
        <pt x="537" y="0" on="1"/>
        <pt x="270" y="0" on="1"/>
        <pt x="279" y="45" on="1"/>
        <pt x="345" y="65" on="1"/>
        <pt x="331" y="153" on="1"/>
        <pt x="148" y="153" on="1"/>
        <pt x="103" y="68" on="1"/>
        <pt x="163" y="45" on="1"/>
        <pt x="154" y="0" on="1"/>
        <pt x="-52" y="0" on="1"/>
      </contour>
      <contour>
        <pt x="322" y="212" on="1"/>
        <pt x="290" y="423" on="1"/>
        <pt x="179" y="212" on="1"/>
      </contour>
    </TTGlyph>
    <TTGlyph name="Aogonek" xMin="-52" yMin="-236" xMax="546" yMax="627">
      <contour>
        <pt x="243" y="-236" on="0"/>
        <pt x="200" y="-193" on="0"/>
        <pt x="200" y="-160" on="1"/>
        <pt x="200" y="-117" on="0"/>
        <pt x="249" y="-50" on="0"/>
        <pt x="292" y="-12" on="1"/>
        <pt x="319" y="13" on="0"/>
        <pt x="345" y="43" on="0"/>
        <pt x="345" y="58" on="1"/>
        <pt x="345" y="65" on="0"/>
        <pt x="343" y="77" on="1"/>
        <pt x="332" y="153" on="1"/>
        <pt x="148" y="153" on="1"/>
        <pt x="103" y="68" on="1"/>
        <pt x="163" y="45" on="1"/>
        <pt x="154" y="0" on="1"/>
        <pt x="-52" y="0" on="1"/>
        <pt x="-43" y="44" on="1"/>
        <pt x="26" y="69" on="1"/>
        <pt x="314" y="614" on="1"/>
        <pt x="391" y="627" on="1"/>
        <pt x="483" y="69" on="1"/>
        <pt x="546" y="45" on="1"/>
        <pt x="537" y="0" on="1"/>
        <pt x="400" y="0" on="1"/>
        <pt x="372" y="0" on="0"/>
        <pt x="320" y="-43" on="0"/>
        <pt x="288" y="-104" on="0"/>
        <pt x="288" y="-128" on="1"/>
        <pt x="288" y="-152" on="0"/>
        <pt x="306" y="-174" on="0"/>
        <pt x="326" y="-174" on="1"/>
        <pt x="355" y="-174" on="0"/>
        <pt x="390" y="-152" on="1"/>
        <pt x="410" y="-174" on="1"/>
        <pt x="410" y="-176" on="0"/>
        <pt x="378" y="-208" on="0"/>
        <pt x="326" y="-236" on="0"/>
        <pt x="292" y="-236" on="1"/>
      </contour>
      <contour>
        <pt x="322" y="212" on="1"/>
        <pt x="290" y="423" on="1"/>
        <pt x="179" y="212" on="1"/>
      </contour>
    </TTGlyph>
    <TTGlyph name="Aring" xMin="-52" yMin="0" xMax="546" yMax="819">
      <contour>
        <pt x="301" y="627" on="0"/>
        <pt x="250" y="664" on="0"/>
        <pt x="250" y="698" on="1"/>
        <pt x="250" y="750" on="0"/>
        <pt x="317" y="819" on="0"/>
        <pt x="385" y="819" on="1"/>
        <pt x="432" y="819" on="0"/>
        <pt x="477" y="775" on="0"/>
        <pt x="478" y="739" on="1"/>
        <pt x="478" y="689" on="0"/>
        <pt x="404" y="627" on="0"/>
        <pt x="347" y="627" on="1"/>
      </contour>
      <contour>
        <pt x="383" y="674" on="0"/>
        <pt x="405" y="713" on="0"/>
        <pt x="405" y="740" on="1"/>
        <pt x="405" y="754" on="0"/>
        <pt x="387" y="771" on="0"/>
        <pt x="370" y="771" on="1"/>
        <pt x="344" y="771" on="0"/>
        <pt x="323" y="733" on="0"/>
        <pt x="323" y="706" on="1"/>
        <pt x="323" y="690" on="0"/>
        <pt x="335" y="674" on="0"/>
        <pt x="355" y="674" on="1"/>
      </contour>
      <contour>
        <pt x="-43" y="44" on="1"/>
        <pt x="26" y="69" on="1"/>
        <pt x="314" y="614" on="1"/>
        <pt x="391" y="627" on="1"/>
        <pt x="483" y="69" on="1"/>
        <pt x="546" y="45" on="1"/>
        <pt x="537" y="0" on="1"/>
        <pt x="270" y="0" on="1"/>
        <pt x="279" y="45" on="1"/>
        <pt x="345" y="65" on="1"/>
        <pt x="331" y="153" on="1"/>
        <pt x="148" y="153" on="1"/>
        <pt x="103" y="68" on="1"/>
        <pt x="163" y="45" on="1"/>
        <pt x="154" y="0" on="1"/>
        <pt x="-52" y="0" on="1"/>
      </contour>
      <contour>
        <pt x="322" y="212" on="1"/>
        <pt x="290" y="423" on="1"/>
        <pt x="179" y="212" on="1"/>
      </contour>
    </TTGlyph>
    <TTGlyph name="Aringacute" xMin="-52" yMin="0" xMax="591" yMax="980">
      <contour>
        <pt x="591" y="946" on="1"/>
        <pt x="591" y="923" on="1"/>
        <pt x="371" y="818" on="1"/>
        <pt x="378" y="819" on="0"/>
        <pt x="395" y="819" on="1"/>
        <pt x="442" y="819" on="0"/>
        <pt x="487" y="775" on="0"/>
        <pt x="488" y="739" on="1"/>
        <pt x="488" y="689" on="0"/>
        <pt x="414" y="627" on="0"/>
        <pt x="357" y="627" on="1"/>
        <pt x="311" y="627" on="0"/>
        <pt x="260" y="664" on="0"/>
        <pt x="260" y="698" on="1"/>
        <pt x="260" y="743" on="0"/>
        <pt x="310" y="807" on="0"/>
        <pt x="361" y="816" on="1"/>
        <pt x="336" y="849" on="1"/>
        <pt x="492" y="980" on="1"/>
      </contour>
      <contour>
        <pt x="415" y="754" on="0"/>
        <pt x="397" y="771" on="0"/>
        <pt x="380" y="771" on="1"/>
        <pt x="354" y="771" on="0"/>
        <pt x="333" y="733" on="0"/>
        <pt x="333" y="706" on="1"/>
        <pt x="333" y="690" on="0"/>
        <pt x="345" y="674" on="0"/>
        <pt x="365" y="674" on="1"/>
        <pt x="393" y="674" on="0"/>
        <pt x="415" y="713" on="0"/>
        <pt x="415" y="740" on="1"/>
      </contour>
      <contour>
        <pt x="483" y="69" on="1"/>
        <pt x="546" y="45" on="1"/>
        <pt x="537" y="0" on="1"/>
        <pt x="270" y="0" on="1"/>
        <pt x="279" y="45" on="1"/>
        <pt x="345" y="65" on="1"/>
        <pt x="331" y="153" on="1"/>
        <pt x="148" y="153" on="1"/>
        <pt x="103" y="68" on="1"/>
        <pt x="163" y="45" on="1"/>
        <pt x="154" y="0" on="1"/>
        <pt x="-52" y="0" on="1"/>
        <pt x="-43" y="44" on="1"/>
        <pt x="26" y="69" on="1"/>
        <pt x="314" y="614" on="1"/>
        <pt x="391" y="627" on="1"/>
      </contour>
      <contour>
        <pt x="322" y="212" on="1"/>
        <pt x="290" y="423" on="1"/>
        <pt x="179" y="212" on="1"/>
      </contour>
    </TTGlyph>
    <TTGlyph name="Atilde" xMin="-52" yMin="0" xMax="546" yMax="783">
      <contour>
        <pt x="494" y="654" on="0"/>
        <pt x="451" y="654" on="1"/>
        <pt x="423" y="654" on="0"/>
        <pt x="353" y="674" on="1"/>
        <pt x="294" y="691" on="0"/>
        <pt x="275" y="691" on="1"/>
        <pt x="264" y="691" on="0"/>
        <pt x="247" y="677" on="0"/>
        <pt x="236" y="662" on="0"/>
        <pt x="235" y="660" on="1"/>
        <pt x="188" y="679" on="1"/>
        <pt x="204" y="724" on="0"/>
        <pt x="251" y="783" on="0"/>
        <pt x="275" y="783" on="1"/>
        <pt x="304" y="783" on="0"/>
        <pt x="372" y="763" on="1"/>
        <pt x="431" y="746" on="0"/>
        <pt x="451" y="746" on="1"/>
        <pt x="462" y="746" on="0"/>
        <pt x="481" y="760" on="0"/>
        <pt x="492" y="775" on="0"/>
        <pt x="493" y="777" on="1"/>
        <pt x="537" y="758" on="1"/>
      </contour>
      <contour>
        <pt x="148" y="153" on="1"/>
        <pt x="103" y="68" on="1"/>
        <pt x="163" y="45" on="1"/>
        <pt x="154" y="0" on="1"/>
        <pt x="-52" y="0" on="1"/>
        <pt x="-43" y="44" on="1"/>
        <pt x="26" y="69" on="1"/>
        <pt x="314" y="614" on="1"/>
        <pt x="391" y="627" on="1"/>
        <pt x="483" y="69" on="1"/>
        <pt x="546" y="45" on="1"/>
        <pt x="537" y="0" on="1"/>
        <pt x="270" y="0" on="1"/>
        <pt x="279" y="45" on="1"/>
        <pt x="345" y="65" on="1"/>
        <pt x="331" y="153" on="1"/>
      </contour>
      <contour>
        <pt x="322" y="212" on="1"/>
        <pt x="290" y="423" on="1"/>
        <pt x="179" y="212" on="1"/>
      </contour>
    </TTGlyph>
    <TTGlyph name="B" xMin="-13" yMin="0" xMax="555" yMax="614">
      <contour>
        <pt x="451" y="314" on="0"/>
        <pt x="513" y="251" on="0"/>
        <pt x="513" y="203" on="1"/>
        <pt x="513" y="143" on="0"/>
        <pt x="447" y="51" on="0"/>
        <pt x="324" y="0" on="0"/>
        <pt x="240" y="0" on="1"/>
        <pt x="-13" y="0" on="1"/>
        <pt x="-5" y="45" on="1"/>
        <pt x="79" y="69" on="1"/>
        <pt x="172" y="546" on="1"/>
        <pt x="96" y="569" on="1"/>
        <pt x="105" y="614" on="1"/>
        <pt x="371" y="614" on="1"/>
        <pt x="465" y="614" on="0"/>
        <pt x="555" y="553" on="0"/>
        <pt x="555" y="498" on="1"/>
        <pt x="555" y="429" on="0"/>
        <pt x="460" y="337" on="0"/>
        <pt x="389" y="324" on="1"/>
      </contour>
      <contour>
        <pt x="321" y="343" on="0"/>
        <pt x="377" y="369" on="0"/>
        <pt x="417" y="435" on="0"/>
        <pt x="417" y="490" on="1"/>
        <pt x="417" y="553" on="0"/>
        <pt x="350" y="553" on="1"/>
        <pt x="336" y="553" on="0"/>
        <pt x="312" y="550" on="0"/>
        <pt x="309" y="549" on="1"/>
        <pt x="268" y="343" on="1"/>
        <pt x="295" y="343" on="1"/>
      </contour>
      <contour>
        <pt x="237" y="61" on="0"/>
        <pt x="260" y="61" on="1"/>
        <pt x="310" y="61" on="0"/>
        <pt x="374" y="134" on="0"/>
        <pt x="374" y="203" on="1"/>
        <pt x="374" y="245" on="0"/>
        <pt x="323" y="289" on="0"/>
        <pt x="283" y="289" on="1"/>
        <pt x="258" y="289" on="1"/>
        <pt x="215" y="69" on="1"/>
      </contour>
    </TTGlyph>
    <TTGlyph name="C" xMin="36" yMin="-10" xMax="565" yMax="628">
      <contour>
        <pt x="406" y="5" on="0"/>
        <pt x="321" y="-10" on="0"/>
        <pt x="268" y="-10" on="1"/>
        <pt x="145" y="-10" on="0"/>
        <pt x="36" y="102" on="0"/>
        <pt x="36" y="216" on="1"/>
        <pt x="36" y="325" on="0"/>
        <pt x="116" y="513" on="0"/>
        <pt x="277" y="628" on="0"/>
        <pt x="393" y="628" on="1"/>
        <pt x="488" y="628" on="0"/>
        <pt x="565" y="603" on="1"/>
        <pt x="525" y="446" on="1"/>
        <pt x="471" y="446" on="1"/>
        <pt x="467" y="548" on="1"/>
        <pt x="428" y="560" on="0"/>
        <pt x="380" y="560" on="1"/>
        <pt x="276" y="560" on="0"/>
        <pt x="184" y="351" on="0"/>
        <pt x="184" y="208" on="1"/>
        <pt x="184" y="128" on="0"/>
        <pt x="237" y="59" on="0"/>
        <pt x="300" y="59" on="1"/>
        <pt x="343" y="59" on="0"/>
        <pt x="381" y="70" on="1"/>
        <pt x="418" y="157" on="1"/>
        <pt x="474" y="157" on="1"/>
        <pt x="452" y="21" on="1"/>
      </contour>
    </TTGlyph>
    <TTGlyph name="Cacute" xMin="36" yMin="-10" xMax="565" yMax="800">
      <contour>
        <pt x="274" y="669" on="1"/>
        <pt x="430" y="800" on="1"/>
        <pt x="529" y="766" on="1"/>
        <pt x="529" y="743" on="1"/>
        <pt x="301" y="634" on="1"/>
      </contour>
      <contour>
        <pt x="406" y="5" on="0"/>
        <pt x="321" y="-10" on="0"/>
        <pt x="268" y="-10" on="1"/>
        <pt x="145" y="-10" on="0"/>
        <pt x="36" y="102" on="0"/>
        <pt x="36" y="216" on="1"/>
        <pt x="36" y="325" on="0"/>
        <pt x="116" y="513" on="0"/>
        <pt x="277" y="628" on="0"/>
        <pt x="393" y="628" on="1"/>
        <pt x="488" y="628" on="0"/>
        <pt x="565" y="603" on="1"/>
        <pt x="525" y="446" on="1"/>
        <pt x="471" y="446" on="1"/>
        <pt x="467" y="548" on="1"/>
        <pt x="428" y="560" on="0"/>
        <pt x="380" y="560" on="1"/>
        <pt x="276" y="560" on="0"/>
        <pt x="184" y="351" on="0"/>
        <pt x="184" y="208" on="1"/>
        <pt x="184" y="128" on="0"/>
        <pt x="237" y="59" on="0"/>
        <pt x="300" y="59" on="1"/>
        <pt x="343" y="59" on="0"/>
        <pt x="381" y="70" on="1"/>
        <pt x="418" y="157" on="1"/>
        <pt x="474" y="157" on="1"/>
        <pt x="452" y="21" on="1"/>
      </contour>
    </TTGlyph>
    <TTGlyph name="Cacute.loclPLK" xMin="36" yMin="-10" xMax="565" yMax="814">
      <component glyphName=".ttfautohint" x="36" y="0" flags="0x0"/>
      <component glyphName="C" x="0" y="0" flags="0x0"/>
      <component glyphName="acute.loclPLK.case" x="220" y="0" flags="0x0"/>
    </TTGlyph>
    <TTGlyph name="Ccaron" xMin="36" yMin="-10" xMax="565" yMax="795">
      <contour>
        <pt x="398" y="727" on="1"/>
        <pt x="532" y="795" on="1"/>
        <pt x="555" y="765" on="1"/>
        <pt x="427" y="639" on="1"/>
        <pt x="342" y="639" on="1"/>
        <pt x="260" y="769" on="1"/>
        <pt x="290" y="795" on="1"/>
      </contour>
      <contour>
        <pt x="406" y="5" on="0"/>
        <pt x="321" y="-10" on="0"/>
        <pt x="268" y="-10" on="1"/>
        <pt x="145" y="-10" on="0"/>
        <pt x="36" y="102" on="0"/>
        <pt x="36" y="216" on="1"/>
        <pt x="36" y="325" on="0"/>
        <pt x="116" y="513" on="0"/>
        <pt x="277" y="628" on="0"/>
        <pt x="393" y="628" on="1"/>
        <pt x="488" y="628" on="0"/>
        <pt x="565" y="603" on="1"/>
        <pt x="525" y="446" on="1"/>
        <pt x="471" y="446" on="1"/>
        <pt x="467" y="548" on="1"/>
        <pt x="428" y="560" on="0"/>
        <pt x="380" y="560" on="1"/>
        <pt x="276" y="560" on="0"/>
        <pt x="184" y="351" on="0"/>
        <pt x="184" y="208" on="1"/>
        <pt x="184" y="128" on="0"/>
        <pt x="237" y="59" on="0"/>
        <pt x="300" y="59" on="1"/>
        <pt x="343" y="59" on="0"/>
        <pt x="381" y="70" on="1"/>
        <pt x="418" y="157" on="1"/>
        <pt x="474" y="157" on="1"/>
        <pt x="452" y="21" on="1"/>
      </contour>
    </TTGlyph>
    <TTGlyph name="Ccedilla" xMin="36" yMin="-220" xMax="565" yMax="628">
      <contour>
        <pt x="408" y="6" on="0"/>
        <pt x="325" y="-9" on="0"/>
        <pt x="273" y="-10" on="1"/>
        <pt x="256" y="-46" on="1"/>
        <pt x="300" y="-46" on="0"/>
        <pt x="344" y="-79" on="0"/>
        <pt x="344" y="-107" on="1"/>
        <pt x="344" y="-142" on="0"/>
        <pt x="302" y="-193" on="0"/>
        <pt x="240" y="-220" on="0"/>
        <pt x="213" y="-220" on="1"/>
        <pt x="184" y="-220" on="0"/>
        <pt x="151" y="-212" on="0"/>
        <pt x="136" y="-204" on="1"/>
        <pt x="152" y="-169" on="1"/>
        <pt x="163" y="-176" on="0"/>
        <pt x="186" y="-176" on="1"/>
        <pt x="207" y="-176" on="0"/>
        <pt x="245" y="-148" on="0"/>
        <pt x="245" y="-125" on="1"/>
        <pt x="245" y="-93" on="0"/>
        <pt x="196" y="-92" on="1"/>
        <pt x="192" y="-73" on="1"/>
        <pt x="227" y="-8" on="1"/>
        <pt x="126" y="1" on="0"/>
        <pt x="36" y="111" on="0"/>
        <pt x="36" y="216" on="1"/>
        <pt x="36" y="325" on="0"/>
        <pt x="116" y="513" on="0"/>
        <pt x="277" y="628" on="0"/>
        <pt x="393" y="628" on="1"/>
        <pt x="488" y="628" on="0"/>
        <pt x="565" y="603" on="1"/>
        <pt x="525" y="446" on="1"/>
        <pt x="471" y="446" on="1"/>
        <pt x="467" y="548" on="1"/>
        <pt x="428" y="560" on="0"/>
        <pt x="380" y="560" on="1"/>
        <pt x="276" y="560" on="0"/>
        <pt x="184" y="351" on="0"/>
        <pt x="184" y="208" on="1"/>
        <pt x="184" y="128" on="0"/>
        <pt x="237" y="59" on="0"/>
        <pt x="300" y="59" on="1"/>
        <pt x="343" y="59" on="0"/>
        <pt x="381" y="70" on="1"/>
        <pt x="418" y="157" on="1"/>
        <pt x="474" y="157" on="1"/>
        <pt x="452" y="21" on="1"/>
      </contour>
    </TTGlyph>
    <TTGlyph name="Ccircumflex" xMin="36" yMin="-10" xMax="565" yMax="795">
      <component glyphName=".ttfautohint" x="36" y="0" flags="0x0"/>
      <component glyphName="C" x="0" y="0" flags="0x0"/>
      <component glyphName="uni0302" x="439" y="0" flags="0x0"/>
    </TTGlyph>
    <TTGlyph name="Cdotaccent" xMin="36" yMin="-10" xMax="565" yMax="799">
      <component glyphName=".ttfautohint" x="36" y="0" flags="0x0"/>
      <component glyphName="C" x="0" y="0" flags="0x0"/>
      <component glyphName="uni0307" x="440" y="0" flags="0x0"/>
    </TTGlyph>
    <TTGlyph name="D" xMin="-13" yMin="0" xMax="629" yMax="614">
      <contour>
        <pt x="-5" y="45" on="1"/>
        <pt x="79" y="69" on="1"/>
        <pt x="172" y="546" on="1"/>
        <pt x="96" y="569" on="1"/>
        <pt x="105" y="614" on="1"/>
        <pt x="376" y="614" on="1"/>
        <pt x="503" y="614" on="0"/>
        <pt x="629" y="502" on="0"/>
        <pt x="629" y="403" on="1"/>
        <pt x="629" y="295" on="0"/>
        <pt x="547" y="111" on="0"/>
        <pt x="384" y="0" on="0"/>
        <pt x="269" y="0" on="1"/>
        <pt x="-13" y="0" on="1"/>
      </contour>
      <contour>
        <pt x="349" y="61" on="0"/>
        <pt x="437" y="163" on="0"/>
        <pt x="481" y="321" on="0"/>
        <pt x="481" y="405" on="1"/>
        <pt x="481" y="483" on="0"/>
        <pt x="422" y="553" on="0"/>
        <pt x="359" y="553" on="1"/>
        <pt x="330" y="553" on="0"/>
        <pt x="308" y="547" on="1"/>
        <pt x="215" y="70" on="1"/>
        <pt x="239" y="61" on="0"/>
        <pt x="286" y="61" on="1"/>
      </contour>
    </TTGlyph>
    <TTGlyph name="Dcaron" xMin="-13" yMin="0" xMax="629" yMax="795">
      <contour>
        <pt x="250" y="769" on="1"/>
        <pt x="280" y="795" on="1"/>
        <pt x="388" y="727" on="1"/>
        <pt x="522" y="795" on="1"/>
        <pt x="545" y="765" on="1"/>
        <pt x="417" y="639" on="1"/>
        <pt x="332" y="639" on="1"/>
      </contour>
      <contour>
        <pt x="-5" y="45" on="1"/>
        <pt x="79" y="69" on="1"/>
        <pt x="172" y="546" on="1"/>
        <pt x="96" y="569" on="1"/>
        <pt x="105" y="614" on="1"/>
        <pt x="376" y="614" on="1"/>
        <pt x="503" y="614" on="0"/>
        <pt x="629" y="502" on="0"/>
        <pt x="629" y="403" on="1"/>
        <pt x="629" y="295" on="0"/>
        <pt x="547" y="111" on="0"/>
        <pt x="384" y="0" on="0"/>
        <pt x="269" y="0" on="1"/>
        <pt x="-13" y="0" on="1"/>
      </contour>
      <contour>
        <pt x="349" y="61" on="0"/>
        <pt x="437" y="163" on="0"/>
        <pt x="481" y="321" on="0"/>
        <pt x="481" y="405" on="1"/>
        <pt x="481" y="483" on="0"/>
        <pt x="422" y="553" on="0"/>
        <pt x="359" y="553" on="1"/>
        <pt x="330" y="553" on="0"/>
        <pt x="308" y="547" on="1"/>
        <pt x="215" y="70" on="1"/>
        <pt x="239" y="61" on="0"/>
        <pt x="286" y="61" on="1"/>
      </contour>
    </TTGlyph>
    <TTGlyph name="Dcroat" xMin="-10" yMin="0" xMax="632" yMax="614">
      <contour>
        <pt x="-2" y="45" on="1"/>
        <pt x="82" y="69" on="1"/>
        <pt x="122" y="274" on="1"/>
        <pt x="61" y="274" on="1"/>
        <pt x="72" y="330" on="1"/>
        <pt x="133" y="330" on="1"/>
        <pt x="175" y="546" on="1"/>
        <pt x="99" y="569" on="1"/>
        <pt x="108" y="614" on="1"/>
        <pt x="379" y="614" on="1"/>
        <pt x="506" y="614" on="0"/>
        <pt x="632" y="502" on="0"/>
        <pt x="632" y="403" on="1"/>
        <pt x="632" y="295" on="0"/>
        <pt x="550" y="111" on="0"/>
        <pt x="387" y="0" on="0"/>
        <pt x="272" y="0" on="1"/>
        <pt x="-10" y="0" on="1"/>
      </contour>
      <contour>
        <pt x="352" y="61" on="0"/>
        <pt x="440" y="163" on="0"/>
        <pt x="484" y="321" on="0"/>
        <pt x="484" y="405" on="1"/>
        <pt x="484" y="483" on="0"/>
        <pt x="425" y="553" on="0"/>
        <pt x="362" y="553" on="1"/>
        <pt x="333" y="553" on="0"/>
        <pt x="311" y="547" on="1"/>
        <pt x="269" y="330" on="1"/>
        <pt x="353" y="330" on="1"/>
        <pt x="342" y="274" on="1"/>
        <pt x="258" y="274" on="1"/>
        <pt x="218" y="70" on="1"/>
        <pt x="242" y="61" on="0"/>
        <pt x="289" y="61" on="1"/>
      </contour>
    </TTGlyph>
    <TTGlyph name="E" xMin="-13" yMin="0" xMax="552" yMax="614">
      <contour>
        <pt x="449" y="403" on="1"/>
        <pt x="412" y="212" on="1"/>
        <pt x="362" y="212" on="1"/>
        <pt x="357" y="281" on="1"/>
        <pt x="256" y="281" on="1"/>
        <pt x="215" y="69" on="1"/>
        <pt x="388" y="69" on="1"/>
        <pt x="430" y="162" on="1"/>
        <pt x="483" y="162" on="1"/>
        <pt x="452" y="0" on="1"/>
        <pt x="-13" y="0" on="1"/>
        <pt x="-5" y="45" on="1"/>
        <pt x="79" y="69" on="1"/>
        <pt x="172" y="546" on="1"/>
        <pt x="96" y="569" on="1"/>
        <pt x="105" y="614" on="1"/>
        <pt x="552" y="614" on="1"/>
        <pt x="524" y="468" on="1"/>
        <pt x="471" y="468" on="1"/>
        <pt x="466" y="546" on="1"/>
        <pt x="308" y="546" on="1"/>
        <pt x="267" y="337" on="1"/>
        <pt x="370" y="337" on="1"/>
        <pt x="399" y="403" on="1"/>
      </contour>
    </TTGlyph>
    <TTGlyph name="Eacute" xMin="-13" yMin="0" xMax="552" yMax="800">
      <contour>
        <pt x="251" y="669" on="1"/>
        <pt x="407" y="800" on="1"/>
        <pt x="506" y="766" on="1"/>
        <pt x="506" y="743" on="1"/>
        <pt x="278" y="634" on="1"/>
      </contour>
      <contour>
        <pt x="449" y="403" on="1"/>
        <pt x="412" y="212" on="1"/>
        <pt x="362" y="212" on="1"/>
        <pt x="357" y="281" on="1"/>
        <pt x="256" y="281" on="1"/>
        <pt x="215" y="69" on="1"/>
        <pt x="388" y="69" on="1"/>
        <pt x="430" y="162" on="1"/>
        <pt x="483" y="162" on="1"/>
        <pt x="452" y="0" on="1"/>
        <pt x="-13" y="0" on="1"/>
        <pt x="-5" y="45" on="1"/>
        <pt x="79" y="69" on="1"/>
        <pt x="172" y="546" on="1"/>
        <pt x="96" y="569" on="1"/>
        <pt x="105" y="614" on="1"/>
        <pt x="552" y="614" on="1"/>
        <pt x="524" y="468" on="1"/>
        <pt x="471" y="468" on="1"/>
        <pt x="466" y="546" on="1"/>
        <pt x="308" y="546" on="1"/>
        <pt x="267" y="337" on="1"/>
        <pt x="370" y="337" on="1"/>
        <pt x="399" y="403" on="1"/>
      </contour>
    </TTGlyph>
    <TTGlyph name="Ebreve" xMin="-13" yMin="0" xMax="552" yMax="788">
      <component glyphName=".ttfautohint" x="0" y="0" flags="0x0"/>
      <component glyphName="E" x="0" y="0" flags="0x0"/>
      <component glyphName="uni0306" x="387" y="0" flags="0x0"/>
    </TTGlyph>
    <TTGlyph name="Ecaron" xMin="-13" yMin="0" xMax="552" yMax="795">
      <contour>
        <pt x="364" y="727" on="1"/>
        <pt x="498" y="795" on="1"/>
        <pt x="521" y="765" on="1"/>
        <pt x="393" y="639" on="1"/>
        <pt x="308" y="639" on="1"/>
        <pt x="226" y="769" on="1"/>
        <pt x="256" y="795" on="1"/>
      </contour>
      <contour>
        <pt x="449" y="403" on="1"/>
        <pt x="412" y="212" on="1"/>
        <pt x="362" y="212" on="1"/>
        <pt x="357" y="281" on="1"/>
        <pt x="256" y="281" on="1"/>
        <pt x="215" y="69" on="1"/>
        <pt x="388" y="69" on="1"/>
        <pt x="430" y="162" on="1"/>
        <pt x="483" y="162" on="1"/>
        <pt x="452" y="0" on="1"/>
        <pt x="-13" y="0" on="1"/>
        <pt x="-5" y="45" on="1"/>
        <pt x="79" y="69" on="1"/>
        <pt x="172" y="546" on="1"/>
        <pt x="96" y="569" on="1"/>
        <pt x="105" y="614" on="1"/>
        <pt x="552" y="614" on="1"/>
        <pt x="524" y="468" on="1"/>
        <pt x="471" y="468" on="1"/>
        <pt x="466" y="546" on="1"/>
        <pt x="308" y="546" on="1"/>
        <pt x="267" y="337" on="1"/>
        <pt x="370" y="337" on="1"/>
        <pt x="399" y="403" on="1"/>
      </contour>
    </TTGlyph>
    <TTGlyph name="Ecircumflex" xMin="-13" yMin="0" xMax="552" yMax="795">
      <contour>
        <pt x="358" y="707" on="1"/>
        <pt x="224" y="639" on="1"/>
        <pt x="201" y="669" on="1"/>
        <pt x="329" y="795" on="1"/>
        <pt x="414" y="795" on="1"/>
        <pt x="496" y="665" on="1"/>
        <pt x="466" y="639" on="1"/>
      </contour>
      <contour>
        <pt x="449" y="403" on="1"/>
        <pt x="412" y="212" on="1"/>
        <pt x="362" y="212" on="1"/>
        <pt x="357" y="281" on="1"/>
        <pt x="256" y="281" on="1"/>
        <pt x="215" y="69" on="1"/>
        <pt x="388" y="69" on="1"/>
        <pt x="430" y="162" on="1"/>
        <pt x="483" y="162" on="1"/>
        <pt x="452" y="0" on="1"/>
        <pt x="-13" y="0" on="1"/>
        <pt x="-5" y="45" on="1"/>
        <pt x="79" y="69" on="1"/>
        <pt x="172" y="546" on="1"/>
        <pt x="96" y="569" on="1"/>
        <pt x="105" y="614" on="1"/>
        <pt x="552" y="614" on="1"/>
        <pt x="524" y="468" on="1"/>
        <pt x="471" y="468" on="1"/>
        <pt x="466" y="546" on="1"/>
        <pt x="308" y="546" on="1"/>
        <pt x="267" y="337" on="1"/>
        <pt x="370" y="337" on="1"/>
        <pt x="399" y="403" on="1"/>
      </contour>
    </TTGlyph>
    <TTGlyph name="Edieresis" xMin="-13" yMin="0" xMax="552" yMax="792">
      <contour>
        <pt x="316" y="688" on="0"/>
        <pt x="273" y="647" on="0"/>
        <pt x="242" y="647" on="1"/>
        <pt x="210" y="647" on="0"/>
        <pt x="164" y="688" on="0"/>
        <pt x="164" y="719" on="1"/>
        <pt x="164" y="749" on="0"/>
        <pt x="211" y="792" on="0"/>
        <pt x="242" y="792" on="1"/>
        <pt x="272" y="792" on="0"/>
        <pt x="316" y="749" on="0"/>
        <pt x="316" y="719" on="1"/>
      </contour>
      <contour>
        <pt x="547" y="688" on="0"/>
        <pt x="503" y="647" on="0"/>
        <pt x="474" y="647" on="1"/>
        <pt x="442" y="647" on="0"/>
        <pt x="397" y="688" on="0"/>
        <pt x="397" y="719" on="1"/>
        <pt x="397" y="750" on="0"/>
        <pt x="442" y="792" on="0"/>
        <pt x="474" y="792" on="1"/>
        <pt x="503" y="792" on="0"/>
        <pt x="547" y="749" on="0"/>
        <pt x="547" y="719" on="1"/>
      </contour>
      <contour>
        <pt x="449" y="403" on="1"/>
        <pt x="412" y="212" on="1"/>
        <pt x="362" y="212" on="1"/>
        <pt x="357" y="281" on="1"/>
        <pt x="256" y="281" on="1"/>
        <pt x="215" y="69" on="1"/>
        <pt x="388" y="69" on="1"/>
        <pt x="430" y="162" on="1"/>
        <pt x="483" y="162" on="1"/>
        <pt x="452" y="0" on="1"/>
        <pt x="-13" y="0" on="1"/>
        <pt x="-5" y="45" on="1"/>
        <pt x="79" y="69" on="1"/>
        <pt x="172" y="546" on="1"/>
        <pt x="96" y="569" on="1"/>
        <pt x="105" y="614" on="1"/>
        <pt x="552" y="614" on="1"/>
        <pt x="524" y="468" on="1"/>
        <pt x="471" y="468" on="1"/>
        <pt x="466" y="546" on="1"/>
        <pt x="308" y="546" on="1"/>
        <pt x="267" y="337" on="1"/>
        <pt x="370" y="337" on="1"/>
        <pt x="399" y="403" on="1"/>
      </contour>
    </TTGlyph>
    <TTGlyph name="Edotaccent" xMin="-13" yMin="0" xMax="552" yMax="799">
      <contour>
        <pt x="443" y="681" on="0"/>
        <pt x="395" y="635" on="0"/>
        <pt x="361" y="635" on="1"/>
        <pt x="327" y="635" on="0"/>
        <pt x="275" y="682" on="0"/>
        <pt x="275" y="715" on="1"/>
        <pt x="275" y="749" on="0"/>
        <pt x="327" y="799" on="0"/>
        <pt x="361" y="799" on="1"/>
        <pt x="395" y="799" on="0"/>
        <pt x="443" y="749" on="0"/>
        <pt x="443" y="715" on="1"/>
      </contour>
      <contour>
        <pt x="449" y="403" on="1"/>
        <pt x="412" y="212" on="1"/>
        <pt x="362" y="212" on="1"/>
        <pt x="357" y="281" on="1"/>
        <pt x="256" y="281" on="1"/>
        <pt x="215" y="69" on="1"/>
        <pt x="388" y="69" on="1"/>
        <pt x="430" y="162" on="1"/>
        <pt x="483" y="162" on="1"/>
        <pt x="452" y="0" on="1"/>
        <pt x="-13" y="0" on="1"/>
        <pt x="-5" y="45" on="1"/>
        <pt x="79" y="69" on="1"/>
        <pt x="172" y="546" on="1"/>
        <pt x="96" y="569" on="1"/>
        <pt x="105" y="614" on="1"/>
        <pt x="552" y="614" on="1"/>
        <pt x="524" y="468" on="1"/>
        <pt x="471" y="468" on="1"/>
        <pt x="466" y="546" on="1"/>
        <pt x="308" y="546" on="1"/>
        <pt x="267" y="337" on="1"/>
        <pt x="370" y="337" on="1"/>
        <pt x="399" y="403" on="1"/>
      </contour>
    </TTGlyph>
    <TTGlyph name="Egrave" xMin="-13" yMin="0" xMax="552" yMax="800">
      <contour>
        <pt x="179" y="743" on="1"/>
        <pt x="183" y="766" on="1"/>
        <pt x="280" y="800" on="1"/>
        <pt x="434" y="669" on="1"/>
        <pt x="411" y="634" on="1"/>
      </contour>
      <contour>
        <pt x="449" y="403" on="1"/>
        <pt x="412" y="212" on="1"/>
        <pt x="362" y="212" on="1"/>
        <pt x="357" y="281" on="1"/>
        <pt x="256" y="281" on="1"/>
        <pt x="215" y="69" on="1"/>
        <pt x="388" y="69" on="1"/>
        <pt x="430" y="162" on="1"/>
        <pt x="483" y="162" on="1"/>
        <pt x="452" y="0" on="1"/>
        <pt x="-13" y="0" on="1"/>
        <pt x="-5" y="45" on="1"/>
        <pt x="79" y="69" on="1"/>
        <pt x="172" y="546" on="1"/>
        <pt x="96" y="569" on="1"/>
        <pt x="105" y="614" on="1"/>
        <pt x="552" y="614" on="1"/>
        <pt x="524" y="468" on="1"/>
        <pt x="471" y="468" on="1"/>
        <pt x="466" y="546" on="1"/>
        <pt x="308" y="546" on="1"/>
        <pt x="267" y="337" on="1"/>
        <pt x="370" y="337" on="1"/>
        <pt x="399" y="403" on="1"/>
      </contour>
    </TTGlyph>
    <TTGlyph name="Emacron" xMin="-13" yMin="0" xMax="552" yMax="758">
      <contour>
        <pt x="496" y="758" on="1"/>
        <pt x="485" y="679" on="1"/>
        <pt x="224" y="679" on="1"/>
        <pt x="235" y="758" on="1"/>
      </contour>
      <contour>
        <pt x="449" y="403" on="1"/>
        <pt x="412" y="212" on="1"/>
        <pt x="362" y="212" on="1"/>
        <pt x="357" y="281" on="1"/>
        <pt x="256" y="281" on="1"/>
        <pt x="215" y="69" on="1"/>
        <pt x="388" y="69" on="1"/>
        <pt x="430" y="162" on="1"/>
        <pt x="483" y="162" on="1"/>
        <pt x="452" y="0" on="1"/>
        <pt x="-13" y="0" on="1"/>
        <pt x="-5" y="45" on="1"/>
        <pt x="79" y="69" on="1"/>
        <pt x="172" y="546" on="1"/>
        <pt x="96" y="569" on="1"/>
        <pt x="105" y="614" on="1"/>
        <pt x="552" y="614" on="1"/>
        <pt x="524" y="468" on="1"/>
        <pt x="471" y="468" on="1"/>
        <pt x="466" y="546" on="1"/>
        <pt x="308" y="546" on="1"/>
        <pt x="267" y="337" on="1"/>
        <pt x="370" y="337" on="1"/>
        <pt x="399" y="403" on="1"/>
      </contour>
    </TTGlyph>
    <TTGlyph name="Eng" xMin="-13" yMin="-184" xMax="719" yMax="614">
      <contour>
        <pt x="719" y="614" on="1"/>
        <pt x="711" y="569" on="1"/>
        <pt x="626" y="546" on="1"/>
        <pt x="532" y="63" on="1"/>
        <pt x="509" y="-73" on="0"/>
        <pt x="404" y="-184" on="0"/>
        <pt x="323" y="-184" on="1"/>
        <pt x="291" y="-184" on="0"/>
        <pt x="223" y="-164" on="0"/>
        <pt x="197" y="-150" on="1"/>
        <pt x="214" y="-98" on="1"/>
        <pt x="228" y="-106" on="0"/>
        <pt x="271" y="-113" on="0"/>
        <pt x="289" y="-113" on="1"/>
        <pt x="337" y="-113" on="0"/>
        <pt x="387" y="-38" on="0"/>
        <pt x="395" y="38" on="1"/>
        <pt x="223" y="437" on="1"/>
        <pt x="152" y="69" on="1"/>
        <pt x="227" y="45" on="1"/>
        <pt x="218" y="0" on="1"/>
        <pt x="-13" y="0" on="1"/>
        <pt x="-4" y="45" on="1"/>
        <pt x="80" y="69" on="1"/>
        <pt x="172" y="546" on="1"/>
        <pt x="97" y="569" on="1"/>
        <pt x="105" y="614" on="1"/>
        <pt x="290" y="614" on="1"/>
        <pt x="482" y="172" on="1"/>
        <pt x="553" y="546" on="1"/>
        <pt x="478" y="569" on="1"/>
        <pt x="486" y="614" on="1"/>
      </contour>
    </TTGlyph>
    <TTGlyph name="Eogonek" xMin="-13" yMin="-236" xMax="552" yMax="614">
      <contour>
        <pt x="334" y="-236" on="0"/>
        <pt x="291" y="-193" on="0"/>
        <pt x="291" y="-160" on="1"/>
        <pt x="291" y="-127" on="0"/>
        <pt x="347" y="-41" on="0"/>
        <pt x="403" y="0" on="1"/>
        <pt x="-13" y="0" on="1"/>
        <pt x="-5" y="45" on="1"/>
        <pt x="79" y="69" on="1"/>
        <pt x="172" y="546" on="1"/>
        <pt x="96" y="569" on="1"/>
        <pt x="105" y="614" on="1"/>
        <pt x="552" y="614" on="1"/>
        <pt x="524" y="468" on="1"/>
        <pt x="471" y="468" on="1"/>
        <pt x="466" y="546" on="1"/>
        <pt x="308" y="546" on="1"/>
        <pt x="267" y="337" on="1"/>
        <pt x="370" y="337" on="1"/>
        <pt x="399" y="403" on="1"/>
        <pt x="449" y="403" on="1"/>
        <pt x="412" y="212" on="1"/>
        <pt x="362" y="212" on="1"/>
        <pt x="357" y="281" on="1"/>
        <pt x="256" y="281" on="1"/>
        <pt x="215" y="69" on="1"/>
        <pt x="388" y="69" on="1"/>
        <pt x="430" y="162" on="1"/>
        <pt x="483" y="162" on="1"/>
        <pt x="452" y="0" on="1"/>
        <pt x="426" y="-24" on="0"/>
        <pt x="379" y="-109" on="0"/>
        <pt x="379" y="-133" on="1"/>
        <pt x="379" y="-174" on="0"/>
        <pt x="417" y="-174" on="1"/>
        <pt x="446" y="-174" on="0"/>
        <pt x="481" y="-152" on="1"/>
        <pt x="501" y="-174" on="1"/>
        <pt x="501" y="-176" on="0"/>
        <pt x="469" y="-208" on="0"/>
        <pt x="417" y="-236" on="0"/>
        <pt x="383" y="-236" on="1"/>
      </contour>
    </TTGlyph>
    <TTGlyph name="Eth" xMin="-10" yMin="0" xMax="632" yMax="614">
      <contour>
        <pt x="-2" y="45" on="1"/>
        <pt x="82" y="69" on="1"/>
        <pt x="122" y="274" on="1"/>
        <pt x="61" y="274" on="1"/>
        <pt x="72" y="330" on="1"/>
        <pt x="133" y="330" on="1"/>
        <pt x="175" y="546" on="1"/>
        <pt x="99" y="569" on="1"/>
        <pt x="108" y="614" on="1"/>
        <pt x="379" y="614" on="1"/>
        <pt x="506" y="614" on="0"/>
        <pt x="632" y="502" on="0"/>
        <pt x="632" y="403" on="1"/>
        <pt x="632" y="295" on="0"/>
        <pt x="550" y="111" on="0"/>
        <pt x="387" y="0" on="0"/>
        <pt x="272" y="0" on="1"/>
        <pt x="-10" y="0" on="1"/>
      </contour>
      <contour>
        <pt x="352" y="61" on="0"/>
        <pt x="440" y="163" on="0"/>
        <pt x="484" y="321" on="0"/>
        <pt x="484" y="405" on="1"/>
        <pt x="484" y="483" on="0"/>
        <pt x="425" y="553" on="0"/>
        <pt x="362" y="553" on="1"/>
        <pt x="333" y="553" on="0"/>
        <pt x="311" y="547" on="1"/>
        <pt x="269" y="330" on="1"/>
        <pt x="353" y="330" on="1"/>
        <pt x="342" y="274" on="1"/>
        <pt x="258" y="274" on="1"/>
        <pt x="218" y="70" on="1"/>
        <pt x="242" y="61" on="0"/>
        <pt x="289" y="61" on="1"/>
      </contour>
    </TTGlyph>
    <TTGlyph name="Euro" xMin="-10" yMin="-5" xMax="527" yMax="622">
      <contour>
        <pt x="216" y="-5" on="0"/>
        <pt x="130" y="22" on="0"/>
        <pt x="76" y="104" on="0"/>
        <pt x="76" y="181" on="1"/>
        <pt x="76" y="201" on="0"/>
        <pt x="77" y="212" on="1"/>
        <pt x="-10" y="212" on="1"/>
        <pt x="9" y="270" on="1"/>
        <pt x="82" y="270" on="1"/>
        <pt x="83" y="275" on="0"/>
        <pt x="88" y="308" on="0"/>
        <pt x="93" y="331" on="1"/>
        <pt x="13" y="331" on="1"/>
        <pt x="32" y="389" on="1"/>
        <pt x="109" y="389" on="1"/>
        <pt x="148" y="515" on="0"/>
        <pt x="290" y="622" on="0"/>
        <pt x="380" y="622" on="1"/>
        <pt x="416" y="622" on="0"/>
        <pt x="495" y="606" on="0"/>
        <pt x="527" y="594" on="1"/>
        <pt x="488" y="457" on="1"/>
        <pt x="444" y="457" on="1"/>
        <pt x="440" y="546" on="1"/>
        <pt x="414" y="555" on="0"/>
        <pt x="383" y="555" on="1"/>
        <pt x="282" y="555" on="0"/>
        <pt x="234" y="389" on="1"/>
        <pt x="398" y="389" on="1"/>
        <pt x="379" y="331" on="1"/>
        <pt x="219" y="331" on="1"/>
        <pt x="208" y="270" on="1"/>
        <pt x="375" y="270" on="1"/>
        <pt x="356" y="212" on="1"/>
        <pt x="201" y="212" on="1"/>
        <pt x="200" y="202" on="0"/>
        <pt x="200" y="185" on="1"/>
        <pt x="200" y="125" on="0"/>
        <pt x="253" y="60" on="0"/>
        <pt x="315" y="60" on="1"/>
        <pt x="345" y="60" on="0"/>
        <pt x="413" y="72" on="1"/>
        <pt x="412" y="18" on="1"/>
        <pt x="378" y="6" on="0"/>
        <pt x="315" y="-5" on="0"/>
        <pt x="276" y="-5" on="1"/>
      </contour>
    </TTGlyph>
    <TTGlyph name="F" xMin="-13" yMin="0" xMax="557" yMax="614">
      <contour>
        <pt x="529" y="468" on="1"/>
        <pt x="476" y="468" on="1"/>
        <pt x="471" y="546" on="1"/>
        <pt x="308" y="546" on="1"/>
        <pt x="264" y="320" on="1"/>
        <pt x="371" y="320" on="1"/>
        <pt x="400" y="386" on="1"/>
        <pt x="450" y="386" on="1"/>
        <pt x="413" y="195" on="1"/>
        <pt x="363" y="195" on="1"/>
        <pt x="358" y="264" on="1"/>
        <pt x="253" y="264" on="1"/>
        <pt x="215" y="69" on="1"/>
        <pt x="301" y="47" on="1"/>
        <pt x="292" y="0" on="1"/>
        <pt x="-13" y="0" on="1"/>
        <pt x="-5" y="45" on="1"/>
        <pt x="79" y="69" on="1"/>
        <pt x="172" y="546" on="1"/>
        <pt x="96" y="569" on="1"/>
        <pt x="105" y="614" on="1"/>
        <pt x="557" y="614" on="1"/>
      </contour>
    </TTGlyph>
    <TTGlyph name="G" xMin="36" yMin="-10" xMax="592" yMax="628">
      <contour>
        <pt x="455" y="552" on="0"/>
        <pt x="411" y="560" on="0"/>
        <pt x="380" y="560" on="1"/>
        <pt x="270" y="560" on="0"/>
        <pt x="184" y="349" on="0"/>
        <pt x="184" y="211" on="1"/>
        <pt x="184" y="138" on="0"/>
        <pt x="229" y="59" on="0"/>
        <pt x="295" y="59" on="1"/>
        <pt x="339" y="59" on="0"/>
        <pt x="366" y="66" on="1"/>
        <pt x="396" y="221" on="1"/>
        <pt x="322" y="244" on="1"/>
        <pt x="331" y="289" on="1"/>
        <pt x="592" y="289" on="1"/>
        <pt x="583" y="242" on="1"/>
        <pt x="522" y="223" on="1"/>
        <pt x="485" y="34" on="1"/>
        <pt x="448" y="15" on="0"/>
        <pt x="334" y="-10" on="0"/>
        <pt x="270" y="-10" on="1"/>
        <pt x="145" y="-10" on="0"/>
        <pt x="36" y="101" on="0"/>
        <pt x="36" y="218" on="1"/>
        <pt x="36" y="330" on="0"/>
        <pt x="117" y="517" on="0"/>
        <pt x="278" y="628" on="0"/>
        <pt x="392" y="628" on="1"/>
        <pt x="449" y="628" on="0"/>
        <pt x="547" y="611" on="0"/>
        <pt x="580" y="598" on="1"/>
        <pt x="541" y="444" on="1"/>
        <pt x="486" y="444" on="1"/>
        <pt x="479" y="545" on="1"/>
      </contour>
    </TTGlyph>
    <TTGlyph name="G_tilde.loclGUA" xMin="36" yMin="-10" xMax="592" yMax="784">
      <contour>
        <pt x="526" y="655" on="0"/>
        <pt x="483" y="655" on="1"/>
        <pt x="455" y="655" on="0"/>
        <pt x="385" y="675" on="1"/>
        <pt x="326" y="692" on="0"/>
        <pt x="307" y="692" on="1"/>
        <pt x="296" y="692" on="0"/>
        <pt x="279" y="678" on="0"/>
        <pt x="268" y="663" on="0"/>
        <pt x="267" y="661" on="1"/>
        <pt x="220" y="680" on="1"/>
        <pt x="236" y="725" on="0"/>
        <pt x="283" y="784" on="0"/>
        <pt x="307" y="784" on="1"/>
        <pt x="336" y="784" on="0"/>
        <pt x="404" y="764" on="1"/>
        <pt x="463" y="747" on="0"/>
        <pt x="483" y="747" on="1"/>
        <pt x="494" y="747" on="0"/>
        <pt x="513" y="761" on="0"/>
        <pt x="524" y="776" on="0"/>
        <pt x="525" y="778" on="1"/>
        <pt x="569" y="759" on="1"/>
      </contour>
      <contour>
        <pt x="455" y="552" on="0"/>
        <pt x="411" y="560" on="0"/>
        <pt x="380" y="560" on="1"/>
        <pt x="270" y="560" on="0"/>
        <pt x="184" y="349" on="0"/>
        <pt x="184" y="211" on="1"/>
        <pt x="184" y="138" on="0"/>
        <pt x="229" y="59" on="0"/>
        <pt x="295" y="59" on="1"/>
        <pt x="339" y="59" on="0"/>
        <pt x="366" y="66" on="1"/>
        <pt x="396" y="221" on="1"/>
        <pt x="322" y="244" on="1"/>
        <pt x="331" y="289" on="1"/>
        <pt x="592" y="289" on="1"/>
        <pt x="583" y="242" on="1"/>
        <pt x="522" y="223" on="1"/>
        <pt x="485" y="34" on="1"/>
        <pt x="448" y="15" on="0"/>
        <pt x="334" y="-10" on="0"/>
        <pt x="270" y="-10" on="1"/>
        <pt x="145" y="-10" on="0"/>
        <pt x="36" y="101" on="0"/>
        <pt x="36" y="218" on="1"/>
        <pt x="36" y="330" on="0"/>
        <pt x="117" y="517" on="0"/>
        <pt x="278" y="628" on="0"/>
        <pt x="392" y="628" on="1"/>
        <pt x="449" y="628" on="0"/>
        <pt x="547" y="611" on="0"/>
        <pt x="580" y="598" on="1"/>
        <pt x="541" y="444" on="1"/>
        <pt x="486" y="444" on="1"/>
        <pt x="479" y="545" on="1"/>
      </contour>
    </TTGlyph>
    <TTGlyph name="Gbreve" xMin="36" yMin="-10" xMax="592" yMax="788">
      <contour>
        <pt x="326" y="651" on="0"/>
        <pt x="278" y="700" on="0"/>
        <pt x="278" y="740" on="1"/>
        <pt x="278" y="763" on="0"/>
        <pt x="287" y="788" on="1"/>
        <pt x="343" y="788" on="1"/>
        <pt x="341" y="778" on="0"/>
        <pt x="341" y="770" on="1"/>
        <pt x="341" y="749" on="0"/>
        <pt x="361" y="727" on="0"/>
        <pt x="393" y="727" on="1"/>
        <pt x="436" y="727" on="0"/>
        <pt x="467" y="758" on="0"/>
        <pt x="475" y="788" on="1"/>
        <pt x="529" y="788" on="1"/>
        <pt x="516" y="725" on="0"/>
        <pt x="451" y="651" on="0"/>
        <pt x="381" y="651" on="1"/>
      </contour>
      <contour>
        <pt x="455" y="552" on="0"/>
        <pt x="411" y="560" on="0"/>
        <pt x="380" y="560" on="1"/>
        <pt x="270" y="560" on="0"/>
        <pt x="184" y="349" on="0"/>
        <pt x="184" y="211" on="1"/>
        <pt x="184" y="138" on="0"/>
        <pt x="229" y="59" on="0"/>
        <pt x="295" y="59" on="1"/>
        <pt x="339" y="59" on="0"/>
        <pt x="366" y="66" on="1"/>
        <pt x="396" y="221" on="1"/>
        <pt x="322" y="244" on="1"/>
        <pt x="331" y="289" on="1"/>
        <pt x="592" y="289" on="1"/>
        <pt x="583" y="242" on="1"/>
        <pt x="522" y="223" on="1"/>
        <pt x="485" y="34" on="1"/>
        <pt x="448" y="15" on="0"/>
        <pt x="334" y="-10" on="0"/>
        <pt x="270" y="-10" on="1"/>
        <pt x="145" y="-10" on="0"/>
        <pt x="36" y="101" on="0"/>
        <pt x="36" y="218" on="1"/>
        <pt x="36" y="330" on="0"/>
        <pt x="117" y="517" on="0"/>
        <pt x="278" y="628" on="0"/>
        <pt x="392" y="628" on="1"/>
        <pt x="449" y="628" on="0"/>
        <pt x="547" y="611" on="0"/>
        <pt x="580" y="598" on="1"/>
        <pt x="541" y="444" on="1"/>
        <pt x="486" y="444" on="1"/>
        <pt x="479" y="545" on="1"/>
      </contour>
    </TTGlyph>
    <TTGlyph name="Gcaron" xMin="36" yMin="-10" xMax="592" yMax="795">
      <component glyphName=".ttfautohint" x="36" y="0" flags="0x0"/>
      <component glyphName="G" x="0" y="0" flags="0x0"/>
      <component glyphName="uni030C" x="415" y="0" flags="0x0"/>
    </TTGlyph>
    <TTGlyph name="Gcircumflex" xMin="36" yMin="-10" xMax="592" yMax="795">
      <component glyphName=".ttfautohint" x="36" y="0" flags="0x0"/>
      <component glyphName="G" x="0" y="0" flags="0x0"/>
      <component glyphName="uni0302" x="423" y="0" flags="0x0"/>
    </TTGlyph>
    <TTGlyph name="Gcommaaccent" xMin="36" yMin="-236" xMax="592" yMax="628">
      <contour>
        <pt x="455" y="552" on="0"/>
        <pt x="411" y="560" on="0"/>
        <pt x="380" y="560" on="1"/>
        <pt x="270" y="560" on="0"/>
        <pt x="184" y="349" on="0"/>
        <pt x="184" y="211" on="1"/>
        <pt x="184" y="138" on="0"/>
        <pt x="229" y="59" on="0"/>
        <pt x="295" y="59" on="1"/>
        <pt x="339" y="59" on="0"/>
        <pt x="366" y="66" on="1"/>
        <pt x="396" y="221" on="1"/>
        <pt x="322" y="244" on="1"/>
        <pt x="331" y="289" on="1"/>
        <pt x="592" y="289" on="1"/>
        <pt x="583" y="242" on="1"/>
        <pt x="522" y="223" on="1"/>
        <pt x="485" y="34" on="1"/>
        <pt x="448" y="15" on="0"/>
        <pt x="334" y="-10" on="0"/>
        <pt x="270" y="-10" on="1"/>
        <pt x="145" y="-10" on="0"/>
        <pt x="36" y="101" on="0"/>
        <pt x="36" y="218" on="1"/>
        <pt x="36" y="330" on="0"/>
        <pt x="117" y="517" on="0"/>
        <pt x="278" y="628" on="0"/>
        <pt x="392" y="628" on="1"/>
        <pt x="449" y="628" on="0"/>
        <pt x="547" y="611" on="0"/>
        <pt x="580" y="598" on="1"/>
        <pt x="541" y="444" on="1"/>
        <pt x="486" y="444" on="1"/>
        <pt x="479" y="545" on="1"/>
      </contour>
      <contour>
        <pt x="186" y="-225" on="1"/>
        <pt x="222" y="-44" on="1"/>
        <pt x="314" y="-24" on="1"/>
        <pt x="336" y="-48" on="1"/>
        <pt x="226" y="-236" on="1"/>
      </contour>
    </TTGlyph>
    <TTGlyph name="Gdotaccent" xMin="36" yMin="-10" xMax="592" yMax="799">
      <component glyphName=".ttfautohint" x="36" y="0" flags="0x0"/>
      <component glyphName="G" x="0" y="0" flags="0x0"/>
      <component glyphName="uni0307" x="424" y="0" flags="0x0"/>
    </TTGlyph>
    <TTGlyph name="H" xMin="-15" yMin="0" xMax="747" yMax="614">
      <contour>
        <pt x="-7" y="45" on="1"/>
        <pt x="77" y="69" on="1"/>
        <pt x="170" y="546" on="1"/>
        <pt x="94" y="569" on="1"/>
        <pt x="103" y="614" on="1"/>
        <pt x="399" y="614" on="1"/>
        <pt x="390" y="569" on="1"/>
        <pt x="306" y="546" on="1"/>
        <pt x="266" y="338" on="1"/>
        <pt x="478" y="338" on="1"/>
        <pt x="518" y="546" on="1"/>
        <pt x="442" y="569" on="1"/>
        <pt x="451" y="614" on="1"/>
        <pt x="747" y="614" on="1"/>
        <pt x="738" y="569" on="1"/>
        <pt x="654" y="546" on="1"/>
        <pt x="561" y="69" on="1"/>
        <pt x="636" y="45" on="1"/>
        <pt x="628" y="0" on="1"/>
        <pt x="333" y="0" on="1"/>
        <pt x="341" y="45" on="1"/>
        <pt x="425" y="69" on="1"/>
        <pt x="465" y="272" on="1"/>
        <pt x="253" y="272" on="1"/>
        <pt x="213" y="69" on="1"/>
        <pt x="288" y="45" on="1"/>
        <pt x="280" y="0" on="1"/>
        <pt x="-15" y="0" on="1"/>
      </contour>
    </TTGlyph>
    <TTGlyph name="Hbar" xMin="-15" yMin="0" xMax="747" yMax="614">
      <contour>
        <pt x="654" y="546" on="1"/>
        <pt x="634" y="445" on="1"/>
        <pt x="710" y="445" on="1"/>
        <pt x="699" y="390" on="1"/>
        <pt x="624" y="390" on="1"/>
        <pt x="561" y="69" on="1"/>
        <pt x="636" y="45" on="1"/>
        <pt x="628" y="0" on="1"/>
        <pt x="333" y="0" on="1"/>
        <pt x="341" y="45" on="1"/>
        <pt x="425" y="69" on="1"/>
        <pt x="459" y="241" on="1"/>
        <pt x="247" y="241" on="1"/>
        <pt x="213" y="69" on="1"/>
        <pt x="288" y="45" on="1"/>
        <pt x="280" y="0" on="1"/>
        <pt x="-15" y="0" on="1"/>
        <pt x="-7" y="45" on="1"/>
        <pt x="77" y="69" on="1"/>
        <pt x="140" y="390" on="1"/>
        <pt x="63" y="390" on="1"/>
        <pt x="74" y="445" on="1"/>
        <pt x="150" y="445" on="1"/>
        <pt x="170" y="546" on="1"/>
        <pt x="94" y="569" on="1"/>
        <pt x="103" y="614" on="1"/>
        <pt x="399" y="614" on="1"/>
        <pt x="390" y="569" on="1"/>
        <pt x="306" y="546" on="1"/>
        <pt x="286" y="445" on="1"/>
        <pt x="498" y="445" on="1"/>
        <pt x="518" y="546" on="1"/>
        <pt x="442" y="569" on="1"/>
        <pt x="451" y="614" on="1"/>
        <pt x="747" y="614" on="1"/>
        <pt x="738" y="569" on="1"/>
      </contour>
      <contour>
        <pt x="488" y="390" on="1"/>
        <pt x="276" y="390" on="1"/>
        <pt x="259" y="307" on="1"/>
        <pt x="471" y="307" on="1"/>
      </contour>
    </TTGlyph>
    <TTGlyph name="Hcircumflex" xMin="-15" yMin="0" xMax="747" yMax="795">
      <component glyphName=".ttfautohint" x="0" y="0" flags="0x0"/>
      <component glyphName="H" x="0" y="0" flags="0x0"/>
      <component glyphName="uni0302" x="480" y="0" flags="0x0"/>
    </TTGlyph>
    <TTGlyph name="I" xMin="-13" yMin="0" xMax="401" yMax="614">
      <contour>
        <pt x="-5" y="45" on="1"/>
        <pt x="79" y="69" on="1"/>
        <pt x="172" y="546" on="1"/>
        <pt x="96" y="569" on="1"/>
        <pt x="105" y="614" on="1"/>
        <pt x="401" y="614" on="1"/>
        <pt x="392" y="569" on="1"/>
        <pt x="308" y="546" on="1"/>
        <pt x="215" y="69" on="1"/>
        <pt x="290" y="45" on="1"/>
        <pt x="282" y="0" on="1"/>
        <pt x="-13" y="0" on="1"/>
      </contour>
    </TTGlyph>
    <TTGlyph name="IJ" xMin="-13" yMin="-150" xMax="762" yMax="614">
      <component glyphName=".ttfautohint" x="0" y="0" flags="0x0"/>
      <component glyphName="I" x="0" y="0" flags="0x0"/>
      <component glyphName="J" x="357" y="0" flags="0x0"/>
    </TTGlyph>
    <TTGlyph name="Iacute" xMin="-13" yMin="0" xMax="411" yMax="800">
      <contour>
        <pt x="156" y="669" on="1"/>
        <pt x="312" y="800" on="1"/>
        <pt x="411" y="766" on="1"/>
        <pt x="411" y="743" on="1"/>
        <pt x="183" y="634" on="1"/>
      </contour>
      <contour>
        <pt x="-5" y="45" on="1"/>
        <pt x="79" y="69" on="1"/>
        <pt x="172" y="546" on="1"/>
        <pt x="96" y="569" on="1"/>
        <pt x="105" y="614" on="1"/>
        <pt x="401" y="614" on="1"/>
        <pt x="392" y="569" on="1"/>
        <pt x="308" y="546" on="1"/>
        <pt x="215" y="69" on="1"/>
        <pt x="290" y="45" on="1"/>
        <pt x="282" y="0" on="1"/>
        <pt x="-13" y="0" on="1"/>
      </contour>
    </TTGlyph>
    <TTGlyph name="Iacute_J.loclNLD" xMin="-13" yMin="-150" xMax="806" yMax="800">
      <component glyphName=".ttfautohint" x="0" y="0" flags="0x0"/>
      <component glyphName="I" x="0" y="0" flags="0x0"/>
      <component glyphName="acutecomb" x="364" y="0" flags="0x0"/>
      <component glyphName="J" x="357" y="0" flags="0x0"/>
      <component glyphName="acutecomb" x="717" y="0" flags="0x0"/>
    </TTGlyph>
    <TTGlyph name="Ibreve" xMin="-13" yMin="0" xMax="401" yMax="788">
      <component glyphName=".ttfautohint" x="0" y="0" flags="0x0"/>
      <component glyphName="I" x="0" y="0" flags="0x0"/>
      <component glyphName="uni0306" x="298" y="0" flags="0x0"/>
    </TTGlyph>
    <TTGlyph name="Icircumflex" xMin="-13" yMin="0" xMax="410" yMax="795">
      <contour>
        <pt x="115" y="669" on="1"/>
        <pt x="243" y="795" on="1"/>
        <pt x="328" y="795" on="1"/>
        <pt x="410" y="665" on="1"/>
        <pt x="380" y="639" on="1"/>
        <pt x="272" y="707" on="1"/>
        <pt x="138" y="639" on="1"/>
      </contour>
      <contour>
        <pt x="-5" y="45" on="1"/>
        <pt x="79" y="69" on="1"/>
        <pt x="172" y="546" on="1"/>
        <pt x="96" y="569" on="1"/>
        <pt x="105" y="614" on="1"/>
        <pt x="401" y="614" on="1"/>
        <pt x="392" y="569" on="1"/>
        <pt x="308" y="546" on="1"/>
        <pt x="215" y="69" on="1"/>
        <pt x="290" y="45" on="1"/>
        <pt x="282" y="0" on="1"/>
        <pt x="-13" y="0" on="1"/>
      </contour>
    </TTGlyph>
    <TTGlyph name="Idieresis" xMin="-13" yMin="0" xMax="463" yMax="792">
      <contour>
        <pt x="126" y="647" on="0"/>
        <pt x="80" y="688" on="0"/>
        <pt x="80" y="719" on="1"/>
        <pt x="80" y="749" on="0"/>
        <pt x="127" y="792" on="0"/>
        <pt x="158" y="792" on="1"/>
        <pt x="188" y="792" on="0"/>
        <pt x="232" y="749" on="0"/>
        <pt x="232" y="719" on="1"/>
        <pt x="232" y="688" on="0"/>
        <pt x="189" y="647" on="0"/>
        <pt x="158" y="647" on="1"/>
      </contour>
      <contour>
        <pt x="358" y="647" on="0"/>
        <pt x="313" y="688" on="0"/>
        <pt x="313" y="719" on="1"/>
        <pt x="313" y="750" on="0"/>
        <pt x="358" y="792" on="0"/>
        <pt x="390" y="792" on="1"/>
        <pt x="419" y="792" on="0"/>
        <pt x="463" y="749" on="0"/>
        <pt x="463" y="719" on="1"/>
        <pt x="463" y="688" on="0"/>
        <pt x="419" y="647" on="0"/>
        <pt x="390" y="647" on="1"/>
      </contour>
      <contour>
        <pt x="-5" y="45" on="1"/>
        <pt x="79" y="69" on="1"/>
        <pt x="172" y="546" on="1"/>
        <pt x="96" y="569" on="1"/>
        <pt x="105" y="614" on="1"/>
        <pt x="401" y="614" on="1"/>
        <pt x="392" y="569" on="1"/>
        <pt x="308" y="546" on="1"/>
        <pt x="215" y="69" on="1"/>
        <pt x="290" y="45" on="1"/>
        <pt x="282" y="0" on="1"/>
        <pt x="-13" y="0" on="1"/>
      </contour>
    </TTGlyph>
    <TTGlyph name="Idotaccent" xMin="-13" yMin="0" xMax="401" yMax="799">
      <contour>
        <pt x="239" y="635" on="0"/>
        <pt x="187" y="682" on="0"/>
        <pt x="187" y="715" on="1"/>
        <pt x="187" y="749" on="0"/>
        <pt x="239" y="799" on="0"/>
        <pt x="273" y="799" on="1"/>
        <pt x="307" y="799" on="0"/>
        <pt x="355" y="749" on="0"/>
        <pt x="355" y="715" on="1"/>
        <pt x="355" y="681" on="0"/>
        <pt x="307" y="635" on="0"/>
        <pt x="273" y="635" on="1"/>
      </contour>
      <contour>
        <pt x="-5" y="45" on="1"/>
        <pt x="79" y="69" on="1"/>
        <pt x="172" y="546" on="1"/>
        <pt x="96" y="569" on="1"/>
        <pt x="105" y="614" on="1"/>
        <pt x="401" y="614" on="1"/>
        <pt x="392" y="569" on="1"/>
        <pt x="308" y="546" on="1"/>
        <pt x="215" y="69" on="1"/>
        <pt x="290" y="45" on="1"/>
        <pt x="282" y="0" on="1"/>
        <pt x="-13" y="0" on="1"/>
      </contour>
    </TTGlyph>
    <TTGlyph name="Igrave" xMin="-13" yMin="0" xMax="401" yMax="800">
      <contour>
        <pt x="115" y="743" on="1"/>
        <pt x="119" y="766" on="1"/>
        <pt x="216" y="800" on="1"/>
        <pt x="370" y="669" on="1"/>
        <pt x="347" y="634" on="1"/>
      </contour>
      <contour>
        <pt x="-5" y="45" on="1"/>
        <pt x="79" y="69" on="1"/>
        <pt x="172" y="546" on="1"/>
        <pt x="96" y="569" on="1"/>
        <pt x="105" y="614" on="1"/>
        <pt x="401" y="614" on="1"/>
        <pt x="392" y="569" on="1"/>
        <pt x="308" y="546" on="1"/>
        <pt x="215" y="69" on="1"/>
        <pt x="290" y="45" on="1"/>
        <pt x="282" y="0" on="1"/>
        <pt x="-13" y="0" on="1"/>
      </contour>
    </TTGlyph>
    <TTGlyph name="Imacron" xMin="-13" yMin="0" xMax="418" yMax="758">
      <contour>
        <pt x="157" y="758" on="1"/>
        <pt x="418" y="758" on="1"/>
        <pt x="407" y="679" on="1"/>
        <pt x="146" y="679" on="1"/>
      </contour>
      <contour>
        <pt x="-5" y="45" on="1"/>
        <pt x="79" y="69" on="1"/>
        <pt x="172" y="546" on="1"/>
        <pt x="96" y="569" on="1"/>
        <pt x="105" y="614" on="1"/>
        <pt x="401" y="614" on="1"/>
        <pt x="392" y="569" on="1"/>
        <pt x="308" y="546" on="1"/>
        <pt x="215" y="69" on="1"/>
        <pt x="290" y="45" on="1"/>
        <pt x="282" y="0" on="1"/>
        <pt x="-13" y="0" on="1"/>
      </contour>
    </TTGlyph>
    <TTGlyph name="Iogonek" xMin="-13" yMin="-236" xMax="401" yMax="614">
      <contour>
        <pt x="98" y="-236" on="0"/>
        <pt x="55" y="-190" on="0"/>
        <pt x="55" y="-157" on="1"/>
        <pt x="55" y="-120" on="0"/>
        <pt x="119" y="-32" on="0"/>
        <pt x="171" y="0" on="1"/>
        <pt x="-13" y="0" on="1"/>
        <pt x="-5" y="45" on="1"/>
        <pt x="79" y="69" on="1"/>
        <pt x="172" y="546" on="1"/>
        <pt x="96" y="569" on="1"/>
        <pt x="105" y="614" on="1"/>
        <pt x="401" y="614" on="1"/>
        <pt x="392" y="569" on="1"/>
        <pt x="308" y="546" on="1"/>
        <pt x="215" y="69" on="1"/>
        <pt x="291" y="45" on="1"/>
        <pt x="283" y="0" on="1"/>
        <pt x="252" y="-1" on="0"/>
        <pt x="186" y="-41" on="0"/>
        <pt x="143" y="-101" on="0"/>
        <pt x="143" y="-130" on="1"/>
        <pt x="143" y="-174" on="0"/>
        <pt x="181" y="-174" on="1"/>
        <pt x="210" y="-174" on="0"/>
        <pt x="245" y="-152" on="1"/>
        <pt x="265" y="-174" on="1"/>
        <pt x="265" y="-176" on="0"/>
        <pt x="233" y="-208" on="0"/>
        <pt x="181" y="-236" on="0"/>
        <pt x="147" y="-236" on="1"/>
      </contour>
    </TTGlyph>
    <TTGlyph name="Itilde" xMin="-13" yMin="0" xMax="438" yMax="784">
      <contour>
        <pt x="324" y="655" on="0"/>
        <pt x="254" y="675" on="1"/>
        <pt x="195" y="692" on="0"/>
        <pt x="176" y="692" on="1"/>
        <pt x="165" y="692" on="0"/>
        <pt x="148" y="678" on="0"/>
        <pt x="137" y="663" on="0"/>
        <pt x="136" y="661" on="1"/>
        <pt x="89" y="680" on="1"/>
        <pt x="105" y="725" on="0"/>
        <pt x="152" y="784" on="0"/>
        <pt x="176" y="784" on="1"/>
        <pt x="205" y="784" on="0"/>
        <pt x="273" y="764" on="1"/>
        <pt x="332" y="747" on="0"/>
        <pt x="352" y="747" on="1"/>
        <pt x="363" y="747" on="0"/>
        <pt x="382" y="761" on="0"/>
        <pt x="393" y="776" on="0"/>
        <pt x="394" y="778" on="1"/>
        <pt x="438" y="759" on="1"/>
        <pt x="395" y="655" on="0"/>
        <pt x="352" y="655" on="1"/>
      </contour>
      <contour>
        <pt x="-5" y="45" on="1"/>
        <pt x="79" y="69" on="1"/>
        <pt x="172" y="546" on="1"/>
        <pt x="96" y="569" on="1"/>
        <pt x="105" y="614" on="1"/>
        <pt x="401" y="614" on="1"/>
        <pt x="392" y="569" on="1"/>
        <pt x="308" y="546" on="1"/>
        <pt x="215" y="69" on="1"/>
        <pt x="290" y="45" on="1"/>
        <pt x="282" y="0" on="1"/>
        <pt x="-13" y="0" on="1"/>
      </contour>
    </TTGlyph>
    <TTGlyph name="J" xMin="-83" yMin="-150" xMax="405" yMax="614">
      <contour>
        <pt x="-45" y="-150" on="0"/>
        <pt x="-83" y="-118" on="1"/>
        <pt x="-72" y="-81" on="1"/>
        <pt x="-10" y="-81" on="1"/>
        <pt x="30" y="-81" on="0"/>
        <pt x="70" y="-19" on="0"/>
        <pt x="82" y="41" on="1"/>
        <pt x="180" y="546" on="1"/>
        <pt x="105" y="569" on="1"/>
        <pt x="113" y="614" on="1"/>
        <pt x="405" y="614" on="1"/>
        <pt x="397" y="569" on="1"/>
        <pt x="312" y="546" on="1"/>
        <pt x="218" y="63" on="1"/>
        <pt x="195" y="-55" on="0"/>
        <pt x="93" y="-150" on="0"/>
        <pt x="14" y="-150" on="1"/>
      </contour>
    </TTGlyph>
    <TTGlyph name="Jcircumflex" xMin="-83" yMin="-150" xMax="405" yMax="795">
      <component glyphName=".ttfautohint" x="0" y="0" flags="0x0"/>
      <component glyphName="J" x="0" y="0" flags="0x0"/>
      <component glyphName="uni0302" x="302" y="0" flags="0x0"/>
    </TTGlyph>
    <TTGlyph name="K" xMin="-13" yMin="0" xMax="659" yMax="614">
      <contour>
        <pt x="372" y="0" on="1"/>
        <pt x="254" y="271" on="1"/>
        <pt x="215" y="69" on="1"/>
        <pt x="275" y="46" on="1"/>
        <pt x="266" y="0" on="1"/>
        <pt x="-13" y="0" on="1"/>
        <pt x="-5" y="45" on="1"/>
        <pt x="79" y="69" on="1"/>
        <pt x="172" y="546" on="1"/>
        <pt x="96" y="569" on="1"/>
        <pt x="105" y="614" on="1"/>
        <pt x="391" y="614" on="1"/>
        <pt x="382" y="567" on="1"/>
        <pt x="308" y="546" on="1"/>
        <pt x="269" y="347" on="1"/>
        <pt x="486" y="554" on="1"/>
        <pt x="437" y="569" on="1"/>
        <pt x="446" y="614" on="1"/>
        <pt x="659" y="614" on="1"/>
        <pt x="651" y="571" on="1"/>
        <pt x="582" y="549" on="1"/>
        <pt x="361" y="339" on="1"/>
        <pt x="489" y="73" on="1"/>
        <pt x="564" y="45" on="1"/>
        <pt x="556" y="0" on="1"/>
      </contour>
    </TTGlyph>
    <TTGlyph name="Kcommaaccent" xMin="-14" yMin="-236" xMax="658" yMax="614">
      <contour>
        <pt x="371" y="0" on="1"/>
        <pt x="253" y="271" on="1"/>
        <pt x="214" y="69" on="1"/>
        <pt x="274" y="46" on="1"/>
        <pt x="265" y="0" on="1"/>
        <pt x="-14" y="0" on="1"/>
        <pt x="-6" y="45" on="1"/>
        <pt x="78" y="69" on="1"/>
        <pt x="171" y="546" on="1"/>
        <pt x="95" y="569" on="1"/>
        <pt x="104" y="614" on="1"/>
        <pt x="390" y="614" on="1"/>
        <pt x="381" y="567" on="1"/>
        <pt x="307" y="546" on="1"/>
        <pt x="268" y="347" on="1"/>
        <pt x="485" y="554" on="1"/>
        <pt x="436" y="569" on="1"/>
        <pt x="445" y="614" on="1"/>
        <pt x="658" y="614" on="1"/>
        <pt x="650" y="571" on="1"/>
        <pt x="581" y="549" on="1"/>
        <pt x="360" y="339" on="1"/>
        <pt x="488" y="73" on="1"/>
        <pt x="563" y="45" on="1"/>
        <pt x="555" y="0" on="1"/>
      </contour>
      <contour>
        <pt x="183" y="-225" on="1"/>
        <pt x="219" y="-44" on="1"/>
        <pt x="311" y="-24" on="1"/>
        <pt x="333" y="-48" on="1"/>
        <pt x="223" y="-236" on="1"/>
      </contour>
    </TTGlyph>
    <TTGlyph name="L" xMin="-13" yMin="0" xMax="458" yMax="614">
      <contour>
        <pt x="-13" y="0" on="1"/>
        <pt x="-5" y="45" on="1"/>
        <pt x="79" y="69" on="1"/>
        <pt x="172" y="546" on="1"/>
        <pt x="96" y="569" on="1"/>
        <pt x="105" y="614" on="1"/>
        <pt x="401" y="614" on="1"/>
        <pt x="392" y="569" on="1"/>
        <pt x="308" y="546" on="1"/>
        <pt x="215" y="69" on="1"/>
        <pt x="363" y="69" on="1"/>
        <pt x="405" y="162" on="1"/>
        <pt x="458" y="162" on="1"/>
        <pt x="427" y="0" on="1"/>
      </contour>
    </TTGlyph>
    <TTGlyph name="Lacute" xMin="-14" yMin="0" xMax="457" yMax="800">
      <contour>
        <pt x="142" y="669" on="1"/>
        <pt x="298" y="800" on="1"/>
        <pt x="397" y="766" on="1"/>
        <pt x="397" y="743" on="1"/>
        <pt x="169" y="634" on="1"/>
      </contour>
      <contour>
        <pt x="-14" y="0" on="1"/>
        <pt x="-6" y="45" on="1"/>
        <pt x="78" y="69" on="1"/>
        <pt x="171" y="546" on="1"/>
        <pt x="95" y="569" on="1"/>
        <pt x="104" y="614" on="1"/>
        <pt x="400" y="614" on="1"/>
        <pt x="391" y="569" on="1"/>
        <pt x="307" y="546" on="1"/>
        <pt x="214" y="69" on="1"/>
        <pt x="362" y="69" on="1"/>
        <pt x="404" y="162" on="1"/>
        <pt x="457" y="162" on="1"/>
        <pt x="426" y="0" on="1"/>
      </contour>
    </TTGlyph>
    <TTGlyph name="Lcaron" xMin="-14" yMin="0" xMax="457" yMax="795">
      <contour>
        <pt x="266" y="727" on="1"/>
        <pt x="400" y="795" on="1"/>
        <pt x="423" y="765" on="1"/>
        <pt x="295" y="639" on="1"/>
        <pt x="210" y="639" on="1"/>
        <pt x="128" y="769" on="1"/>
        <pt x="158" y="795" on="1"/>
      </contour>
      <contour>
        <pt x="-14" y="0" on="1"/>
        <pt x="-6" y="45" on="1"/>
        <pt x="78" y="69" on="1"/>
        <pt x="171" y="546" on="1"/>
        <pt x="95" y="569" on="1"/>
        <pt x="104" y="614" on="1"/>
        <pt x="400" y="614" on="1"/>
        <pt x="391" y="569" on="1"/>
        <pt x="307" y="546" on="1"/>
        <pt x="214" y="69" on="1"/>
        <pt x="362" y="69" on="1"/>
        <pt x="404" y="162" on="1"/>
        <pt x="457" y="162" on="1"/>
        <pt x="426" y="0" on="1"/>
      </contour>
    </TTGlyph>
    <TTGlyph name="Lcommaaccent" xMin="-14" yMin="-236" xMax="457" yMax="614">
      <contour>
        <pt x="-14" y="0" on="1"/>
        <pt x="-6" y="45" on="1"/>
        <pt x="78" y="69" on="1"/>
        <pt x="171" y="546" on="1"/>
        <pt x="95" y="569" on="1"/>
        <pt x="104" y="614" on="1"/>
        <pt x="400" y="614" on="1"/>
        <pt x="391" y="569" on="1"/>
        <pt x="307" y="546" on="1"/>
        <pt x="214" y="69" on="1"/>
        <pt x="362" y="69" on="1"/>
        <pt x="404" y="162" on="1"/>
        <pt x="457" y="162" on="1"/>
        <pt x="426" y="0" on="1"/>
      </contour>
      <contour>
        <pt x="127" y="-225" on="1"/>
        <pt x="163" y="-44" on="1"/>
        <pt x="255" y="-24" on="1"/>
        <pt x="277" y="-48" on="1"/>
        <pt x="167" y="-236" on="1"/>
      </contour>
    </TTGlyph>
    <TTGlyph name="Ldot" xMin="-13" yMin="0" xMax="515" yMax="614">
      <component glyphName=".ttfautohint" x="0" y="0" flags="0x0"/>
      <component glyphName="L" x="0" y="0" flags="0x0"/>
      <component glyphName="periodcentered" x="310" y="152" flags="0x4"/>
    </TTGlyph>
    <TTGlyph name="Lslash" xMin="-14" yMin="0" xMax="457" yMax="614">
      <contour>
        <pt x="-14" y="0" on="1"/>
        <pt x="-6" y="45" on="1"/>
        <pt x="78" y="69" on="1"/>
        <pt x="111" y="238" on="1"/>
        <pt x="38" y="206" on="1"/>
        <pt x="13" y="265" on="1"/>
        <pt x="126" y="315" on="1"/>
        <pt x="171" y="546" on="1"/>
        <pt x="95" y="569" on="1"/>
        <pt x="104" y="614" on="1"/>
        <pt x="400" y="614" on="1"/>
        <pt x="391" y="569" on="1"/>
        <pt x="307" y="546" on="1"/>
        <pt x="275" y="382" on="1"/>
        <pt x="363" y="422" on="1"/>
        <pt x="389" y="363" on="1"/>
        <pt x="260" y="305" on="1"/>
        <pt x="214" y="69" on="1"/>
        <pt x="362" y="69" on="1"/>
        <pt x="404" y="162" on="1"/>
        <pt x="457" y="162" on="1"/>
        <pt x="426" y="0" on="1"/>
      </contour>
    </TTGlyph>
    <TTGlyph name="M" xMin="-29" yMin="-10" xMax="828" yMax="614">
      <contour>
        <pt x="-29" y="0" on="1"/>
        <pt x="-20" y="45" on="1"/>
        <pt x="63" y="69" on="1"/>
        <pt x="178" y="546" on="1"/>
        <pt x="104" y="569" on="1"/>
        <pt x="112" y="614" on="1"/>
        <pt x="322" y="614" on="1"/>
        <pt x="381" y="163" on="1"/>
        <pt x="609" y="614" on="1"/>
        <pt x="828" y="614" on="1"/>
        <pt x="820" y="569" on="1"/>
        <pt x="735" y="546" on="1"/>
        <pt x="666" y="69" on="1"/>
        <pt x="740" y="45" on="1"/>
        <pt x="731" y="0" on="1"/>
        <pt x="440" y="0" on="1"/>
        <pt x="449" y="45" on="1"/>
        <pt x="533" y="69" on="1"/>
        <pt x="583" y="421" on="1"/>
        <pt x="366" y="4" on="1"/>
        <pt x="278" y="-10" on="1"/>
        <pt x="218" y="415" on="1"/>
        <pt x="133" y="69" on="1"/>
        <pt x="208" y="45" on="1"/>
        <pt x="199" y="0" on="1"/>
      </contour>
    </TTGlyph>
    <TTGlyph name="N" xMin="-13" yMin="-12" xMax="719" yMax="614">
      <contour>
        <pt x="719" y="614" on="1"/>
        <pt x="711" y="569" on="1"/>
        <pt x="626" y="546" on="1"/>
        <pt x="520" y="0" on="1"/>
        <pt x="417" y="-12" on="1"/>
        <pt x="223" y="437" on="1"/>
        <pt x="152" y="69" on="1"/>
        <pt x="227" y="45" on="1"/>
        <pt x="218" y="0" on="1"/>
        <pt x="-13" y="0" on="1"/>
        <pt x="-4" y="45" on="1"/>
        <pt x="80" y="69" on="1"/>
        <pt x="172" y="546" on="1"/>
        <pt x="97" y="569" on="1"/>
        <pt x="105" y="614" on="1"/>
        <pt x="290" y="614" on="1"/>
        <pt x="482" y="172" on="1"/>
        <pt x="553" y="546" on="1"/>
        <pt x="478" y="569" on="1"/>
        <pt x="486" y="614" on="1"/>
      </contour>
    </TTGlyph>
    <TTGlyph name="Nacute" xMin="-13" yMin="-12" xMax="719" yMax="800">
      <contour>
        <pt x="340" y="669" on="1"/>
        <pt x="496" y="800" on="1"/>
        <pt x="595" y="766" on="1"/>
        <pt x="595" y="743" on="1"/>
        <pt x="367" y="634" on="1"/>
      </contour>
      <contour>
        <pt x="719" y="614" on="1"/>
        <pt x="711" y="569" on="1"/>
        <pt x="626" y="546" on="1"/>
        <pt x="520" y="0" on="1"/>
        <pt x="417" y="-12" on="1"/>
        <pt x="223" y="437" on="1"/>
        <pt x="152" y="69" on="1"/>
        <pt x="227" y="45" on="1"/>
        <pt x="218" y="0" on="1"/>
        <pt x="-13" y="0" on="1"/>
        <pt x="-4" y="45" on="1"/>
        <pt x="80" y="69" on="1"/>
        <pt x="172" y="546" on="1"/>
        <pt x="97" y="569" on="1"/>
        <pt x="105" y="614" on="1"/>
        <pt x="290" y="614" on="1"/>
        <pt x="482" y="172" on="1"/>
        <pt x="553" y="546" on="1"/>
        <pt x="478" y="569" on="1"/>
        <pt x="486" y="614" on="1"/>
      </contour>
    </TTGlyph>
    <TTGlyph name="Nacute.loclPLK" xMin="-13" yMin="-12" xMax="719" yMax="814">
      <component glyphName=".ttfautohint" x="0" y="0" flags="0x0"/>
      <component glyphName="N" x="0" y="0" flags="0x0"/>
      <component glyphName="acute.loclPLK.case" x="243" y="0" flags="0x0"/>
    </TTGlyph>
    <TTGlyph name="Ncaron" xMin="-13" yMin="-12" xMax="719" yMax="795">
      <contour>
        <pt x="435" y="727" on="1"/>
        <pt x="569" y="795" on="1"/>
        <pt x="592" y="765" on="1"/>
        <pt x="464" y="639" on="1"/>
        <pt x="379" y="639" on="1"/>
        <pt x="297" y="769" on="1"/>
        <pt x="327" y="795" on="1"/>
      </contour>
      <contour>
        <pt x="719" y="614" on="1"/>
        <pt x="711" y="569" on="1"/>
        <pt x="626" y="546" on="1"/>
        <pt x="520" y="0" on="1"/>
        <pt x="417" y="-12" on="1"/>
        <pt x="223" y="437" on="1"/>
        <pt x="152" y="69" on="1"/>
        <pt x="227" y="45" on="1"/>
        <pt x="218" y="0" on="1"/>
        <pt x="-13" y="0" on="1"/>
        <pt x="-4" y="45" on="1"/>
        <pt x="80" y="69" on="1"/>
        <pt x="172" y="546" on="1"/>
        <pt x="97" y="569" on="1"/>
        <pt x="105" y="614" on="1"/>
        <pt x="290" y="614" on="1"/>
        <pt x="482" y="172" on="1"/>
        <pt x="553" y="546" on="1"/>
        <pt x="478" y="569" on="1"/>
        <pt x="486" y="614" on="1"/>
      </contour>
    </TTGlyph>
    <TTGlyph name="Ncommaaccent" xMin="-13" yMin="-236" xMax="719" yMax="614">
      <contour>
        <pt x="719" y="614" on="1"/>
        <pt x="711" y="569" on="1"/>
        <pt x="626" y="546" on="1"/>
        <pt x="520" y="0" on="1"/>
        <pt x="417" y="-12" on="1"/>
        <pt x="223" y="437" on="1"/>
        <pt x="152" y="69" on="1"/>
        <pt x="227" y="45" on="1"/>
        <pt x="218" y="0" on="1"/>
        <pt x="-13" y="0" on="1"/>
        <pt x="-4" y="45" on="1"/>
        <pt x="80" y="69" on="1"/>
        <pt x="172" y="546" on="1"/>
        <pt x="97" y="569" on="1"/>
        <pt x="105" y="614" on="1"/>
        <pt x="290" y="614" on="1"/>
        <pt x="482" y="172" on="1"/>
        <pt x="553" y="546" on="1"/>
        <pt x="478" y="569" on="1"/>
        <pt x="486" y="614" on="1"/>
      </contour>
      <contour>
        <pt x="224" y="-225" on="1"/>
        <pt x="260" y="-44" on="1"/>
        <pt x="352" y="-24" on="1"/>
        <pt x="374" y="-48" on="1"/>
        <pt x="264" y="-236" on="1"/>
      </contour>
    </TTGlyph>
    <TTGlyph name="Ntilde" xMin="-13" yMin="-12" xMax="719" yMax="784">
      <contour>
        <pt x="564" y="655" on="0"/>
        <pt x="521" y="655" on="1"/>
        <pt x="493" y="655" on="0"/>
        <pt x="423" y="675" on="1"/>
        <pt x="364" y="692" on="0"/>
        <pt x="345" y="692" on="1"/>
        <pt x="334" y="692" on="0"/>
        <pt x="317" y="678" on="0"/>
        <pt x="306" y="663" on="0"/>
        <pt x="305" y="661" on="1"/>
        <pt x="258" y="680" on="1"/>
        <pt x="274" y="725" on="0"/>
        <pt x="321" y="784" on="0"/>
        <pt x="345" y="784" on="1"/>
        <pt x="374" y="784" on="0"/>
        <pt x="442" y="764" on="1"/>
        <pt x="501" y="747" on="0"/>
        <pt x="521" y="747" on="1"/>
        <pt x="532" y="747" on="0"/>
        <pt x="551" y="761" on="0"/>
        <pt x="562" y="776" on="0"/>
        <pt x="563" y="778" on="1"/>
        <pt x="607" y="759" on="1"/>
      </contour>
      <contour>
        <pt x="719" y="614" on="1"/>
        <pt x="711" y="569" on="1"/>
        <pt x="626" y="546" on="1"/>
        <pt x="520" y="0" on="1"/>
        <pt x="417" y="-12" on="1"/>
        <pt x="223" y="437" on="1"/>
        <pt x="152" y="69" on="1"/>
        <pt x="227" y="45" on="1"/>
        <pt x="218" y="0" on="1"/>
        <pt x="-13" y="0" on="1"/>
        <pt x="-4" y="45" on="1"/>
        <pt x="80" y="69" on="1"/>
        <pt x="172" y="546" on="1"/>
        <pt x="97" y="569" on="1"/>
        <pt x="105" y="614" on="1"/>
        <pt x="290" y="614" on="1"/>
        <pt x="482" y="172" on="1"/>
        <pt x="553" y="546" on="1"/>
        <pt x="478" y="569" on="1"/>
        <pt x="486" y="614" on="1"/>
      </contour>
    </TTGlyph>
    <TTGlyph name="O" xMin="36" yMin="-10" xMax="618" yMax="628">
      <contour>
        <pt x="142" y="-10" on="0"/>
        <pt x="36" y="97" on="0"/>
        <pt x="36" y="208" on="1"/>
        <pt x="36" y="318" on="0"/>
        <pt x="119" y="510" on="0"/>
        <pt x="279" y="628" on="0"/>
        <pt x="389" y="628" on="1"/>
        <pt x="618" y="628" on="0"/>
        <pt x="618" y="418" on="1"/>
        <pt x="618" y="307" on="0"/>
        <pt x="535" y="110" on="0"/>
        <pt x="375" y="-10" on="0"/>
        <pt x="265" y="-10" on="1"/>
      </contour>
      <contour>
        <pt x="348" y="58" on="0"/>
        <pt x="434" y="170" on="0"/>
        <pt x="471" y="336" on="0"/>
        <pt x="471" y="422" on="1"/>
        <pt x="471" y="493" on="0"/>
        <pt x="430" y="560" on="0"/>
        <pt x="376" y="560" on="1"/>
        <pt x="301" y="560" on="0"/>
        <pt x="215" y="432" on="0"/>
        <pt x="183" y="268" on="0"/>
        <pt x="183" y="203" on="1"/>
        <pt x="183" y="128" on="0"/>
        <pt x="221" y="58" on="0"/>
        <pt x="279" y="58" on="1"/>
      </contour>
    </TTGlyph>
    <TTGlyph name="OE" xMin="36" yMin="0" xMax="852" yMax="614">
      <contour>
        <pt x="162" y="0" on="0"/>
        <pt x="36" y="102" on="0"/>
        <pt x="36" y="208" on="1"/>
        <pt x="36" y="326" on="0"/>
        <pt x="133" y="510" on="0"/>
        <pt x="313" y="614" on="0"/>
        <pt x="434" y="614" on="1"/>
        <pt x="852" y="614" on="1"/>
        <pt x="824" y="468" on="1"/>
        <pt x="771" y="468" on="1"/>
        <pt x="766" y="546" on="1"/>
        <pt x="620" y="546" on="1"/>
        <pt x="579" y="337" on="1"/>
        <pt x="678" y="337" on="1"/>
        <pt x="707" y="403" on="1"/>
        <pt x="757" y="403" on="1"/>
        <pt x="720" y="212" on="1"/>
        <pt x="672" y="212" on="1"/>
        <pt x="667" y="281" on="1"/>
        <pt x="568" y="281" on="1"/>
        <pt x="527" y="69" on="1"/>
        <pt x="688" y="69" on="1"/>
        <pt x="730" y="162" on="1"/>
        <pt x="783" y="162" on="1"/>
        <pt x="752" y="0" on="1"/>
        <pt x="290" y="0" on="1"/>
      </contour>
      <contour>
        <pt x="351" y="63" on="0"/>
        <pt x="392" y="73" on="1"/>
        <pt x="483" y="542" on="1"/>
        <pt x="447" y="550" on="0"/>
        <pt x="410" y="550" on="1"/>
        <pt x="319" y="550" on="0"/>
        <pt x="215" y="431" on="0"/>
        <pt x="177" y="278" on="0"/>
        <pt x="177" y="217" on="1"/>
        <pt x="177" y="138" on="0"/>
        <pt x="238" y="63" on="0"/>
        <pt x="302" y="63" on="1"/>
      </contour>
    </TTGlyph>
    <TTGlyph name="Oacute" xMin="36" yMin="-10" xMax="618" yMax="800">
      <component glyphName=".ttfautohint" x="36" y="0" flags="0x0"/>
      <component glyphName="O" x="0" y="0" flags="0x0"/>
      <component glyphName="acute.case" x="245" y="0" flags="0x0"/>
    </TTGlyph>
    <TTGlyph name="Oacute.loclPLK" xMin="36" yMin="-10" xMax="618" yMax="814">
      <component glyphName=".ttfautohint" x="36" y="0" flags="0x0"/>
      <component glyphName="O" x="0" y="0" flags="0x0"/>
      <component glyphName="acute.loclPLK.case" x="223" y="0" flags="0x0"/>
    </TTGlyph>
    <TTGlyph name="Obreve" xMin="36" yMin="-10" xMax="618" yMax="788">
      <component glyphName=".ttfautohint" x="36" y="0" flags="0x0"/>
      <component glyphName="O" x="0" y="0" flags="0x0"/>
      <component glyphName="uni0306" x="434" y="0" flags="0x0"/>
    </TTGlyph>
    <TTGlyph name="Ocircumflex" xMin="36" yMin="-10" xMax="618" yMax="795">
      <contour>
        <pt x="240" y="669" on="1"/>
        <pt x="368" y="795" on="1"/>
        <pt x="453" y="795" on="1"/>
        <pt x="535" y="665" on="1"/>
        <pt x="505" y="639" on="1"/>
        <pt x="397" y="707" on="1"/>
        <pt x="263" y="639" on="1"/>
      </contour>
      <contour>
        <pt x="142" y="-10" on="0"/>
        <pt x="36" y="97" on="0"/>
        <pt x="36" y="208" on="1"/>
        <pt x="36" y="318" on="0"/>
        <pt x="119" y="510" on="0"/>
        <pt x="279" y="628" on="0"/>
        <pt x="389" y="628" on="1"/>
        <pt x="618" y="628" on="0"/>
        <pt x="618" y="418" on="1"/>
        <pt x="618" y="307" on="0"/>
        <pt x="535" y="110" on="0"/>
        <pt x="375" y="-10" on="0"/>
        <pt x="265" y="-10" on="1"/>
      </contour>
      <contour>
        <pt x="348" y="58" on="0"/>
        <pt x="434" y="170" on="0"/>
        <pt x="471" y="336" on="0"/>
        <pt x="471" y="422" on="1"/>
        <pt x="471" y="493" on="0"/>
        <pt x="430" y="560" on="0"/>
        <pt x="376" y="560" on="1"/>
        <pt x="301" y="560" on="0"/>
        <pt x="215" y="432" on="0"/>
        <pt x="183" y="268" on="0"/>
        <pt x="183" y="203" on="1"/>
        <pt x="183" y="128" on="0"/>
        <pt x="221" y="58" on="0"/>
        <pt x="279" y="58" on="1"/>
      </contour>
    </TTGlyph>
    <TTGlyph name="Odieresis" xMin="36" yMin="-10" xMax="618" yMax="792">
      <contour>
        <pt x="255" y="647" on="0"/>
        <pt x="209" y="688" on="0"/>
        <pt x="209" y="719" on="1"/>
        <pt x="209" y="749" on="0"/>
        <pt x="256" y="792" on="0"/>
        <pt x="287" y="792" on="1"/>
        <pt x="317" y="792" on="0"/>
        <pt x="361" y="749" on="0"/>
        <pt x="361" y="719" on="1"/>
        <pt x="361" y="688" on="0"/>
        <pt x="318" y="647" on="0"/>
        <pt x="287" y="647" on="1"/>
      </contour>
      <contour>
        <pt x="487" y="647" on="0"/>
        <pt x="442" y="688" on="0"/>
        <pt x="442" y="719" on="1"/>
        <pt x="442" y="750" on="0"/>
        <pt x="487" y="792" on="0"/>
        <pt x="519" y="792" on="1"/>
        <pt x="548" y="792" on="0"/>
        <pt x="592" y="749" on="0"/>
        <pt x="592" y="719" on="1"/>
        <pt x="592" y="688" on="0"/>
        <pt x="548" y="647" on="0"/>
        <pt x="519" y="647" on="1"/>
      </contour>
      <contour>
        <pt x="142" y="-10" on="0"/>
        <pt x="36" y="97" on="0"/>
        <pt x="36" y="208" on="1"/>
        <pt x="36" y="318" on="0"/>
        <pt x="119" y="510" on="0"/>
        <pt x="279" y="628" on="0"/>
        <pt x="389" y="628" on="1"/>
        <pt x="618" y="628" on="0"/>
        <pt x="618" y="418" on="1"/>
        <pt x="618" y="307" on="0"/>
        <pt x="535" y="110" on="0"/>
        <pt x="375" y="-10" on="0"/>
        <pt x="265" y="-10" on="1"/>
      </contour>
      <contour>
        <pt x="348" y="58" on="0"/>
        <pt x="434" y="170" on="0"/>
        <pt x="471" y="336" on="0"/>
        <pt x="471" y="422" on="1"/>
        <pt x="471" y="493" on="0"/>
        <pt x="430" y="560" on="0"/>
        <pt x="376" y="560" on="1"/>
        <pt x="301" y="560" on="0"/>
        <pt x="215" y="432" on="0"/>
        <pt x="183" y="268" on="0"/>
        <pt x="183" y="203" on="1"/>
        <pt x="183" y="128" on="0"/>
        <pt x="221" y="58" on="0"/>
        <pt x="279" y="58" on="1"/>
      </contour>
    </TTGlyph>
    <TTGlyph name="Ograve" xMin="36" yMin="-10" xMax="618" yMax="800">
      <contour>
        <pt x="241" y="743" on="1"/>
        <pt x="245" y="766" on="1"/>
        <pt x="342" y="800" on="1"/>
        <pt x="496" y="669" on="1"/>
        <pt x="473" y="634" on="1"/>
      </contour>
      <contour>
        <pt x="142" y="-10" on="0"/>
        <pt x="36" y="97" on="0"/>
        <pt x="36" y="208" on="1"/>
        <pt x="36" y="318" on="0"/>
        <pt x="119" y="510" on="0"/>
        <pt x="279" y="628" on="0"/>
        <pt x="389" y="628" on="1"/>
        <pt x="618" y="628" on="0"/>
        <pt x="618" y="418" on="1"/>
        <pt x="618" y="307" on="0"/>
        <pt x="535" y="110" on="0"/>
        <pt x="375" y="-10" on="0"/>
        <pt x="265" y="-10" on="1"/>
      </contour>
      <contour>
        <pt x="348" y="58" on="0"/>
        <pt x="434" y="170" on="0"/>
        <pt x="471" y="336" on="0"/>
        <pt x="471" y="422" on="1"/>
        <pt x="471" y="493" on="0"/>
        <pt x="430" y="560" on="0"/>
        <pt x="376" y="560" on="1"/>
        <pt x="301" y="560" on="0"/>
        <pt x="215" y="432" on="0"/>
        <pt x="183" y="268" on="0"/>
        <pt x="183" y="203" on="1"/>
        <pt x="183" y="128" on="0"/>
        <pt x="221" y="58" on="0"/>
        <pt x="279" y="58" on="1"/>
      </contour>
    </TTGlyph>
    <TTGlyph name="Ohorn" xMin="36" yMin="-10" xMax="706" yMax="701">
      <contour>
        <pt x="706" y="605" on="0"/>
        <pt x="641" y="548" on="0"/>
        <pt x="592" y="536" on="1"/>
        <pt x="618" y="488" on="0"/>
        <pt x="618" y="418" on="1"/>
        <pt x="618" y="307" on="0"/>
        <pt x="535" y="110" on="0"/>
        <pt x="375" y="-10" on="0"/>
        <pt x="265" y="-10" on="1"/>
        <pt x="142" y="-10" on="0"/>
        <pt x="36" y="97" on="0"/>
        <pt x="36" y="208" on="1"/>
        <pt x="36" y="318" on="0"/>
        <pt x="119" y="510" on="0"/>
        <pt x="279" y="628" on="0"/>
        <pt x="389" y="628" on="1"/>
        <pt x="497" y="628" on="0"/>
        <pt x="555" y="581" on="1"/>
        <pt x="581" y="583" on="0"/>
        <pt x="608" y="606" on="0"/>
        <pt x="608" y="633" on="1"/>
        <pt x="608" y="652" on="0"/>
        <pt x="603" y="674" on="1"/>
        <pt x="609" y="687" on="1"/>
        <pt x="693" y="701" on="1"/>
        <pt x="699" y="688" on="0"/>
        <pt x="706" y="656" on="0"/>
        <pt x="706" y="644" on="1"/>
      </contour>
      <contour>
        <pt x="348" y="58" on="0"/>
        <pt x="434" y="170" on="0"/>
        <pt x="471" y="336" on="0"/>
        <pt x="471" y="422" on="1"/>
        <pt x="471" y="493" on="0"/>
        <pt x="430" y="560" on="0"/>
        <pt x="376" y="560" on="1"/>
        <pt x="301" y="560" on="0"/>
        <pt x="215" y="432" on="0"/>
        <pt x="183" y="268" on="0"/>
        <pt x="183" y="203" on="1"/>
        <pt x="183" y="128" on="0"/>
        <pt x="221" y="58" on="0"/>
        <pt x="279" y="58" on="1"/>
      </contour>
    </TTGlyph>
    <TTGlyph name="Ohungarumlaut" xMin="36" yMin="-10" xMax="618" yMax="814">
      <contour>
        <pt x="259" y="654" on="1"/>
        <pt x="351" y="814" on="1"/>
        <pt x="443" y="814" on="1"/>
        <pt x="443" y="792" on="1"/>
        <pt x="290" y="631" on="1"/>
      </contour>
      <contour>
        <pt x="420" y="654" on="1"/>
        <pt x="512" y="814" on="1"/>
        <pt x="604" y="814" on="1"/>
        <pt x="604" y="792" on="1"/>
        <pt x="451" y="631" on="1"/>
      </contour>
      <contour>
        <pt x="142" y="-10" on="0"/>
        <pt x="36" y="97" on="0"/>
        <pt x="36" y="208" on="1"/>
        <pt x="36" y="318" on="0"/>
        <pt x="119" y="510" on="0"/>
        <pt x="279" y="628" on="0"/>
        <pt x="389" y="628" on="1"/>
        <pt x="618" y="628" on="0"/>
        <pt x="618" y="418" on="1"/>
        <pt x="618" y="307" on="0"/>
        <pt x="535" y="110" on="0"/>
        <pt x="375" y="-10" on="0"/>
        <pt x="265" y="-10" on="1"/>
      </contour>
      <contour>
        <pt x="348" y="58" on="0"/>
        <pt x="434" y="170" on="0"/>
        <pt x="471" y="336" on="0"/>
        <pt x="471" y="422" on="1"/>
        <pt x="471" y="493" on="0"/>
        <pt x="430" y="560" on="0"/>
        <pt x="376" y="560" on="1"/>
        <pt x="301" y="560" on="0"/>
        <pt x="215" y="432" on="0"/>
        <pt x="183" y="268" on="0"/>
        <pt x="183" y="203" on="1"/>
        <pt x="183" y="128" on="0"/>
        <pt x="221" y="58" on="0"/>
        <pt x="279" y="58" on="1"/>
      </contour>
    </TTGlyph>
    <TTGlyph name="Omacron" xMin="36" yMin="-10" xMax="618" yMax="758">
      <contour>
        <pt x="278" y="758" on="1"/>
        <pt x="539" y="758" on="1"/>
        <pt x="528" y="679" on="1"/>
        <pt x="267" y="679" on="1"/>
      </contour>
      <contour>
        <pt x="142" y="-10" on="0"/>
        <pt x="36" y="97" on="0"/>
        <pt x="36" y="208" on="1"/>
        <pt x="36" y="318" on="0"/>
        <pt x="119" y="510" on="0"/>
        <pt x="279" y="628" on="0"/>
        <pt x="389" y="628" on="1"/>
        <pt x="618" y="628" on="0"/>
        <pt x="618" y="418" on="1"/>
        <pt x="618" y="307" on="0"/>
        <pt x="535" y="110" on="0"/>
        <pt x="375" y="-10" on="0"/>
        <pt x="265" y="-10" on="1"/>
      </contour>
      <contour>
        <pt x="348" y="58" on="0"/>
        <pt x="434" y="170" on="0"/>
        <pt x="471" y="336" on="0"/>
        <pt x="471" y="422" on="1"/>
        <pt x="471" y="493" on="0"/>
        <pt x="430" y="560" on="0"/>
        <pt x="376" y="560" on="1"/>
        <pt x="301" y="560" on="0"/>
        <pt x="215" y="432" on="0"/>
        <pt x="183" y="268" on="0"/>
        <pt x="183" y="203" on="1"/>
        <pt x="183" y="128" on="0"/>
        <pt x="221" y="58" on="0"/>
        <pt x="279" y="58" on="1"/>
      </contour>
    </TTGlyph>
    <TTGlyph name="Oslash" xMin="36" yMin="-92" xMax="618" yMax="709">
      <contour>
        <pt x="189" y="-3" on="1"/>
        <pt x="107" y="12" on="0"/>
        <pt x="36" y="116" on="0"/>
        <pt x="36" y="208" on="1"/>
        <pt x="36" y="318" on="0"/>
        <pt x="119" y="510" on="0"/>
        <pt x="279" y="628" on="0"/>
        <pt x="389" y="628" on="1"/>
        <pt x="394" y="628" on="1"/>
        <pt x="421" y="709" on="1"/>
        <pt x="492" y="709" on="1"/>
        <pt x="463" y="621" on="1"/>
        <pt x="618" y="590" on="0"/>
        <pt x="618" y="418" on="1"/>
        <pt x="618" y="307" on="0"/>
        <pt x="535" y="110" on="0"/>
        <pt x="375" y="-10" on="0"/>
        <pt x="265" y="-10" on="1"/>
        <pt x="257" y="-10" on="1"/>
        <pt x="231" y="-92" on="1"/>
        <pt x="160" y="-92" on="1"/>
      </contour>
      <contour>
        <pt x="372" y="560" on="1"/>
        <pt x="299" y="558" on="0"/>
        <pt x="214" y="430" on="0"/>
        <pt x="183" y="268" on="0"/>
        <pt x="183" y="203" on="1"/>
        <pt x="183" y="154" on="0"/>
        <pt x="197" y="93" on="0"/>
        <pt x="215" y="77" on="1"/>
      </contour>
      <contour>
        <pt x="348" y="58" on="0"/>
        <pt x="434" y="170" on="0"/>
        <pt x="471" y="336" on="0"/>
        <pt x="471" y="422" on="1"/>
        <pt x="471" y="467" on="0"/>
        <pt x="456" y="526" on="0"/>
        <pt x="437" y="541" on="1"/>
        <pt x="279" y="58" on="1"/>
      </contour>
    </TTGlyph>
    <TTGlyph name="Oslashacute" xMin="36" yMin="-92" xMax="618" yMax="800">
      <component glyphName=".ttfautohint" x="36" y="0" flags="0x0"/>
      <component glyphName="Oslash" x="0" y="0" flags="0x0"/>
      <component glyphName="acutecomb" x="390" y="0" flags="0x0"/>
    </TTGlyph>
    <TTGlyph name="Otilde" xMin="36" yMin="-10" xMax="618" yMax="784">
      <contour>
        <pt x="448" y="655" on="0"/>
        <pt x="378" y="675" on="1"/>
        <pt x="319" y="692" on="0"/>
        <pt x="300" y="692" on="1"/>
        <pt x="289" y="692" on="0"/>
        <pt x="272" y="678" on="0"/>
        <pt x="261" y="663" on="0"/>
        <pt x="260" y="661" on="1"/>
        <pt x="213" y="680" on="1"/>
        <pt x="229" y="725" on="0"/>
        <pt x="276" y="784" on="0"/>
        <pt x="300" y="784" on="1"/>
        <pt x="329" y="784" on="0"/>
        <pt x="397" y="764" on="1"/>
        <pt x="456" y="747" on="0"/>
        <pt x="476" y="747" on="1"/>
        <pt x="487" y="747" on="0"/>
        <pt x="506" y="761" on="0"/>
        <pt x="517" y="776" on="0"/>
        <pt x="518" y="778" on="1"/>
        <pt x="562" y="759" on="1"/>
        <pt x="519" y="655" on="0"/>
        <pt x="476" y="655" on="1"/>
      </contour>
      <contour>
        <pt x="142" y="-10" on="0"/>
        <pt x="36" y="97" on="0"/>
        <pt x="36" y="208" on="1"/>
        <pt x="36" y="318" on="0"/>
        <pt x="119" y="510" on="0"/>
        <pt x="279" y="628" on="0"/>
        <pt x="389" y="628" on="1"/>
        <pt x="618" y="628" on="0"/>
        <pt x="618" y="418" on="1"/>
        <pt x="618" y="307" on="0"/>
        <pt x="535" y="110" on="0"/>
        <pt x="375" y="-10" on="0"/>
        <pt x="265" y="-10" on="1"/>
      </contour>
      <contour>
        <pt x="348" y="58" on="0"/>
        <pt x="434" y="170" on="0"/>
        <pt x="471" y="336" on="0"/>
        <pt x="471" y="422" on="1"/>
        <pt x="471" y="493" on="0"/>
        <pt x="430" y="560" on="0"/>
        <pt x="376" y="560" on="1"/>
        <pt x="301" y="560" on="0"/>
        <pt x="215" y="432" on="0"/>
        <pt x="183" y="268" on="0"/>
        <pt x="183" y="203" on="1"/>
        <pt x="183" y="128" on="0"/>
        <pt x="221" y="58" on="0"/>
        <pt x="279" y="58" on="1"/>
      </contour>
    </TTGlyph>
    <TTGlyph name="P" xMin="-13" yMin="0" xMax="558" yMax="614">
      <contour>
        <pt x="472" y="614" on="0"/>
        <pt x="558" y="543" on="0"/>
        <pt x="558" y="471" on="1"/>
        <pt x="558" y="394" on="0"/>
        <pt x="478" y="291" on="0"/>
        <pt x="359" y="243" on="0"/>
        <pt x="299" y="243" on="1"/>
        <pt x="291" y="243" on="0"/>
        <pt x="254" y="245" on="0"/>
        <pt x="250" y="247" on="1"/>
        <pt x="215" y="69" on="1"/>
        <pt x="310" y="46" on="1"/>
        <pt x="301" y="0" on="1"/>
        <pt x="-13" y="0" on="1"/>
        <pt x="-5" y="45" on="1"/>
        <pt x="79" y="69" on="1"/>
        <pt x="172" y="546" on="1"/>
        <pt x="96" y="569" on="1"/>
        <pt x="105" y="614" on="1"/>
        <pt x="383" y="614" on="1"/>
      </contour>
      <contour>
        <pt x="268" y="293" on="0"/>
        <pt x="287" y="293" on="1"/>
        <pt x="348" y="293" on="0"/>
        <pt x="426" y="392" on="0"/>
        <pt x="426" y="469" on="1"/>
        <pt x="426" y="551" on="0"/>
        <pt x="348" y="551" on="1"/>
        <pt x="324" y="551" on="0"/>
        <pt x="308" y="546" on="1"/>
        <pt x="259" y="296" on="1"/>
      </contour>
    </TTGlyph>
    <TTGlyph name="Q" xMin="38" yMin="-157" xMax="617" yMax="628">
      <contour>
        <pt x="429" y="-157" on="0"/>
        <pt x="369" y="-130" on="0"/>
        <pt x="317" y="-97" on="1"/>
        <pt x="168" y="-1" on="1"/>
        <pt x="101" y="42" on="0"/>
        <pt x="38" y="144" on="0"/>
        <pt x="38" y="223" on="1"/>
        <pt x="38" y="324" on="0"/>
        <pt x="119" y="510" on="0"/>
        <pt x="279" y="628" on="0"/>
        <pt x="393" y="628" on="1"/>
        <pt x="516" y="628" on="0"/>
        <pt x="617" y="515" on="0"/>
        <pt x="617" y="415" on="1"/>
        <pt x="617" y="308" on="0"/>
        <pt x="539" y="121" on="0"/>
        <pt x="398" y="7" on="0"/>
        <pt x="307" y="7" on="1"/>
        <pt x="307" y="0" on="1"/>
        <pt x="361" y="-30" on="0"/>
        <pt x="489" y="-85" on="0"/>
        <pt x="509" y="-85" on="1"/>
        <pt x="573" y="-85" on="1"/>
        <pt x="570" y="-122" on="1"/>
        <pt x="548" y="-135" on="0"/>
        <pt x="479" y="-157" on="0"/>
        <pt x="453" y="-157" on="1"/>
      </contour>
      <contour>
        <pt x="345" y="60" on="0"/>
        <pt x="435" y="179" on="0"/>
        <pt x="471" y="341" on="0"/>
        <pt x="471" y="415" on="1"/>
        <pt x="471" y="489" on="0"/>
        <pt x="431" y="560" on="0"/>
        <pt x="378" y="560" on="1"/>
        <pt x="305" y="560" on="0"/>
        <pt x="219" y="442" on="0"/>
        <pt x="184" y="279" on="0"/>
        <pt x="184" y="205" on="1"/>
        <pt x="184" y="144" on="0"/>
        <pt x="225" y="60" on="0"/>
        <pt x="270" y="60" on="1"/>
      </contour>
    </TTGlyph>
    <TTGlyph name="R" xMin="-13" yMin="0" xMax="560" yMax="614">
      <contour>
        <pt x="338" y="136" on="0"/>
        <pt x="319" y="232" on="0"/>
        <pt x="296" y="268" on="0"/>
        <pt x="273" y="268" on="1"/>
        <pt x="254" y="268" on="1"/>
        <pt x="215" y="69" on="1"/>
        <pt x="279" y="45" on="1"/>
        <pt x="271" y="0" on="1"/>
        <pt x="-13" y="0" on="1"/>
        <pt x="-5" y="45" on="1"/>
        <pt x="79" y="69" on="1"/>
        <pt x="172" y="546" on="1"/>
        <pt x="96" y="569" on="1"/>
        <pt x="105" y="614" on="1"/>
        <pt x="380" y="614" on="1"/>
        <pt x="474" y="614" on="0"/>
        <pt x="560" y="549" on="0"/>
        <pt x="560" y="488" on="1"/>
        <pt x="560" y="414" on="0"/>
        <pt x="467" y="321" on="0"/>
        <pt x="397" y="299" on="1"/>
        <pt x="426" y="288" on="0"/>
        <pt x="454" y="254" on="0"/>
        <pt x="471" y="183" on="0"/>
        <pt x="487" y="91" on="1"/>
        <pt x="491" y="68" on="1"/>
        <pt x="546" y="45" on="1"/>
        <pt x="538" y="0" on="1"/>
        <pt x="361" y="0" on="1"/>
      </contour>
      <contour>
        <pt x="354" y="323" on="0"/>
        <pt x="422" y="413" on="0"/>
        <pt x="422" y="486" on="1"/>
        <pt x="422" y="521" on="0"/>
        <pt x="387" y="553" on="0"/>
        <pt x="349" y="553" on="1"/>
        <pt x="325" y="553" on="0"/>
        <pt x="308" y="548" on="1"/>
        <pt x="264" y="323" on="1"/>
        <pt x="299" y="323" on="1"/>
      </contour>
    </TTGlyph>
    <TTGlyph name="Racute" xMin="-13" yMin="0" xMax="560" yMax="800">
      <contour>
        <pt x="259" y="669" on="1"/>
        <pt x="415" y="800" on="1"/>
        <pt x="514" y="766" on="1"/>
        <pt x="514" y="743" on="1"/>
        <pt x="286" y="634" on="1"/>
      </contour>
      <contour>
        <pt x="338" y="136" on="0"/>
        <pt x="319" y="232" on="0"/>
        <pt x="296" y="268" on="0"/>
        <pt x="273" y="268" on="1"/>
        <pt x="254" y="268" on="1"/>
        <pt x="215" y="69" on="1"/>
        <pt x="279" y="45" on="1"/>
        <pt x="271" y="0" on="1"/>
        <pt x="-13" y="0" on="1"/>
        <pt x="-5" y="45" on="1"/>
        <pt x="79" y="69" on="1"/>
        <pt x="172" y="546" on="1"/>
        <pt x="96" y="569" on="1"/>
        <pt x="105" y="614" on="1"/>
        <pt x="380" y="614" on="1"/>
        <pt x="474" y="614" on="0"/>
        <pt x="560" y="549" on="0"/>
        <pt x="560" y="488" on="1"/>
        <pt x="560" y="414" on="0"/>
        <pt x="467" y="321" on="0"/>
        <pt x="397" y="299" on="1"/>
        <pt x="426" y="288" on="0"/>
        <pt x="454" y="254" on="0"/>
        <pt x="471" y="183" on="0"/>
        <pt x="487" y="91" on="1"/>
        <pt x="491" y="68" on="1"/>
        <pt x="546" y="45" on="1"/>
        <pt x="538" y="0" on="1"/>
        <pt x="361" y="0" on="1"/>
      </contour>
      <contour>
        <pt x="354" y="323" on="0"/>
        <pt x="422" y="413" on="0"/>
        <pt x="422" y="486" on="1"/>
        <pt x="422" y="521" on="0"/>
        <pt x="387" y="553" on="0"/>
        <pt x="349" y="553" on="1"/>
        <pt x="325" y="553" on="0"/>
        <pt x="308" y="548" on="1"/>
        <pt x="264" y="323" on="1"/>
        <pt x="299" y="323" on="1"/>
      </contour>
    </TTGlyph>
    <TTGlyph name="Rcaron" xMin="-13" yMin="0" xMax="560" yMax="795">
      <contour>
        <pt x="364" y="727" on="1"/>
        <pt x="498" y="795" on="1"/>
        <pt x="521" y="765" on="1"/>
        <pt x="393" y="639" on="1"/>
        <pt x="308" y="639" on="1"/>
        <pt x="226" y="769" on="1"/>
        <pt x="256" y="795" on="1"/>
      </contour>
      <contour>
        <pt x="338" y="136" on="0"/>
        <pt x="319" y="232" on="0"/>
        <pt x="296" y="268" on="0"/>
        <pt x="273" y="268" on="1"/>
        <pt x="254" y="268" on="1"/>
        <pt x="215" y="69" on="1"/>
        <pt x="279" y="45" on="1"/>
        <pt x="271" y="0" on="1"/>
        <pt x="-13" y="0" on="1"/>
        <pt x="-5" y="45" on="1"/>
        <pt x="79" y="69" on="1"/>
        <pt x="172" y="546" on="1"/>
        <pt x="96" y="569" on="1"/>
        <pt x="105" y="614" on="1"/>
        <pt x="380" y="614" on="1"/>
        <pt x="474" y="614" on="0"/>
        <pt x="560" y="549" on="0"/>
        <pt x="560" y="488" on="1"/>
        <pt x="560" y="414" on="0"/>
        <pt x="467" y="321" on="0"/>
        <pt x="397" y="299" on="1"/>
        <pt x="426" y="288" on="0"/>
        <pt x="454" y="254" on="0"/>
        <pt x="471" y="183" on="0"/>
        <pt x="487" y="91" on="1"/>
        <pt x="491" y="68" on="1"/>
        <pt x="546" y="45" on="1"/>
        <pt x="538" y="0" on="1"/>
        <pt x="361" y="0" on="1"/>
      </contour>
      <contour>
        <pt x="354" y="323" on="0"/>
        <pt x="422" y="413" on="0"/>
        <pt x="422" y="486" on="1"/>
        <pt x="422" y="521" on="0"/>
        <pt x="387" y="553" on="0"/>
        <pt x="349" y="553" on="1"/>
        <pt x="325" y="553" on="0"/>
        <pt x="308" y="548" on="1"/>
        <pt x="264" y="323" on="1"/>
        <pt x="299" y="323" on="1"/>
      </contour>
    </TTGlyph>
    <TTGlyph name="Rcommaaccent" xMin="-13" yMin="-236" xMax="560" yMax="614">
      <contour>
        <pt x="338" y="136" on="0"/>
        <pt x="319" y="232" on="0"/>
        <pt x="296" y="268" on="0"/>
        <pt x="273" y="268" on="1"/>
        <pt x="254" y="268" on="1"/>
        <pt x="215" y="69" on="1"/>
        <pt x="279" y="45" on="1"/>
        <pt x="271" y="0" on="1"/>
        <pt x="-13" y="0" on="1"/>
        <pt x="-5" y="45" on="1"/>
        <pt x="79" y="69" on="1"/>
        <pt x="172" y="546" on="1"/>
        <pt x="96" y="569" on="1"/>
        <pt x="105" y="614" on="1"/>
        <pt x="380" y="614" on="1"/>
        <pt x="474" y="614" on="0"/>
        <pt x="560" y="549" on="0"/>
        <pt x="560" y="488" on="1"/>
        <pt x="560" y="414" on="0"/>
        <pt x="467" y="321" on="0"/>
        <pt x="397" y="299" on="1"/>
        <pt x="426" y="288" on="0"/>
        <pt x="454" y="254" on="0"/>
        <pt x="471" y="183" on="0"/>
        <pt x="487" y="91" on="1"/>
        <pt x="491" y="68" on="1"/>
        <pt x="546" y="45" on="1"/>
        <pt x="538" y="0" on="1"/>
        <pt x="361" y="0" on="1"/>
      </contour>
      <contour>
        <pt x="354" y="323" on="0"/>
        <pt x="422" y="413" on="0"/>
        <pt x="422" y="486" on="1"/>
        <pt x="422" y="521" on="0"/>
        <pt x="387" y="553" on="0"/>
        <pt x="349" y="553" on="1"/>
        <pt x="325" y="553" on="0"/>
        <pt x="308" y="548" on="1"/>
        <pt x="264" y="323" on="1"/>
        <pt x="299" y="323" on="1"/>
      </contour>
      <contour>
        <pt x="185" y="-225" on="1"/>
        <pt x="221" y="-44" on="1"/>
        <pt x="313" y="-24" on="1"/>
        <pt x="335" y="-48" on="1"/>
        <pt x="225" y="-236" on="1"/>
      </contour>
    </TTGlyph>
    <TTGlyph name="S" xMin="-12" yMin="-10" xMax="480" yMax="628">
      <contour>
        <pt x="114" y="-10" on="0"/>
        <pt x="22" y="6" on="0"/>
        <pt x="-12" y="21" on="1"/>
        <pt x="18" y="162" on="1"/>
        <pt x="71" y="162" on="1"/>
        <pt x="79" y="75" on="1"/>
        <pt x="130" y="59" on="0"/>
        <pt x="174" y="59" on="1"/>
        <pt x="230" y="59" on="0"/>
        <pt x="295" y="111" on="0"/>
        <pt x="295" y="155" on="1"/>
        <pt x="295" y="186" on="0"/>
        <pt x="264" y="225" on="0"/>
        <pt x="231" y="241" on="1"/>
        <pt x="169" y="272" on="1"/>
        <pt x="134" y="288" on="0"/>
        <pt x="76" y="361" on="0"/>
        <pt x="76" y="416" on="1"/>
        <pt x="76" y="517" on="0"/>
        <pt x="203" y="628" on="0"/>
        <pt x="322" y="628" on="1"/>
        <pt x="396" y="628" on="0"/>
        <pt x="480" y="597" on="1"/>
        <pt x="449" y="455" on="1"/>
        <pt x="397" y="455" on="1"/>
        <pt x="387" y="544" on="1"/>
        <pt x="353" y="559" on="0"/>
        <pt x="309" y="559" on="1"/>
        <pt x="259" y="559" on="0"/>
        <pt x="200" y="515" on="0"/>
        <pt x="200" y="472" on="1"/>
        <pt x="200" y="441" on="0"/>
        <pt x="230" y="406" on="0"/>
        <pt x="263" y="390" on="1"/>
        <pt x="330" y="356" on="1"/>
        <pt x="378" y="333" on="0"/>
        <pt x="425" y="265" on="0"/>
        <pt x="425" y="215" on="1"/>
        <pt x="425" y="114" on="0"/>
        <pt x="291" y="-10" on="0"/>
        <pt x="156" y="-10" on="1"/>
      </contour>
    </TTGlyph>
    <TTGlyph name="Sacute" xMin="-12" yMin="-10" xMax="480" yMax="800">
      <contour>
        <pt x="207" y="669" on="1"/>
        <pt x="363" y="800" on="1"/>
        <pt x="462" y="766" on="1"/>
        <pt x="462" y="743" on="1"/>
        <pt x="234" y="634" on="1"/>
      </contour>
      <contour>
        <pt x="114" y="-10" on="0"/>
        <pt x="22" y="6" on="0"/>
        <pt x="-12" y="21" on="1"/>
        <pt x="18" y="162" on="1"/>
        <pt x="71" y="162" on="1"/>
        <pt x="79" y="75" on="1"/>
        <pt x="130" y="59" on="0"/>
        <pt x="174" y="59" on="1"/>
        <pt x="230" y="59" on="0"/>
        <pt x="295" y="111" on="0"/>
        <pt x="295" y="155" on="1"/>
        <pt x="295" y="186" on="0"/>
        <pt x="264" y="225" on="0"/>
        <pt x="231" y="241" on="1"/>
        <pt x="169" y="272" on="1"/>
        <pt x="134" y="288" on="0"/>
        <pt x="76" y="361" on="0"/>
        <pt x="76" y="416" on="1"/>
        <pt x="76" y="517" on="0"/>
        <pt x="203" y="628" on="0"/>
        <pt x="322" y="628" on="1"/>
        <pt x="396" y="628" on="0"/>
        <pt x="480" y="597" on="1"/>
        <pt x="449" y="455" on="1"/>
        <pt x="397" y="455" on="1"/>
        <pt x="387" y="544" on="1"/>
        <pt x="353" y="559" on="0"/>
        <pt x="309" y="559" on="1"/>
        <pt x="259" y="559" on="0"/>
        <pt x="200" y="515" on="0"/>
        <pt x="200" y="472" on="1"/>
        <pt x="200" y="441" on="0"/>
        <pt x="230" y="406" on="0"/>
        <pt x="263" y="390" on="1"/>
        <pt x="330" y="356" on="1"/>
        <pt x="378" y="333" on="0"/>
        <pt x="425" y="265" on="0"/>
        <pt x="425" y="215" on="1"/>
        <pt x="425" y="114" on="0"/>
        <pt x="291" y="-10" on="0"/>
        <pt x="156" y="-10" on="1"/>
      </contour>
    </TTGlyph>
    <TTGlyph name="Sacute.loclPLK" xMin="-12" yMin="-10" xMax="480" yMax="814">
      <component glyphName=".ttfautohint" x="0" y="0" flags="0x0"/>
      <component glyphName="S" x="0" y="0" flags="0x0"/>
      <component glyphName="acute.loclPLK.case" x="143" y="0" flags="0x0"/>
    </TTGlyph>
    <TTGlyph name="Scaron" xMin="-12" yMin="-10" xMax="480" yMax="795">
      <contour>
        <pt x="317" y="727" on="1"/>
        <pt x="451" y="795" on="1"/>
        <pt x="474" y="765" on="1"/>
        <pt x="346" y="639" on="1"/>
        <pt x="261" y="639" on="1"/>
        <pt x="179" y="769" on="1"/>
        <pt x="209" y="795" on="1"/>
      </contour>
      <contour>
        <pt x="114" y="-10" on="0"/>
        <pt x="22" y="6" on="0"/>
        <pt x="-12" y="21" on="1"/>
        <pt x="18" y="162" on="1"/>
        <pt x="71" y="162" on="1"/>
        <pt x="79" y="75" on="1"/>
        <pt x="130" y="59" on="0"/>
        <pt x="174" y="59" on="1"/>
        <pt x="230" y="59" on="0"/>
        <pt x="295" y="111" on="0"/>
        <pt x="295" y="155" on="1"/>
        <pt x="295" y="186" on="0"/>
        <pt x="264" y="225" on="0"/>
        <pt x="231" y="241" on="1"/>
        <pt x="169" y="272" on="1"/>
        <pt x="134" y="288" on="0"/>
        <pt x="76" y="361" on="0"/>
        <pt x="76" y="416" on="1"/>
        <pt x="76" y="517" on="0"/>
        <pt x="203" y="628" on="0"/>
        <pt x="322" y="628" on="1"/>
        <pt x="396" y="628" on="0"/>
        <pt x="480" y="597" on="1"/>
        <pt x="449" y="455" on="1"/>
        <pt x="397" y="455" on="1"/>
        <pt x="387" y="544" on="1"/>
        <pt x="353" y="559" on="0"/>
        <pt x="309" y="559" on="1"/>
        <pt x="259" y="559" on="0"/>
        <pt x="200" y="515" on="0"/>
        <pt x="200" y="472" on="1"/>
        <pt x="200" y="441" on="0"/>
        <pt x="230" y="406" on="0"/>
        <pt x="263" y="390" on="1"/>
        <pt x="330" y="356" on="1"/>
        <pt x="378" y="333" on="0"/>
        <pt x="425" y="265" on="0"/>
        <pt x="425" y="215" on="1"/>
        <pt x="425" y="114" on="0"/>
        <pt x="291" y="-10" on="0"/>
        <pt x="156" y="-10" on="1"/>
      </contour>
    </TTGlyph>
    <TTGlyph name="Scedilla" xMin="-16" yMin="-220" xMax="476" yMax="628">
      <contour>
        <pt x="421" y="119" on="0"/>
        <pt x="301" y="-3" on="0"/>
        <pt x="179" y="-9" on="1"/>
        <pt x="162" y="-46" on="1"/>
        <pt x="206" y="-46" on="0"/>
        <pt x="250" y="-79" on="0"/>
        <pt x="250" y="-107" on="1"/>
        <pt x="250" y="-142" on="0"/>
        <pt x="208" y="-193" on="0"/>
        <pt x="146" y="-220" on="0"/>
        <pt x="119" y="-220" on="1"/>
        <pt x="90" y="-220" on="0"/>
        <pt x="57" y="-212" on="0"/>
        <pt x="42" y="-204" on="1"/>
        <pt x="58" y="-169" on="1"/>
        <pt x="69" y="-176" on="0"/>
        <pt x="92" y="-176" on="1"/>
        <pt x="113" y="-176" on="0"/>
        <pt x="151" y="-148" on="0"/>
        <pt x="151" y="-125" on="1"/>
        <pt x="151" y="-93" on="0"/>
        <pt x="102" y="-92" on="1"/>
        <pt x="98" y="-73" on="1"/>
        <pt x="132" y="-9" on="1"/>
        <pt x="42" y="-5" on="0"/>
        <pt x="-16" y="21" on="1"/>
        <pt x="14" y="162" on="1"/>
        <pt x="67" y="162" on="1"/>
        <pt x="75" y="75" on="1"/>
        <pt x="126" y="59" on="0"/>
        <pt x="170" y="59" on="1"/>
        <pt x="226" y="59" on="0"/>
        <pt x="291" y="111" on="0"/>
        <pt x="291" y="155" on="1"/>
        <pt x="291" y="186" on="0"/>
        <pt x="260" y="225" on="0"/>
        <pt x="227" y="241" on="1"/>
        <pt x="165" y="272" on="1"/>
        <pt x="130" y="288" on="0"/>
        <pt x="72" y="361" on="0"/>
        <pt x="72" y="416" on="1"/>
        <pt x="72" y="517" on="0"/>
        <pt x="199" y="628" on="0"/>
        <pt x="318" y="628" on="1"/>
        <pt x="392" y="628" on="0"/>
        <pt x="476" y="597" on="1"/>
        <pt x="445" y="455" on="1"/>
        <pt x="393" y="455" on="1"/>
        <pt x="383" y="544" on="1"/>
        <pt x="349" y="559" on="0"/>
        <pt x="305" y="559" on="1"/>
        <pt x="255" y="559" on="0"/>
        <pt x="196" y="515" on="0"/>
        <pt x="196" y="472" on="1"/>
        <pt x="196" y="441" on="0"/>
        <pt x="226" y="406" on="0"/>
        <pt x="259" y="390" on="1"/>
        <pt x="326" y="356" on="1"/>
        <pt x="374" y="333" on="0"/>
        <pt x="421" y="265" on="0"/>
        <pt x="421" y="215" on="1"/>
      </contour>
    </TTGlyph>
    <TTGlyph name="Scircumflex" xMin="-12" yMin="-10" xMax="480" yMax="795">
      <component glyphName=".ttfautohint" x="0" y="0" flags="0x0"/>
      <component glyphName="S" x="0" y="0" flags="0x0"/>
      <component glyphName="uni0302" x="362" y="0" flags="0x0"/>
    </TTGlyph>
    <TTGlyph name="Scommaaccent" xMin="-16" yMin="-236" xMax="476" yMax="628">
      <contour>
        <pt x="110" y="-10" on="0"/>
        <pt x="18" y="6" on="0"/>
        <pt x="-16" y="21" on="1"/>
        <pt x="14" y="162" on="1"/>
        <pt x="67" y="162" on="1"/>
        <pt x="75" y="75" on="1"/>
        <pt x="126" y="59" on="0"/>
        <pt x="170" y="59" on="1"/>
        <pt x="226" y="59" on="0"/>
        <pt x="291" y="111" on="0"/>
        <pt x="291" y="155" on="1"/>
        <pt x="291" y="186" on="0"/>
        <pt x="260" y="225" on="0"/>
        <pt x="227" y="241" on="1"/>
        <pt x="165" y="272" on="1"/>
        <pt x="130" y="288" on="0"/>
        <pt x="72" y="361" on="0"/>
        <pt x="72" y="416" on="1"/>
        <pt x="72" y="517" on="0"/>
        <pt x="199" y="628" on="0"/>
        <pt x="318" y="628" on="1"/>
        <pt x="392" y="628" on="0"/>
        <pt x="476" y="597" on="1"/>
        <pt x="445" y="455" on="1"/>
        <pt x="393" y="455" on="1"/>
        <pt x="383" y="544" on="1"/>
        <pt x="349" y="559" on="0"/>
        <pt x="305" y="559" on="1"/>
        <pt x="255" y="559" on="0"/>
        <pt x="196" y="515" on="0"/>
        <pt x="196" y="472" on="1"/>
        <pt x="196" y="441" on="0"/>
        <pt x="226" y="406" on="0"/>
        <pt x="259" y="390" on="1"/>
        <pt x="326" y="356" on="1"/>
        <pt x="374" y="333" on="0"/>
        <pt x="421" y="265" on="0"/>
        <pt x="421" y="215" on="1"/>
        <pt x="421" y="114" on="0"/>
        <pt x="287" y="-10" on="0"/>
        <pt x="152" y="-10" on="1"/>
      </contour>
      <contour>
        <pt x="79" y="-225" on="1"/>
        <pt x="115" y="-44" on="1"/>
        <pt x="207" y="-24" on="1"/>
        <pt x="229" y="-48" on="1"/>
        <pt x="119" y="-236" on="1"/>
      </contour>
    </TTGlyph>
    <TTGlyph name="T" xMin="42" yMin="0" xMax="569" yMax="614">
      <contour>
        <pt x="569" y="614" on="1"/>
        <pt x="532" y="455" on="1"/>
        <pt x="478" y="455" on="1"/>
        <pt x="478" y="546" on="1"/>
        <pt x="373" y="546" on="1"/>
        <pt x="280" y="69" on="1"/>
        <pt x="355" y="45" on="1"/>
        <pt x="347" y="0" on="1"/>
        <pt x="52" y="0" on="1"/>
        <pt x="60" y="45" on="1"/>
        <pt x="144" y="69" on="1"/>
        <pt x="237" y="546" on="1"/>
        <pt x="130" y="546" on="1"/>
        <pt x="94" y="455" on="1"/>
        <pt x="42" y="455" on="1"/>
        <pt x="67" y="614" on="1"/>
      </contour>
    </TTGlyph>
    <TTGlyph name="Tbar" xMin="34" yMin="0" xMax="569" yMax="614">
      <contour>
        <pt x="478" y="455" on="1"/>
        <pt x="478" y="546" on="1"/>
        <pt x="373" y="546" on="1"/>
        <pt x="333" y="343" on="1"/>
        <pt x="488" y="343" on="1"/>
        <pt x="478" y="288" on="1"/>
        <pt x="323" y="288" on="1"/>
        <pt x="280" y="69" on="1"/>
        <pt x="355" y="45" on="1"/>
        <pt x="347" y="0" on="1"/>
        <pt x="52" y="0" on="1"/>
        <pt x="60" y="45" on="1"/>
        <pt x="144" y="69" on="1"/>
        <pt x="187" y="288" on="1"/>
        <pt x="34" y="288" on="1"/>
        <pt x="44" y="343" on="1"/>
        <pt x="197" y="343" on="1"/>
        <pt x="237" y="546" on="1"/>
        <pt x="130" y="546" on="1"/>
        <pt x="94" y="455" on="1"/>
        <pt x="42" y="455" on="1"/>
        <pt x="67" y="614" on="1"/>
        <pt x="569" y="614" on="1"/>
        <pt x="532" y="455" on="1"/>
      </contour>
    </TTGlyph>
    <TTGlyph name="Tcaron" xMin="42" yMin="0" xMax="569" yMax="795">
      <contour>
        <pt x="328" y="727" on="1"/>
        <pt x="462" y="795" on="1"/>
        <pt x="485" y="765" on="1"/>
        <pt x="357" y="639" on="1"/>
        <pt x="272" y="639" on="1"/>
        <pt x="190" y="769" on="1"/>
        <pt x="220" y="795" on="1"/>
      </contour>
      <contour>
        <pt x="569" y="614" on="1"/>
        <pt x="532" y="455" on="1"/>
        <pt x="478" y="455" on="1"/>
        <pt x="478" y="546" on="1"/>
        <pt x="373" y="546" on="1"/>
        <pt x="280" y="69" on="1"/>
        <pt x="355" y="45" on="1"/>
        <pt x="347" y="0" on="1"/>
        <pt x="52" y="0" on="1"/>
        <pt x="60" y="45" on="1"/>
        <pt x="144" y="69" on="1"/>
        <pt x="237" y="546" on="1"/>
        <pt x="130" y="546" on="1"/>
        <pt x="94" y="455" on="1"/>
        <pt x="42" y="455" on="1"/>
        <pt x="67" y="614" on="1"/>
      </contour>
    </TTGlyph>
    <TTGlyph name="Thorn" xMin="-13" yMin="0" xMax="517" yMax="614">
      <contour>
        <pt x="-5" y="45" on="1"/>
        <pt x="79" y="69" on="1"/>
        <pt x="172" y="546" on="1"/>
        <pt x="96" y="569" on="1"/>
        <pt x="105" y="614" on="1"/>
        <pt x="401" y="614" on="1"/>
        <pt x="392" y="569" on="1"/>
        <pt x="308" y="546" on="1"/>
        <pt x="296" y="486" on="1"/>
        <pt x="354" y="486" on="1"/>
        <pt x="437" y="486" on="0"/>
        <pt x="517" y="419" on="0"/>
        <pt x="517" y="352" on="1"/>
        <pt x="517" y="280" on="0"/>
        <pt x="442" y="180" on="0"/>
        <pt x="330" y="132" on="0"/>
        <pt x="275" y="132" on="1"/>
        <pt x="254" y="132" on="0"/>
        <pt x="228" y="136" on="1"/>
        <pt x="215" y="69" on="1"/>
        <pt x="290" y="45" on="1"/>
        <pt x="282" y="0" on="1"/>
        <pt x="-13" y="0" on="1"/>
      </contour>
      <contour>
        <pt x="323" y="186" on="0"/>
        <pt x="394" y="272" on="0"/>
        <pt x="394" y="350" on="1"/>
        <pt x="394" y="386" on="0"/>
        <pt x="358" y="427" on="0"/>
        <pt x="322" y="427" on="1"/>
        <pt x="304" y="427" on="0"/>
        <pt x="284" y="422" on="1"/>
        <pt x="238" y="189" on="1"/>
        <pt x="247" y="186" on="0"/>
        <pt x="264" y="186" on="1"/>
      </contour>
    </TTGlyph>
    <TTGlyph name="U" xMin="58" yMin="-10" xMax="690" yMax="614">
      <contour>
        <pt x="519" y="142" on="0"/>
        <pt x="398" y="-10" on="0"/>
        <pt x="264" y="-10" on="1"/>
        <pt x="160" y="-10" on="0"/>
        <pt x="66" y="80" on="0"/>
        <pt x="66" y="159" on="1"/>
        <pt x="66" y="196" on="0"/>
        <pt x="79" y="265" on="1"/>
        <pt x="134" y="546" on="1"/>
        <pt x="58" y="569" on="1"/>
        <pt x="67" y="614" on="1"/>
        <pt x="363" y="614" on="1"/>
        <pt x="354" y="569" on="1"/>
        <pt x="270" y="546" on="1"/>
        <pt x="215" y="264" on="1"/>
        <pt x="202" y="199" on="0"/>
        <pt x="202" y="152" on="1"/>
        <pt x="202" y="106" on="0"/>
        <pt x="246" y="56" on="0"/>
        <pt x="297" y="56" on="1"/>
        <pt x="367" y="56" on="0"/>
        <pt x="450" y="165" on="0"/>
        <pt x="466" y="245" on="1"/>
        <pt x="524" y="546" on="1"/>
        <pt x="448" y="569" on="1"/>
        <pt x="457" y="614" on="1"/>
        <pt x="690" y="614" on="1"/>
        <pt x="681" y="569" on="1"/>
        <pt x="597" y="546" on="1"/>
        <pt x="537" y="236" on="1"/>
      </contour>
    </TTGlyph>
    <TTGlyph name="Uacute" xMin="58" yMin="-10" xMax="690" yMax="800">
      <contour>
        <pt x="316" y="669" on="1"/>
        <pt x="472" y="800" on="1"/>
        <pt x="571" y="766" on="1"/>
        <pt x="571" y="743" on="1"/>
        <pt x="343" y="634" on="1"/>
      </contour>
      <contour>
        <pt x="519" y="142" on="0"/>
        <pt x="398" y="-10" on="0"/>
        <pt x="264" y="-10" on="1"/>
        <pt x="160" y="-10" on="0"/>
        <pt x="66" y="80" on="0"/>
        <pt x="66" y="159" on="1"/>
        <pt x="66" y="196" on="0"/>
        <pt x="79" y="265" on="1"/>
        <pt x="134" y="546" on="1"/>
        <pt x="58" y="569" on="1"/>
        <pt x="67" y="614" on="1"/>
        <pt x="363" y="614" on="1"/>
        <pt x="354" y="569" on="1"/>
        <pt x="270" y="546" on="1"/>
        <pt x="215" y="264" on="1"/>
        <pt x="202" y="199" on="0"/>
        <pt x="202" y="152" on="1"/>
        <pt x="202" y="106" on="0"/>
        <pt x="246" y="56" on="0"/>
        <pt x="297" y="56" on="1"/>
        <pt x="367" y="56" on="0"/>
        <pt x="450" y="165" on="0"/>
        <pt x="466" y="245" on="1"/>
        <pt x="524" y="546" on="1"/>
        <pt x="448" y="569" on="1"/>
        <pt x="457" y="614" on="1"/>
        <pt x="690" y="614" on="1"/>
        <pt x="681" y="569" on="1"/>
        <pt x="597" y="546" on="1"/>
        <pt x="537" y="236" on="1"/>
      </contour>
    </TTGlyph>
    <TTGlyph name="Ubreve" xMin="58" yMin="-10" xMax="690" yMax="788">
      <component glyphName=".ttfautohint" x="58" y="0" flags="0x0"/>
      <component glyphName="U" x="0" y="0" flags="0x0"/>
      <component glyphName="uni0306" x="424" y="0" flags="0x0"/>
    </TTGlyph>
    <TTGlyph name="Ucircumflex" xMin="58" yMin="-10" xMax="690" yMax="795">
      <contour>
        <pt x="413" y="707" on="1"/>
        <pt x="279" y="639" on="1"/>
        <pt x="256" y="669" on="1"/>
        <pt x="384" y="795" on="1"/>
        <pt x="469" y="795" on="1"/>
        <pt x="551" y="665" on="1"/>
        <pt x="521" y="639" on="1"/>
      </contour>
      <contour>
        <pt x="519" y="142" on="0"/>
        <pt x="398" y="-10" on="0"/>
        <pt x="264" y="-10" on="1"/>
        <pt x="160" y="-10" on="0"/>
        <pt x="66" y="80" on="0"/>
        <pt x="66" y="159" on="1"/>
        <pt x="66" y="196" on="0"/>
        <pt x="79" y="265" on="1"/>
        <pt x="134" y="546" on="1"/>
        <pt x="58" y="569" on="1"/>
        <pt x="67" y="614" on="1"/>
        <pt x="363" y="614" on="1"/>
        <pt x="354" y="569" on="1"/>
        <pt x="270" y="546" on="1"/>
        <pt x="215" y="264" on="1"/>
        <pt x="202" y="199" on="0"/>
        <pt x="202" y="152" on="1"/>
        <pt x="202" y="106" on="0"/>
        <pt x="246" y="56" on="0"/>
        <pt x="297" y="56" on="1"/>
        <pt x="367" y="56" on="0"/>
        <pt x="450" y="165" on="0"/>
        <pt x="466" y="245" on="1"/>
        <pt x="524" y="546" on="1"/>
        <pt x="448" y="569" on="1"/>
        <pt x="457" y="614" on="1"/>
        <pt x="690" y="614" on="1"/>
        <pt x="681" y="569" on="1"/>
        <pt x="597" y="546" on="1"/>
        <pt x="537" y="236" on="1"/>
      </contour>
    </TTGlyph>
    <TTGlyph name="Udieresis" xMin="58" yMin="-10" xMax="690" yMax="792">
      <contour>
        <pt x="374" y="688" on="0"/>
        <pt x="331" y="647" on="0"/>
        <pt x="300" y="647" on="1"/>
        <pt x="268" y="647" on="0"/>
        <pt x="222" y="688" on="0"/>
        <pt x="222" y="719" on="1"/>
        <pt x="222" y="749" on="0"/>
        <pt x="269" y="792" on="0"/>
        <pt x="300" y="792" on="1"/>
        <pt x="330" y="792" on="0"/>
        <pt x="374" y="749" on="0"/>
        <pt x="374" y="719" on="1"/>
      </contour>
      <contour>
        <pt x="605" y="688" on="0"/>
        <pt x="561" y="647" on="0"/>
        <pt x="532" y="647" on="1"/>
        <pt x="500" y="647" on="0"/>
        <pt x="455" y="688" on="0"/>
        <pt x="455" y="719" on="1"/>
        <pt x="455" y="750" on="0"/>
        <pt x="500" y="792" on="0"/>
        <pt x="532" y="792" on="1"/>
        <pt x="561" y="792" on="0"/>
        <pt x="605" y="749" on="0"/>
        <pt x="605" y="719" on="1"/>
      </contour>
      <contour>
        <pt x="519" y="142" on="0"/>
        <pt x="398" y="-10" on="0"/>
        <pt x="264" y="-10" on="1"/>
        <pt x="160" y="-10" on="0"/>
        <pt x="66" y="80" on="0"/>
        <pt x="66" y="159" on="1"/>
        <pt x="66" y="196" on="0"/>
        <pt x="79" y="265" on="1"/>
        <pt x="134" y="546" on="1"/>
        <pt x="58" y="569" on="1"/>
        <pt x="67" y="614" on="1"/>
        <pt x="363" y="614" on="1"/>
        <pt x="354" y="569" on="1"/>
        <pt x="270" y="546" on="1"/>
        <pt x="215" y="264" on="1"/>
        <pt x="202" y="199" on="0"/>
        <pt x="202" y="152" on="1"/>
        <pt x="202" y="106" on="0"/>
        <pt x="246" y="56" on="0"/>
        <pt x="297" y="56" on="1"/>
        <pt x="367" y="56" on="0"/>
        <pt x="450" y="165" on="0"/>
        <pt x="466" y="245" on="1"/>
        <pt x="524" y="546" on="1"/>
        <pt x="448" y="569" on="1"/>
        <pt x="457" y="614" on="1"/>
        <pt x="690" y="614" on="1"/>
        <pt x="681" y="569" on="1"/>
        <pt x="597" y="546" on="1"/>
        <pt x="537" y="236" on="1"/>
      </contour>
    </TTGlyph>
    <TTGlyph name="Ugrave" xMin="58" yMin="-10" xMax="690" yMax="800">
      <contour>
        <pt x="250" y="743" on="1"/>
        <pt x="254" y="766" on="1"/>
        <pt x="351" y="800" on="1"/>
        <pt x="505" y="669" on="1"/>
        <pt x="482" y="634" on="1"/>
      </contour>
      <contour>
        <pt x="519" y="142" on="0"/>
        <pt x="398" y="-10" on="0"/>
        <pt x="264" y="-10" on="1"/>
        <pt x="160" y="-10" on="0"/>
        <pt x="66" y="80" on="0"/>
        <pt x="66" y="159" on="1"/>
        <pt x="66" y="196" on="0"/>
        <pt x="79" y="265" on="1"/>
        <pt x="134" y="546" on="1"/>
        <pt x="58" y="569" on="1"/>
        <pt x="67" y="614" on="1"/>
        <pt x="363" y="614" on="1"/>
        <pt x="354" y="569" on="1"/>
        <pt x="270" y="546" on="1"/>
        <pt x="215" y="264" on="1"/>
        <pt x="202" y="199" on="0"/>
        <pt x="202" y="152" on="1"/>
        <pt x="202" y="106" on="0"/>
        <pt x="246" y="56" on="0"/>
        <pt x="297" y="56" on="1"/>
        <pt x="367" y="56" on="0"/>
        <pt x="450" y="165" on="0"/>
        <pt x="466" y="245" on="1"/>
        <pt x="524" y="546" on="1"/>
        <pt x="448" y="569" on="1"/>
        <pt x="457" y="614" on="1"/>
        <pt x="690" y="614" on="1"/>
        <pt x="681" y="569" on="1"/>
        <pt x="597" y="546" on="1"/>
        <pt x="537" y="236" on="1"/>
      </contour>
    </TTGlyph>
    <TTGlyph name="Uhorn" xMin="58" yMin="-10" xMax="723" yMax="735">
      <contour>
        <pt x="723" y="646" on="0"/>
        <pt x="680" y="597" on="0"/>
        <pt x="644" y="582" on="1"/>
        <pt x="600" y="560" on="1"/>
        <pt x="537" y="236" on="1"/>
        <pt x="519" y="142" on="0"/>
        <pt x="398" y="-10" on="0"/>
        <pt x="264" y="-10" on="1"/>
        <pt x="160" y="-10" on="0"/>
        <pt x="66" y="80" on="0"/>
        <pt x="66" y="159" on="1"/>
        <pt x="66" y="196" on="0"/>
        <pt x="79" y="265" on="1"/>
        <pt x="134" y="546" on="1"/>
        <pt x="58" y="569" on="1"/>
        <pt x="67" y="614" on="1"/>
        <pt x="363" y="614" on="1"/>
        <pt x="354" y="569" on="1"/>
        <pt x="270" y="546" on="1"/>
        <pt x="215" y="264" on="1"/>
        <pt x="202" y="199" on="0"/>
        <pt x="202" y="152" on="1"/>
        <pt x="202" y="106" on="0"/>
        <pt x="246" y="56" on="0"/>
        <pt x="297" y="56" on="1"/>
        <pt x="367" y="56" on="0"/>
        <pt x="450" y="165" on="0"/>
        <pt x="466" y="245" on="1"/>
        <pt x="524" y="546" on="1"/>
        <pt x="448" y="569" on="1"/>
        <pt x="457" y="614" on="1"/>
        <pt x="556" y="614" on="1"/>
        <pt x="590" y="614" on="0"/>
        <pt x="625" y="636" on="0"/>
        <pt x="625" y="667" on="1"/>
        <pt x="625" y="686" on="0"/>
        <pt x="620" y="708" on="1"/>
        <pt x="626" y="721" on="1"/>
        <pt x="710" y="735" on="1"/>
        <pt x="716" y="722" on="0"/>
        <pt x="723" y="690" on="0"/>
        <pt x="723" y="678" on="1"/>
      </contour>
    </TTGlyph>
    <TTGlyph name="Uhungarumlaut" xMin="58" yMin="-10" xMax="690" yMax="814">
      <contour>
        <pt x="280" y="654" on="1"/>
        <pt x="372" y="814" on="1"/>
        <pt x="464" y="814" on="1"/>
        <pt x="464" y="792" on="1"/>
        <pt x="311" y="631" on="1"/>
      </contour>
      <contour>
        <pt x="441" y="654" on="1"/>
        <pt x="533" y="814" on="1"/>
        <pt x="625" y="814" on="1"/>
        <pt x="625" y="792" on="1"/>
        <pt x="472" y="631" on="1"/>
      </contour>
      <contour>
        <pt x="519" y="142" on="0"/>
        <pt x="398" y="-10" on="0"/>
        <pt x="264" y="-10" on="1"/>
        <pt x="160" y="-10" on="0"/>
        <pt x="66" y="80" on="0"/>
        <pt x="66" y="159" on="1"/>
        <pt x="66" y="196" on="0"/>
        <pt x="79" y="265" on="1"/>
        <pt x="134" y="546" on="1"/>
        <pt x="58" y="569" on="1"/>
        <pt x="67" y="614" on="1"/>
        <pt x="363" y="614" on="1"/>
        <pt x="354" y="569" on="1"/>
        <pt x="270" y="546" on="1"/>
        <pt x="215" y="264" on="1"/>
        <pt x="202" y="199" on="0"/>
        <pt x="202" y="152" on="1"/>
        <pt x="202" y="106" on="0"/>
        <pt x="246" y="56" on="0"/>
        <pt x="297" y="56" on="1"/>
        <pt x="367" y="56" on="0"/>
        <pt x="450" y="165" on="0"/>
        <pt x="466" y="245" on="1"/>
        <pt x="524" y="546" on="1"/>
        <pt x="448" y="569" on="1"/>
        <pt x="457" y="614" on="1"/>
        <pt x="690" y="614" on="1"/>
        <pt x="681" y="569" on="1"/>
        <pt x="597" y="546" on="1"/>
        <pt x="537" y="236" on="1"/>
      </contour>
    </TTGlyph>
    <TTGlyph name="Umacron" xMin="58" yMin="-10" xMax="690" yMax="758">
      <contour>
        <pt x="555" y="758" on="1"/>
        <pt x="544" y="679" on="1"/>
        <pt x="283" y="679" on="1"/>
        <pt x="294" y="758" on="1"/>
      </contour>
      <contour>
        <pt x="519" y="142" on="0"/>
        <pt x="398" y="-10" on="0"/>
        <pt x="264" y="-10" on="1"/>
        <pt x="160" y="-10" on="0"/>
        <pt x="66" y="80" on="0"/>
        <pt x="66" y="159" on="1"/>
        <pt x="66" y="196" on="0"/>
        <pt x="79" y="265" on="1"/>
        <pt x="134" y="546" on="1"/>
        <pt x="58" y="569" on="1"/>
        <pt x="67" y="614" on="1"/>
        <pt x="363" y="614" on="1"/>
        <pt x="354" y="569" on="1"/>
        <pt x="270" y="546" on="1"/>
        <pt x="215" y="264" on="1"/>
        <pt x="202" y="199" on="0"/>
        <pt x="202" y="152" on="1"/>
        <pt x="202" y="106" on="0"/>
        <pt x="246" y="56" on="0"/>
        <pt x="297" y="56" on="1"/>
        <pt x="367" y="56" on="0"/>
        <pt x="450" y="165" on="0"/>
        <pt x="466" y="245" on="1"/>
        <pt x="524" y="546" on="1"/>
        <pt x="448" y="569" on="1"/>
        <pt x="457" y="614" on="1"/>
        <pt x="690" y="614" on="1"/>
        <pt x="681" y="569" on="1"/>
        <pt x="597" y="546" on="1"/>
        <pt x="537" y="236" on="1"/>
      </contour>
    </TTGlyph>
    <TTGlyph name="Uogonek" xMin="58" yMin="-236" xMax="690" yMax="614">
      <contour>
        <pt x="503" y="64" on="0"/>
        <pt x="380" y="12" on="1"/>
        <pt x="342" y="-6" on="0"/>
        <pt x="294" y="-63" on="0"/>
        <pt x="273" y="-118" on="0"/>
        <pt x="273" y="-133" on="1"/>
        <pt x="273" y="-174" on="0"/>
        <pt x="311" y="-174" on="1"/>
        <pt x="340" y="-174" on="0"/>
        <pt x="375" y="-152" on="1"/>
        <pt x="395" y="-174" on="1"/>
        <pt x="395" y="-176" on="0"/>
        <pt x="363" y="-208" on="0"/>
        <pt x="311" y="-236" on="0"/>
        <pt x="277" y="-236" on="1"/>
        <pt x="228" y="-236" on="0"/>
        <pt x="185" y="-193" on="0"/>
        <pt x="185" y="-160" on="1"/>
        <pt x="185" y="-127" on="0"/>
        <pt x="243" y="-40" on="0"/>
        <pt x="291" y="-9" on="1"/>
        <pt x="264" y="-10" on="1"/>
        <pt x="160" y="-10" on="0"/>
        <pt x="66" y="80" on="0"/>
        <pt x="66" y="159" on="1"/>
        <pt x="66" y="196" on="0"/>
        <pt x="79" y="265" on="1"/>
        <pt x="134" y="546" on="1"/>
        <pt x="58" y="569" on="1"/>
        <pt x="67" y="614" on="1"/>
        <pt x="363" y="614" on="1"/>
        <pt x="354" y="569" on="1"/>
        <pt x="270" y="546" on="1"/>
        <pt x="215" y="264" on="1"/>
        <pt x="202" y="199" on="0"/>
        <pt x="202" y="152" on="1"/>
        <pt x="202" y="106" on="0"/>
        <pt x="246" y="56" on="0"/>
        <pt x="297" y="56" on="1"/>
        <pt x="367" y="56" on="0"/>
        <pt x="450" y="165" on="0"/>
        <pt x="466" y="245" on="1"/>
        <pt x="524" y="546" on="1"/>
        <pt x="448" y="569" on="1"/>
        <pt x="457" y="614" on="1"/>
        <pt x="690" y="614" on="1"/>
        <pt x="681" y="569" on="1"/>
        <pt x="597" y="546" on="1"/>
        <pt x="537" y="236" on="1"/>
      </contour>
    </TTGlyph>
    <TTGlyph name="Uring" xMin="58" yMin="-10" xMax="690" yMax="819">
      <contour>
        <pt x="361" y="627" on="0"/>
        <pt x="310" y="664" on="0"/>
        <pt x="310" y="698" on="1"/>
        <pt x="310" y="750" on="0"/>
        <pt x="377" y="819" on="0"/>
        <pt x="445" y="819" on="1"/>
        <pt x="492" y="819" on="0"/>
        <pt x="537" y="775" on="0"/>
        <pt x="538" y="739" on="1"/>
        <pt x="538" y="689" on="0"/>
        <pt x="464" y="627" on="0"/>
        <pt x="407" y="627" on="1"/>
      </contour>
      <contour>
        <pt x="443" y="674" on="0"/>
        <pt x="465" y="713" on="0"/>
        <pt x="465" y="740" on="1"/>
        <pt x="465" y="754" on="0"/>
        <pt x="447" y="771" on="0"/>
        <pt x="430" y="771" on="1"/>
        <pt x="404" y="771" on="0"/>
        <pt x="383" y="733" on="0"/>
        <pt x="383" y="706" on="1"/>
        <pt x="383" y="690" on="0"/>
        <pt x="395" y="674" on="0"/>
        <pt x="415" y="674" on="1"/>
      </contour>
      <contour>
        <pt x="160" y="-10" on="0"/>
        <pt x="66" y="80" on="0"/>
        <pt x="66" y="159" on="1"/>
        <pt x="66" y="196" on="0"/>
        <pt x="79" y="265" on="1"/>
        <pt x="134" y="546" on="1"/>
        <pt x="58" y="569" on="1"/>
        <pt x="67" y="614" on="1"/>
        <pt x="363" y="614" on="1"/>
        <pt x="354" y="569" on="1"/>
        <pt x="270" y="546" on="1"/>
        <pt x="215" y="264" on="1"/>
        <pt x="202" y="199" on="0"/>
        <pt x="202" y="152" on="1"/>
        <pt x="202" y="106" on="0"/>
        <pt x="246" y="56" on="0"/>
        <pt x="297" y="56" on="1"/>
        <pt x="367" y="56" on="0"/>
        <pt x="450" y="165" on="0"/>
        <pt x="466" y="245" on="1"/>
        <pt x="524" y="546" on="1"/>
        <pt x="448" y="569" on="1"/>
        <pt x="457" y="614" on="1"/>
        <pt x="690" y="614" on="1"/>
        <pt x="681" y="569" on="1"/>
        <pt x="597" y="546" on="1"/>
        <pt x="537" y="236" on="1"/>
        <pt x="519" y="142" on="0"/>
        <pt x="398" y="-10" on="0"/>
        <pt x="264" y="-10" on="1"/>
      </contour>
    </TTGlyph>
    <TTGlyph name="Utilde" xMin="58" yMin="-10" xMax="690" yMax="784">
      <contour>
        <pt x="539" y="655" on="0"/>
        <pt x="496" y="655" on="1"/>
        <pt x="468" y="655" on="0"/>
        <pt x="398" y="675" on="1"/>
        <pt x="339" y="692" on="0"/>
        <pt x="320" y="692" on="1"/>
        <pt x="309" y="692" on="0"/>
        <pt x="292" y="678" on="0"/>
        <pt x="281" y="663" on="0"/>
        <pt x="280" y="661" on="1"/>
        <pt x="233" y="680" on="1"/>
        <pt x="249" y="725" on="0"/>
        <pt x="296" y="784" on="0"/>
        <pt x="320" y="784" on="1"/>
        <pt x="349" y="784" on="0"/>
        <pt x="417" y="764" on="1"/>
        <pt x="476" y="747" on="0"/>
        <pt x="496" y="747" on="1"/>
        <pt x="507" y="747" on="0"/>
        <pt x="526" y="761" on="0"/>
        <pt x="537" y="776" on="0"/>
        <pt x="538" y="778" on="1"/>
        <pt x="582" y="759" on="1"/>
      </contour>
      <contour>
        <pt x="519" y="142" on="0"/>
        <pt x="398" y="-10" on="0"/>
        <pt x="264" y="-10" on="1"/>
        <pt x="160" y="-10" on="0"/>
        <pt x="66" y="80" on="0"/>
        <pt x="66" y="159" on="1"/>
        <pt x="66" y="196" on="0"/>
        <pt x="79" y="265" on="1"/>
        <pt x="134" y="546" on="1"/>
        <pt x="58" y="569" on="1"/>
        <pt x="67" y="614" on="1"/>
        <pt x="363" y="614" on="1"/>
        <pt x="354" y="569" on="1"/>
        <pt x="270" y="546" on="1"/>
        <pt x="215" y="264" on="1"/>
        <pt x="202" y="199" on="0"/>
        <pt x="202" y="152" on="1"/>
        <pt x="202" y="106" on="0"/>
        <pt x="246" y="56" on="0"/>
        <pt x="297" y="56" on="1"/>
        <pt x="367" y="56" on="0"/>
        <pt x="450" y="165" on="0"/>
        <pt x="466" y="245" on="1"/>
        <pt x="524" y="546" on="1"/>
        <pt x="448" y="569" on="1"/>
        <pt x="457" y="614" on="1"/>
        <pt x="690" y="614" on="1"/>
        <pt x="681" y="569" on="1"/>
        <pt x="597" y="546" on="1"/>
        <pt x="537" y="236" on="1"/>
      </contour>
    </TTGlyph>
    <TTGlyph name="V" xMin="35" yMin="-7" xMax="614" yMax="614">
      <contour>
        <pt x="408" y="614" on="1"/>
        <pt x="614" y="614" on="1"/>
        <pt x="606" y="567" on="1"/>
        <pt x="534" y="545" on="1"/>
        <pt x="257" y="3" on="1"/>
        <pt x="171" y="-7" on="1"/>
        <pt x="98" y="545" on="1"/>
        <pt x="35" y="569" on="1"/>
        <pt x="44" y="614" on="1"/>
        <pt x="308" y="614" on="1"/>
        <pt x="299" y="569" on="1"/>
        <pt x="233" y="549" on="1"/>
        <pt x="275" y="184" on="1"/>
        <pt x="461" y="548" on="1"/>
        <pt x="400" y="569" on="1"/>
      </contour>
    </TTGlyph>
    <TTGlyph name="W" xMin="47" yMin="-12" xMax="891" yMax="614">
      <contour>
        <pt x="684" y="614" on="1"/>
        <pt x="891" y="614" on="1"/>
        <pt x="883" y="570" on="1"/>
        <pt x="811" y="546" on="1"/>
        <pt x="569" y="3" on="1"/>
        <pt x="479" y="-12" on="1"/>
        <pt x="434" y="400" on="1"/>
        <pt x="256" y="3" on="1"/>
        <pt x="162" y="-12" on="1"/>
        <pt x="109" y="545" on="1"/>
        <pt x="47" y="569" on="1"/>
        <pt x="55" y="614" on="1"/>
        <pt x="317" y="614" on="1"/>
        <pt x="309" y="569" on="1"/>
        <pt x="244" y="549" on="1"/>
        <pt x="275" y="205" on="1"/>
        <pt x="423" y="547" on="1"/>
        <pt x="549" y="568" on="1"/>
        <pt x="590" y="202" on="1"/>
        <pt x="737" y="548" on="1"/>
        <pt x="676" y="569" on="1"/>
      </contour>
    </TTGlyph>
    <TTGlyph name="Wacute" xMin="47" yMin="-12" xMax="891" yMax="800">
      <component glyphName=".ttfautohint" x="47" y="0" flags="0x0"/>
      <component glyphName="W" x="0" y="0" flags="0x0"/>
      <component glyphName="acutecomb" x="585" y="0" flags="0x0"/>
    </TTGlyph>
    <TTGlyph name="Wcircumflex" xMin="47" yMin="-12" xMax="891" yMax="795">
      <component glyphName=".ttfautohint" x="47" y="0" flags="0x0"/>
      <component glyphName="W" x="0" y="0" flags="0x0"/>
      <component glyphName="uni0302" x="527" y="0" flags="0x0"/>
    </TTGlyph>
    <TTGlyph name="Wdieresis" xMin="47" yMin="-12" xMax="891" yMax="792">
      <component glyphName=".ttfautohint" x="47" y="0" flags="0x0"/>
      <component glyphName="W" x="0" y="0" flags="0x0"/>
      <component glyphName="uni0308" x="529" y="0" flags="0x0"/>
    </TTGlyph>
    <TTGlyph name="Wgrave" xMin="47" yMin="-12" xMax="891" yMax="800">
      <component glyphName=".ttfautohint" x="47" y="0" flags="0x0"/>
      <component glyphName="W" x="0" y="0" flags="0x0"/>
      <component glyphName="gravecomb" x="450" y="0" flags="0x0"/>
    </TTGlyph>
    <TTGlyph name="X" xMin="-55" yMin="0" xMax="620" yMax="614">
      <contour>
        <pt x="-47" y="45" on="1"/>
        <pt x="18" y="65" on="1"/>
        <pt x="215" y="297" on="1"/>
        <pt x="115" y="549" on="1"/>
        <pt x="56" y="569" on="1"/>
        <pt x="65" y="614" on="1"/>
        <pt x="337" y="614" on="1"/>
        <pt x="327" y="565" on="1"/>
        <pt x="257" y="549" on="1"/>
        <pt x="319" y="393" on="1"/>
        <pt x="460" y="549" on="1"/>
        <pt x="395" y="565" on="1"/>
        <pt x="405" y="614" on="1"/>
        <pt x="620" y="614" on="1"/>
        <pt x="611" y="569" on="1"/>
        <pt x="544" y="549" on="1"/>
        <pt x="345" y="327" on="1"/>
        <pt x="450" y="65" on="1"/>
        <pt x="519" y="45" on="1"/>
        <pt x="511" y="0" on="1"/>
        <pt x="237" y="0" on="1"/>
        <pt x="246" y="49" on="1"/>
        <pt x="308" y="65" on="1"/>
        <pt x="241" y="231" on="1"/>
        <pt x="102" y="65" on="1"/>
        <pt x="166" y="46" on="1"/>
        <pt x="157" y="0" on="1"/>
        <pt x="-55" y="0" on="1"/>
      </contour>
    </TTGlyph>
    <TTGlyph name="Y" xMin="39" yMin="0" xMax="583" yMax="614">
      <contour>
        <pt x="376" y="614" on="1"/>
        <pt x="583" y="614" on="1"/>
        <pt x="574" y="570" on="1"/>
        <pt x="503" y="545" on="1"/>
        <pt x="315" y="256" on="1"/>
        <pt x="279" y="69" on="1"/>
        <pt x="354" y="45" on="1"/>
        <pt x="346" y="0" on="1"/>
        <pt x="50" y="0" on="1"/>
        <pt x="58" y="45" on="1"/>
        <pt x="143" y="69" on="1"/>
        <pt x="182" y="269" on="1"/>
        <pt x="101" y="544" on="1"/>
        <pt x="39" y="568" on="1"/>
        <pt x="48" y="613" on="1"/>
        <pt x="313" y="614" on="1"/>
        <pt x="304" y="567" on="1"/>
        <pt x="236" y="546" on="1"/>
        <pt x="293" y="337" on="1"/>
        <pt x="429" y="548" on="1"/>
        <pt x="367" y="568" on="1"/>
      </contour>
    </TTGlyph>
    <TTGlyph name="Y.loclGUA" xMin="36" yMin="-167" xMax="718" yMax="614">
      <contour>
        <pt x="180" y="-167" on="0"/>
        <pt x="75" y="-142" on="0"/>
        <pt x="36" y="-117" on="1"/>
        <pt x="75" y="27" on="1"/>
        <pt x="127" y="27" on="1"/>
        <pt x="133" y="-53" on="1"/>
        <pt x="155" y="-68" on="0"/>
        <pt x="218" y="-86" on="0"/>
        <pt x="247" y="-86" on="1"/>
        <pt x="332" y="-86" on="0"/>
        <pt x="415" y="0" on="0"/>
        <pt x="430" y="84" on="1"/>
        <pt x="431" y="89" on="1"/>
        <pt x="355" y="42" on="0"/>
        <pt x="264" y="42" on="1"/>
        <pt x="169" y="42" on="0"/>
        <pt x="92" y="123" on="0"/>
        <pt x="92" y="211" on="1"/>
        <pt x="92" y="248" on="0"/>
        <pt x="105" y="317" on="1"/>
        <pt x="149" y="546" on="1"/>
        <pt x="73" y="569" on="1"/>
        <pt x="82" y="614" on="1"/>
        <pt x="378" y="614" on="1"/>
        <pt x="369" y="569" on="1"/>
        <pt x="285" y="546" on="1"/>
        <pt x="241" y="316" on="1"/>
        <pt x="235" y="288" on="0"/>
        <pt x="228" y="228" on="0"/>
        <pt x="228" y="214" on="1"/>
        <pt x="228" y="160" on="0"/>
        <pt x="266" y="117" on="0"/>
        <pt x="311" y="117" on="1"/>
        <pt x="346" y="117" on="0"/>
        <pt x="427" y="164" on="0"/>
        <pt x="450" y="199" on="1"/>
        <pt x="514" y="546" on="1"/>
        <pt x="438" y="569" on="1"/>
        <pt x="447" y="614" on="1"/>
        <pt x="718" y="614" on="1"/>
        <pt x="709" y="569" on="1"/>
        <pt x="625" y="546" on="1"/>
        <pt x="540" y="89" on="1"/>
        <pt x="521" y="-12" on="0"/>
        <pt x="435" y="-125" on="0"/>
        <pt x="316" y="-167" on="0"/>
        <pt x="237" y="-167" on="1"/>
      </contour>
    </TTGlyph>
    <TTGlyph name="Yacute" xMin="42" yMin="0" xMax="586" yMax="800">
      <contour>
        <pt x="246" y="669" on="1"/>
        <pt x="402" y="800" on="1"/>
        <pt x="501" y="766" on="1"/>
        <pt x="501" y="743" on="1"/>
        <pt x="273" y="634" on="1"/>
      </contour>
      <contour>
        <pt x="379" y="614" on="1"/>
        <pt x="586" y="614" on="1"/>
        <pt x="577" y="570" on="1"/>
        <pt x="506" y="545" on="1"/>
        <pt x="318" y="256" on="1"/>
        <pt x="282" y="69" on="1"/>
        <pt x="357" y="45" on="1"/>
        <pt x="349" y="0" on="1"/>
        <pt x="53" y="0" on="1"/>
        <pt x="61" y="45" on="1"/>
        <pt x="146" y="69" on="1"/>
        <pt x="185" y="269" on="1"/>
        <pt x="104" y="544" on="1"/>
        <pt x="42" y="568" on="1"/>
        <pt x="51" y="613" on="1"/>
        <pt x="316" y="614" on="1"/>
        <pt x="307" y="567" on="1"/>
        <pt x="239" y="546" on="1"/>
        <pt x="296" y="337" on="1"/>
        <pt x="432" y="548" on="1"/>
        <pt x="370" y="568" on="1"/>
      </contour>
    </TTGlyph>
    <TTGlyph name="Yacute.loclGUA" xMin="36" yMin="-167" xMax="718" yMax="800">
      <contour>
        <pt x="316" y="669" on="1"/>
        <pt x="472" y="800" on="1"/>
        <pt x="571" y="766" on="1"/>
        <pt x="571" y="743" on="1"/>
        <pt x="343" y="634" on="1"/>
      </contour>
      <contour>
        <pt x="180" y="-167" on="0"/>
        <pt x="75" y="-142" on="0"/>
        <pt x="36" y="-117" on="1"/>
        <pt x="75" y="27" on="1"/>
        <pt x="127" y="27" on="1"/>
        <pt x="133" y="-53" on="1"/>
        <pt x="155" y="-68" on="0"/>
        <pt x="218" y="-86" on="0"/>
        <pt x="247" y="-86" on="1"/>
        <pt x="332" y="-86" on="0"/>
        <pt x="415" y="0" on="0"/>
        <pt x="430" y="84" on="1"/>
        <pt x="431" y="89" on="1"/>
        <pt x="355" y="42" on="0"/>
        <pt x="264" y="42" on="1"/>
        <pt x="169" y="42" on="0"/>
        <pt x="92" y="123" on="0"/>
        <pt x="92" y="211" on="1"/>
        <pt x="92" y="248" on="0"/>
        <pt x="105" y="317" on="1"/>
        <pt x="149" y="546" on="1"/>
        <pt x="73" y="569" on="1"/>
        <pt x="82" y="614" on="1"/>
        <pt x="378" y="614" on="1"/>
        <pt x="369" y="569" on="1"/>
        <pt x="285" y="546" on="1"/>
        <pt x="241" y="316" on="1"/>
        <pt x="235" y="288" on="0"/>
        <pt x="228" y="228" on="0"/>
        <pt x="228" y="214" on="1"/>
        <pt x="228" y="160" on="0"/>
        <pt x="266" y="117" on="0"/>
        <pt x="311" y="117" on="1"/>
        <pt x="346" y="117" on="0"/>
        <pt x="427" y="164" on="0"/>
        <pt x="450" y="199" on="1"/>
        <pt x="514" y="546" on="1"/>
        <pt x="438" y="569" on="1"/>
        <pt x="447" y="614" on="1"/>
        <pt x="718" y="614" on="1"/>
        <pt x="709" y="569" on="1"/>
        <pt x="625" y="546" on="1"/>
        <pt x="540" y="89" on="1"/>
        <pt x="521" y="-12" on="0"/>
        <pt x="435" y="-125" on="0"/>
        <pt x="316" y="-167" on="0"/>
        <pt x="237" y="-167" on="1"/>
      </contour>
    </TTGlyph>
    <TTGlyph name="Ycircumflex" xMin="42" yMin="0" xMax="586" yMax="795">
      <contour>
        <pt x="351" y="707" on="1"/>
        <pt x="217" y="639" on="1"/>
        <pt x="194" y="669" on="1"/>
        <pt x="322" y="795" on="1"/>
        <pt x="407" y="795" on="1"/>
        <pt x="489" y="665" on="1"/>
        <pt x="459" y="639" on="1"/>
      </contour>
      <contour>
        <pt x="379" y="614" on="1"/>
        <pt x="586" y="614" on="1"/>
        <pt x="577" y="570" on="1"/>
        <pt x="506" y="545" on="1"/>
        <pt x="318" y="256" on="1"/>
        <pt x="282" y="69" on="1"/>
        <pt x="357" y="45" on="1"/>
        <pt x="349" y="0" on="1"/>
        <pt x="53" y="0" on="1"/>
        <pt x="61" y="45" on="1"/>
        <pt x="146" y="69" on="1"/>
        <pt x="185" y="269" on="1"/>
        <pt x="104" y="544" on="1"/>
        <pt x="42" y="568" on="1"/>
        <pt x="51" y="613" on="1"/>
        <pt x="316" y="614" on="1"/>
        <pt x="307" y="567" on="1"/>
        <pt x="239" y="546" on="1"/>
        <pt x="296" y="337" on="1"/>
        <pt x="432" y="548" on="1"/>
        <pt x="370" y="568" on="1"/>
      </contour>
    </TTGlyph>
    <TTGlyph name="Ycircumflex.loclGUA" xMin="36" yMin="-167" xMax="718" yMax="795">
      <contour>
        <pt x="273" y="669" on="1"/>
        <pt x="401" y="795" on="1"/>
        <pt x="486" y="795" on="1"/>
        <pt x="568" y="665" on="1"/>
        <pt x="538" y="639" on="1"/>
        <pt x="430" y="707" on="1"/>
        <pt x="296" y="639" on="1"/>
      </contour>
      <contour>
        <pt x="180" y="-167" on="0"/>
        <pt x="75" y="-142" on="0"/>
        <pt x="36" y="-117" on="1"/>
        <pt x="75" y="27" on="1"/>
        <pt x="127" y="27" on="1"/>
        <pt x="133" y="-53" on="1"/>
        <pt x="155" y="-68" on="0"/>
        <pt x="218" y="-86" on="0"/>
        <pt x="247" y="-86" on="1"/>
        <pt x="332" y="-86" on="0"/>
        <pt x="415" y="0" on="0"/>
        <pt x="430" y="84" on="1"/>
        <pt x="431" y="89" on="1"/>
        <pt x="355" y="42" on="0"/>
        <pt x="264" y="42" on="1"/>
        <pt x="169" y="42" on="0"/>
        <pt x="92" y="123" on="0"/>
        <pt x="92" y="211" on="1"/>
        <pt x="92" y="248" on="0"/>
        <pt x="105" y="317" on="1"/>
        <pt x="149" y="546" on="1"/>
        <pt x="73" y="569" on="1"/>
        <pt x="82" y="614" on="1"/>
        <pt x="378" y="614" on="1"/>
        <pt x="369" y="569" on="1"/>
        <pt x="285" y="546" on="1"/>
        <pt x="241" y="316" on="1"/>
        <pt x="235" y="288" on="0"/>
        <pt x="228" y="228" on="0"/>
        <pt x="228" y="214" on="1"/>
        <pt x="228" y="160" on="0"/>
        <pt x="266" y="117" on="0"/>
        <pt x="311" y="117" on="1"/>
        <pt x="346" y="117" on="0"/>
        <pt x="427" y="164" on="0"/>
        <pt x="450" y="199" on="1"/>
        <pt x="514" y="546" on="1"/>
        <pt x="438" y="569" on="1"/>
        <pt x="447" y="614" on="1"/>
        <pt x="718" y="614" on="1"/>
        <pt x="709" y="569" on="1"/>
        <pt x="625" y="546" on="1"/>
        <pt x="540" y="89" on="1"/>
        <pt x="521" y="-12" on="0"/>
        <pt x="435" y="-125" on="0"/>
        <pt x="316" y="-167" on="0"/>
        <pt x="237" y="-167" on="1"/>
      </contour>
    </TTGlyph>
    <TTGlyph name="Ydieresis" xMin="42" yMin="0" xMax="586" yMax="792">
      <contour>
        <pt x="318" y="688" on="0"/>
        <pt x="275" y="647" on="0"/>
        <pt x="244" y="647" on="1"/>
        <pt x="212" y="647" on="0"/>
        <pt x="166" y="688" on="0"/>
        <pt x="166" y="719" on="1"/>
        <pt x="166" y="749" on="0"/>
        <pt x="213" y="792" on="0"/>
        <pt x="244" y="792" on="1"/>
        <pt x="274" y="792" on="0"/>
        <pt x="318" y="749" on="0"/>
        <pt x="318" y="719" on="1"/>
      </contour>
      <contour>
        <pt x="549" y="688" on="0"/>
        <pt x="505" y="647" on="0"/>
        <pt x="476" y="647" on="1"/>
        <pt x="444" y="647" on="0"/>
        <pt x="399" y="688" on="0"/>
        <pt x="399" y="719" on="1"/>
        <pt x="399" y="750" on="0"/>
        <pt x="444" y="792" on="0"/>
        <pt x="476" y="792" on="1"/>
        <pt x="505" y="792" on="0"/>
        <pt x="549" y="749" on="0"/>
        <pt x="549" y="719" on="1"/>
      </contour>
      <contour>
        <pt x="379" y="614" on="1"/>
        <pt x="586" y="614" on="1"/>
        <pt x="577" y="570" on="1"/>
        <pt x="506" y="545" on="1"/>
        <pt x="318" y="256" on="1"/>
        <pt x="282" y="69" on="1"/>
        <pt x="357" y="45" on="1"/>
        <pt x="349" y="0" on="1"/>
        <pt x="53" y="0" on="1"/>
        <pt x="61" y="45" on="1"/>
        <pt x="146" y="69" on="1"/>
        <pt x="185" y="269" on="1"/>
        <pt x="104" y="544" on="1"/>
        <pt x="42" y="568" on="1"/>
        <pt x="51" y="613" on="1"/>
        <pt x="316" y="614" on="1"/>
        <pt x="307" y="567" on="1"/>
        <pt x="239" y="546" on="1"/>
        <pt x="296" y="337" on="1"/>
        <pt x="432" y="548" on="1"/>
        <pt x="370" y="568" on="1"/>
      </contour>
    </TTGlyph>
    <TTGlyph name="Ydieresis.loclGUA" xMin="36" yMin="-167" xMax="718" yMax="792">
      <contour>
        <pt x="275" y="647" on="0"/>
        <pt x="229" y="688" on="0"/>
        <pt x="229" y="719" on="1"/>
        <pt x="229" y="749" on="0"/>
        <pt x="276" y="792" on="0"/>
        <pt x="307" y="792" on="1"/>
        <pt x="337" y="792" on="0"/>
        <pt x="381" y="749" on="0"/>
        <pt x="381" y="719" on="1"/>
        <pt x="381" y="688" on="0"/>
        <pt x="338" y="647" on="0"/>
        <pt x="307" y="647" on="1"/>
      </contour>
      <contour>
        <pt x="507" y="647" on="0"/>
        <pt x="462" y="688" on="0"/>
        <pt x="462" y="719" on="1"/>
        <pt x="462" y="750" on="0"/>
        <pt x="507" y="792" on="0"/>
        <pt x="539" y="792" on="1"/>
        <pt x="568" y="792" on="0"/>
        <pt x="612" y="749" on="0"/>
        <pt x="612" y="719" on="1"/>
        <pt x="612" y="688" on="0"/>
        <pt x="568" y="647" on="0"/>
        <pt x="539" y="647" on="1"/>
      </contour>
      <contour>
        <pt x="180" y="-167" on="0"/>
        <pt x="75" y="-142" on="0"/>
        <pt x="36" y="-117" on="1"/>
        <pt x="75" y="27" on="1"/>
        <pt x="127" y="27" on="1"/>
        <pt x="133" y="-53" on="1"/>
        <pt x="155" y="-68" on="0"/>
        <pt x="218" y="-86" on="0"/>
        <pt x="247" y="-86" on="1"/>
        <pt x="332" y="-86" on="0"/>
        <pt x="415" y="0" on="0"/>
        <pt x="430" y="84" on="1"/>
        <pt x="431" y="89" on="1"/>
        <pt x="355" y="42" on="0"/>
        <pt x="264" y="42" on="1"/>
        <pt x="169" y="42" on="0"/>
        <pt x="92" y="123" on="0"/>
        <pt x="92" y="211" on="1"/>
        <pt x="92" y="248" on="0"/>
        <pt x="105" y="317" on="1"/>
        <pt x="149" y="546" on="1"/>
        <pt x="73" y="569" on="1"/>
        <pt x="82" y="614" on="1"/>
        <pt x="378" y="614" on="1"/>
        <pt x="369" y="569" on="1"/>
        <pt x="285" y="546" on="1"/>
        <pt x="241" y="316" on="1"/>
        <pt x="235" y="288" on="0"/>
        <pt x="228" y="228" on="0"/>
        <pt x="228" y="214" on="1"/>
        <pt x="228" y="160" on="0"/>
        <pt x="266" y="117" on="0"/>
        <pt x="311" y="117" on="1"/>
        <pt x="346" y="117" on="0"/>
        <pt x="427" y="164" on="0"/>
        <pt x="450" y="199" on="1"/>
        <pt x="514" y="546" on="1"/>
        <pt x="438" y="569" on="1"/>
        <pt x="447" y="614" on="1"/>
        <pt x="718" y="614" on="1"/>
        <pt x="709" y="569" on="1"/>
        <pt x="625" y="546" on="1"/>
        <pt x="540" y="89" on="1"/>
        <pt x="521" y="-12" on="0"/>
        <pt x="435" y="-125" on="0"/>
        <pt x="316" y="-167" on="0"/>
        <pt x="237" y="-167" on="1"/>
      </contour>
    </TTGlyph>
    <TTGlyph name="Ygrave" xMin="42" yMin="0" xMax="586" yMax="800">
      <contour>
        <pt x="181" y="743" on="1"/>
        <pt x="185" y="766" on="1"/>
        <pt x="282" y="800" on="1"/>
        <pt x="436" y="669" on="1"/>
        <pt x="413" y="634" on="1"/>
      </contour>
      <contour>
        <pt x="61" y="45" on="1"/>
        <pt x="146" y="69" on="1"/>
        <pt x="185" y="269" on="1"/>
        <pt x="104" y="544" on="1"/>
        <pt x="42" y="568" on="1"/>
        <pt x="51" y="613" on="1"/>
        <pt x="316" y="614" on="1"/>
        <pt x="307" y="567" on="1"/>
        <pt x="239" y="546" on="1"/>
        <pt x="296" y="337" on="1"/>
        <pt x="432" y="548" on="1"/>
        <pt x="370" y="568" on="1"/>
        <pt x="379" y="614" on="1"/>
        <pt x="586" y="614" on="1"/>
        <pt x="577" y="570" on="1"/>
        <pt x="506" y="545" on="1"/>
        <pt x="318" y="256" on="1"/>
        <pt x="282" y="69" on="1"/>
        <pt x="357" y="45" on="1"/>
        <pt x="349" y="0" on="1"/>
        <pt x="53" y="0" on="1"/>
      </contour>
    </TTGlyph>
    <TTGlyph name="Ygrave.loclGUA" xMin="36" yMin="-167" xMax="718" yMax="800">
      <contour>
        <pt x="252" y="743" on="1"/>
        <pt x="256" y="766" on="1"/>
        <pt x="353" y="800" on="1"/>
        <pt x="507" y="669" on="1"/>
        <pt x="484" y="634" on="1"/>
      </contour>
      <contour>
        <pt x="180" y="-167" on="0"/>
        <pt x="75" y="-142" on="0"/>
        <pt x="36" y="-117" on="1"/>
        <pt x="75" y="27" on="1"/>
        <pt x="127" y="27" on="1"/>
        <pt x="133" y="-53" on="1"/>
        <pt x="155" y="-68" on="0"/>
        <pt x="218" y="-86" on="0"/>
        <pt x="247" y="-86" on="1"/>
        <pt x="332" y="-86" on="0"/>
        <pt x="415" y="0" on="0"/>
        <pt x="430" y="84" on="1"/>
        <pt x="431" y="89" on="1"/>
        <pt x="355" y="42" on="0"/>
        <pt x="264" y="42" on="1"/>
        <pt x="169" y="42" on="0"/>
        <pt x="92" y="123" on="0"/>
        <pt x="92" y="211" on="1"/>
        <pt x="92" y="248" on="0"/>
        <pt x="105" y="317" on="1"/>
        <pt x="149" y="546" on="1"/>
        <pt x="73" y="569" on="1"/>
        <pt x="82" y="614" on="1"/>
        <pt x="378" y="614" on="1"/>
        <pt x="369" y="569" on="1"/>
        <pt x="285" y="546" on="1"/>
        <pt x="241" y="316" on="1"/>
        <pt x="235" y="288" on="0"/>
        <pt x="228" y="228" on="0"/>
        <pt x="228" y="214" on="1"/>
        <pt x="228" y="160" on="0"/>
        <pt x="266" y="117" on="0"/>
        <pt x="311" y="117" on="1"/>
        <pt x="346" y="117" on="0"/>
        <pt x="427" y="164" on="0"/>
        <pt x="450" y="199" on="1"/>
        <pt x="514" y="546" on="1"/>
        <pt x="438" y="569" on="1"/>
        <pt x="447" y="614" on="1"/>
        <pt x="718" y="614" on="1"/>
        <pt x="709" y="569" on="1"/>
        <pt x="625" y="546" on="1"/>
        <pt x="540" y="89" on="1"/>
        <pt x="521" y="-12" on="0"/>
        <pt x="435" y="-125" on="0"/>
        <pt x="316" y="-167" on="0"/>
        <pt x="237" y="-167" on="1"/>
      </contour>
    </TTGlyph>
    <TTGlyph name="Z" xMin="-39" yMin="0" xMax="522" yMax="614">
      <contour>
        <pt x="402" y="0" on="1"/>
        <pt x="-29" y="0" on="1"/>
        <pt x="-39" y="33" on="1"/>
        <pt x="349" y="546" on="1"/>
        <pt x="162" y="546" on="1"/>
        <pt x="125" y="468" on="1"/>
        <pt x="70" y="468" on="1"/>
        <pt x="89" y="614" on="1"/>
        <pt x="522" y="614" on="1"/>
        <pt x="522" y="581" on="1"/>
        <pt x="134" y="69" on="1"/>
        <pt x="334" y="69" on="1"/>
        <pt x="388" y="162" on="1"/>
        <pt x="441" y="162" on="1"/>
      </contour>
    </TTGlyph>
    <TTGlyph name="Zacute" xMin="-39" yMin="0" xMax="522" yMax="800">
      <contour>
        <pt x="205" y="669" on="1"/>
        <pt x="361" y="800" on="1"/>
        <pt x="460" y="766" on="1"/>
        <pt x="460" y="743" on="1"/>
        <pt x="232" y="634" on="1"/>
      </contour>
      <contour>
        <pt x="402" y="0" on="1"/>
        <pt x="-29" y="0" on="1"/>
        <pt x="-39" y="33" on="1"/>
        <pt x="349" y="546" on="1"/>
        <pt x="162" y="546" on="1"/>
        <pt x="125" y="468" on="1"/>
        <pt x="70" y="468" on="1"/>
        <pt x="89" y="614" on="1"/>
        <pt x="522" y="614" on="1"/>
        <pt x="522" y="581" on="1"/>
        <pt x="134" y="69" on="1"/>
        <pt x="334" y="69" on="1"/>
        <pt x="388" y="162" on="1"/>
        <pt x="441" y="162" on="1"/>
      </contour>
    </TTGlyph>
    <TTGlyph name="Zacute.loclPLK" xMin="-39" yMin="0" xMax="522" yMax="814">
      <component glyphName=".ttfautohint" x="0" y="0" flags="0x0"/>
      <component glyphName="Z" x="0" y="0" flags="0x0"/>
      <component glyphName="acute.loclPLK.case" x="143" y="0" flags="0x0"/>
    </TTGlyph>
    <TTGlyph name="Zcaron" xMin="-39" yMin="0" xMax="522" yMax="795">
      <contour>
        <pt x="322" y="727" on="1"/>
        <pt x="456" y="795" on="1"/>
        <pt x="479" y="765" on="1"/>
        <pt x="351" y="639" on="1"/>
        <pt x="266" y="639" on="1"/>
        <pt x="184" y="769" on="1"/>
        <pt x="214" y="795" on="1"/>
      </contour>
      <contour>
        <pt x="402" y="0" on="1"/>
        <pt x="-29" y="0" on="1"/>
        <pt x="-39" y="33" on="1"/>
        <pt x="349" y="546" on="1"/>
        <pt x="162" y="546" on="1"/>
        <pt x="125" y="468" on="1"/>
        <pt x="70" y="468" on="1"/>
        <pt x="89" y="614" on="1"/>
        <pt x="522" y="614" on="1"/>
        <pt x="522" y="581" on="1"/>
        <pt x="134" y="69" on="1"/>
        <pt x="334" y="69" on="1"/>
        <pt x="388" y="162" on="1"/>
        <pt x="441" y="162" on="1"/>
      </contour>
    </TTGlyph>
    <TTGlyph name="Zdotaccent" xMin="-39" yMin="0" xMax="522" yMax="799">
      <contour>
        <pt x="391" y="681" on="0"/>
        <pt x="343" y="635" on="0"/>
        <pt x="309" y="635" on="1"/>
        <pt x="275" y="635" on="0"/>
        <pt x="223" y="682" on="0"/>
        <pt x="223" y="715" on="1"/>
        <pt x="223" y="749" on="0"/>
        <pt x="275" y="799" on="0"/>
        <pt x="309" y="799" on="1"/>
        <pt x="343" y="799" on="0"/>
        <pt x="391" y="749" on="0"/>
        <pt x="391" y="715" on="1"/>
      </contour>
      <contour>
        <pt x="402" y="0" on="1"/>
        <pt x="-29" y="0" on="1"/>
        <pt x="-39" y="33" on="1"/>
        <pt x="349" y="546" on="1"/>
        <pt x="162" y="546" on="1"/>
        <pt x="125" y="468" on="1"/>
        <pt x="70" y="468" on="1"/>
        <pt x="89" y="614" on="1"/>
        <pt x="522" y="614" on="1"/>
        <pt x="522" y="581" on="1"/>
        <pt x="134" y="69" on="1"/>
        <pt x="334" y="69" on="1"/>
        <pt x="388" y="162" on="1"/>
        <pt x="441" y="162" on="1"/>
      </contour>
    </TTGlyph>
    <TTGlyph name="a" xMin="32" yMin="-10" xMax="505" yMax="533">
      <contour>
        <pt x="435" y="155" on="0"/>
        <pt x="430" y="69" on="0"/>
        <pt x="429" y="66" on="1"/>
        <pt x="503" y="66" on="1"/>
        <pt x="503" y="18" on="1"/>
        <pt x="434" y="-10" on="0"/>
        <pt x="362" y="-10" on="1"/>
        <pt x="331" y="-10" on="0"/>
        <pt x="295" y="16" on="0"/>
        <pt x="295" y="43" on="1"/>
        <pt x="295" y="55" on="0"/>
        <pt x="298" y="82" on="0"/>
        <pt x="299" y="87" on="1"/>
        <pt x="270" y="42" on="0"/>
        <pt x="201" y="-9" on="0"/>
        <pt x="164" y="-9" on="1"/>
        <pt x="32" y="-9" on="0"/>
        <pt x="32" y="143" on="1"/>
        <pt x="32" y="252" on="0"/>
        <pt x="107" y="422" on="0"/>
        <pt x="234" y="515" on="0"/>
        <pt x="310" y="515" on="1"/>
        <pt x="331" y="515" on="0"/>
        <pt x="373" y="508" on="0"/>
        <pt x="400" y="501" on="0"/>
        <pt x="404" y="500" on="1"/>
        <pt x="437" y="533" on="1"/>
        <pt x="505" y="523" on="1"/>
        <pt x="446" y="215" on="1"/>
      </contour>
      <contour>
        <pt x="224" y="73" on="0"/>
        <pt x="286" y="127" on="0"/>
        <pt x="304" y="155" on="1"/>
        <pt x="308" y="173" on="0"/>
        <pt x="325" y="259" on="0"/>
        <pt x="333" y="302" on="1"/>
        <pt x="360" y="437" on="1"/>
        <pt x="334" y="448" on="0"/>
        <pt x="309" y="448" on="1"/>
        <pt x="265" y="448" on="0"/>
        <pt x="201" y="367" on="0"/>
        <pt x="167" y="229" on="0"/>
        <pt x="167" y="145" on="1"/>
        <pt x="167" y="106" on="0"/>
        <pt x="184" y="73" on="0"/>
        <pt x="201" y="73" on="1"/>
      </contour>
    </TTGlyph>
    <TTGlyph name="aacute" xMin="32" yMin="-10" xMax="505" yMax="742">
      <component glyphName=".ttfautohint" x="32" y="0" flags="0x0"/>
      <component glyphName="a" x="0" y="0" flags="0x0"/>
      <component glyphName="acute" x="153" y="0" flags="0x0"/>
    </TTGlyph>
    <TTGlyph name="abreve" xMin="32" yMin="-10" xMax="505" yMax="728">
      <contour>
        <pt x="264" y="591" on="0"/>
        <pt x="216" y="640" on="0"/>
        <pt x="216" y="680" on="1"/>
        <pt x="216" y="703" on="0"/>
        <pt x="225" y="728" on="1"/>
        <pt x="281" y="728" on="1"/>
        <pt x="279" y="718" on="0"/>
        <pt x="279" y="710" on="1"/>
        <pt x="279" y="689" on="0"/>
        <pt x="299" y="667" on="0"/>
        <pt x="331" y="667" on="1"/>
        <pt x="374" y="667" on="0"/>
        <pt x="405" y="698" on="0"/>
        <pt x="413" y="728" on="1"/>
        <pt x="467" y="728" on="1"/>
        <pt x="454" y="665" on="0"/>
        <pt x="389" y="591" on="0"/>
        <pt x="319" y="591" on="1"/>
      </contour>
      <contour>
        <pt x="435" y="155" on="0"/>
        <pt x="430" y="69" on="0"/>
        <pt x="429" y="66" on="1"/>
        <pt x="503" y="66" on="1"/>
        <pt x="503" y="18" on="1"/>
        <pt x="434" y="-10" on="0"/>
        <pt x="362" y="-10" on="1"/>
        <pt x="331" y="-10" on="0"/>
        <pt x="295" y="16" on="0"/>
        <pt x="295" y="43" on="1"/>
        <pt x="295" y="55" on="0"/>
        <pt x="298" y="82" on="0"/>
        <pt x="299" y="87" on="1"/>
        <pt x="270" y="42" on="0"/>
        <pt x="201" y="-9" on="0"/>
        <pt x="164" y="-9" on="1"/>
        <pt x="32" y="-9" on="0"/>
        <pt x="32" y="143" on="1"/>
        <pt x="32" y="252" on="0"/>
        <pt x="107" y="422" on="0"/>
        <pt x="234" y="515" on="0"/>
        <pt x="310" y="515" on="1"/>
        <pt x="331" y="515" on="0"/>
        <pt x="373" y="508" on="0"/>
        <pt x="400" y="501" on="0"/>
        <pt x="404" y="500" on="1"/>
        <pt x="437" y="533" on="1"/>
        <pt x="505" y="523" on="1"/>
        <pt x="446" y="215" on="1"/>
      </contour>
      <contour>
        <pt x="224" y="73" on="0"/>
        <pt x="286" y="127" on="0"/>
        <pt x="304" y="155" on="1"/>
        <pt x="308" y="173" on="0"/>
        <pt x="325" y="259" on="0"/>
        <pt x="333" y="302" on="1"/>
        <pt x="360" y="437" on="1"/>
        <pt x="334" y="448" on="0"/>
        <pt x="309" y="448" on="1"/>
        <pt x="265" y="448" on="0"/>
        <pt x="201" y="367" on="0"/>
        <pt x="167" y="229" on="0"/>
        <pt x="167" y="145" on="1"/>
        <pt x="167" y="106" on="0"/>
        <pt x="184" y="73" on="0"/>
        <pt x="201" y="73" on="1"/>
      </contour>
    </TTGlyph>
    <TTGlyph name="acircumflex" xMin="32" yMin="-10" xMax="505" yMax="741">
      <contour>
        <pt x="345" y="653" on="1"/>
        <pt x="221" y="575" on="1"/>
        <pt x="192" y="606" on="1"/>
        <pt x="316" y="741" on="1"/>
        <pt x="401" y="741" on="1"/>
        <pt x="471" y="598" on="1"/>
        <pt x="432" y="575" on="1"/>
      </contour>
      <contour>
        <pt x="435" y="155" on="0"/>
        <pt x="430" y="69" on="0"/>
        <pt x="429" y="66" on="1"/>
        <pt x="503" y="66" on="1"/>
        <pt x="503" y="18" on="1"/>
        <pt x="434" y="-10" on="0"/>
        <pt x="362" y="-10" on="1"/>
        <pt x="331" y="-10" on="0"/>
        <pt x="295" y="16" on="0"/>
        <pt x="295" y="43" on="1"/>
        <pt x="295" y="55" on="0"/>
        <pt x="298" y="82" on="0"/>
        <pt x="299" y="87" on="1"/>
        <pt x="270" y="42" on="0"/>
        <pt x="201" y="-9" on="0"/>
        <pt x="164" y="-9" on="1"/>
        <pt x="32" y="-9" on="0"/>
        <pt x="32" y="143" on="1"/>
        <pt x="32" y="252" on="0"/>
        <pt x="107" y="422" on="0"/>
        <pt x="234" y="515" on="0"/>
        <pt x="310" y="515" on="1"/>
        <pt x="331" y="515" on="0"/>
        <pt x="373" y="508" on="0"/>
        <pt x="400" y="501" on="0"/>
        <pt x="404" y="500" on="1"/>
        <pt x="437" y="533" on="1"/>
        <pt x="505" y="523" on="1"/>
        <pt x="446" y="215" on="1"/>
      </contour>
      <contour>
        <pt x="224" y="73" on="0"/>
        <pt x="286" y="127" on="0"/>
        <pt x="304" y="155" on="1"/>
        <pt x="308" y="173" on="0"/>
        <pt x="325" y="259" on="0"/>
        <pt x="333" y="302" on="1"/>
        <pt x="360" y="437" on="1"/>
        <pt x="334" y="448" on="0"/>
        <pt x="309" y="448" on="1"/>
        <pt x="265" y="448" on="0"/>
        <pt x="201" y="367" on="0"/>
        <pt x="167" y="229" on="0"/>
        <pt x="167" y="145" on="1"/>
        <pt x="167" y="106" on="0"/>
        <pt x="184" y="73" on="0"/>
        <pt x="201" y="73" on="1"/>
      </contour>
    </TTGlyph>
    <TTGlyph name="acute" xMin="78" yMin="576" xMax="333" yMax="742">
      <contour>
        <pt x="78" y="611" on="1"/>
        <pt x="234" y="742" on="1"/>
        <pt x="333" y="708" on="1"/>
        <pt x="333" y="685" on="1"/>
        <pt x="105" y="576" on="1"/>
      </contour>
    </TTGlyph>
    <TTGlyph name="acute.case" xMin="89" yMin="634" xMax="344" yMax="800">
      <contour>
        <pt x="89" y="669" on="1"/>
        <pt x="245" y="800" on="1"/>
        <pt x="344" y="766" on="1"/>
        <pt x="344" y="743" on="1"/>
        <pt x="116" y="634" on="1"/>
      </contour>
    </TTGlyph>
    <TTGlyph name="acute.loclPLK" xMin="124" yMin="564" xMax="308" yMax="747">
      <contour>
        <pt x="124" y="587" on="1"/>
        <pt x="216" y="747" on="1"/>
        <pt x="308" y="747" on="1"/>
        <pt x="308" y="725" on="1"/>
        <pt x="155" y="564" on="1"/>
      </contour>
    </TTGlyph>
    <TTGlyph name="acute.loclPLK.case" xMin="115" yMin="631" xMax="299" yMax="814">
      <contour>
        <pt x="115" y="654" on="1"/>
        <pt x="207" y="814" on="1"/>
        <pt x="299" y="814" on="1"/>
        <pt x="299" y="792" on="1"/>
        <pt x="146" y="631" on="1"/>
      </contour>
    </TTGlyph>
    <TTGlyph name="acutecomb" xMin="-166" yMin="634" xMax="89" yMax="800">
      <contour>
        <pt x="-166" y="669" on="1"/>
        <pt x="-10" y="800" on="1"/>
        <pt x="89" y="766" on="1"/>
        <pt x="89" y="743" on="1"/>
        <pt x="-139" y="634" on="1"/>
      </contour>
    </TTGlyph>
    <TTGlyph name="adieresis" xMin="32" yMin="-10" xMax="509" yMax="730">
      <contour>
        <pt x="278" y="626" on="0"/>
        <pt x="235" y="585" on="0"/>
        <pt x="204" y="585" on="1"/>
        <pt x="172" y="585" on="0"/>
        <pt x="126" y="626" on="0"/>
        <pt x="126" y="657" on="1"/>
        <pt x="126" y="687" on="0"/>
        <pt x="173" y="730" on="0"/>
        <pt x="204" y="730" on="1"/>
        <pt x="234" y="730" on="0"/>
        <pt x="278" y="687" on="0"/>
        <pt x="278" y="657" on="1"/>
      </contour>
      <contour>
        <pt x="509" y="626" on="0"/>
        <pt x="465" y="585" on="0"/>
        <pt x="436" y="585" on="1"/>
        <pt x="404" y="585" on="0"/>
        <pt x="359" y="626" on="0"/>
        <pt x="359" y="657" on="1"/>
        <pt x="359" y="688" on="0"/>
        <pt x="404" y="730" on="0"/>
        <pt x="436" y="730" on="1"/>
        <pt x="465" y="730" on="0"/>
        <pt x="509" y="687" on="0"/>
        <pt x="509" y="657" on="1"/>
      </contour>
      <contour>
        <pt x="435" y="155" on="0"/>
        <pt x="430" y="69" on="0"/>
        <pt x="429" y="66" on="1"/>
        <pt x="503" y="66" on="1"/>
        <pt x="503" y="18" on="1"/>
        <pt x="434" y="-10" on="0"/>
        <pt x="362" y="-10" on="1"/>
        <pt x="331" y="-10" on="0"/>
        <pt x="295" y="16" on="0"/>
        <pt x="295" y="43" on="1"/>
        <pt x="295" y="55" on="0"/>
        <pt x="298" y="82" on="0"/>
        <pt x="299" y="87" on="1"/>
        <pt x="270" y="42" on="0"/>
        <pt x="201" y="-9" on="0"/>
        <pt x="164" y="-9" on="1"/>
        <pt x="32" y="-9" on="0"/>
        <pt x="32" y="143" on="1"/>
        <pt x="32" y="252" on="0"/>
        <pt x="107" y="422" on="0"/>
        <pt x="234" y="515" on="0"/>
        <pt x="310" y="515" on="1"/>
        <pt x="331" y="515" on="0"/>
        <pt x="373" y="508" on="0"/>
        <pt x="400" y="501" on="0"/>
        <pt x="404" y="500" on="1"/>
        <pt x="437" y="533" on="1"/>
        <pt x="505" y="523" on="1"/>
        <pt x="446" y="215" on="1"/>
      </contour>
      <contour>
        <pt x="224" y="73" on="0"/>
        <pt x="286" y="127" on="0"/>
        <pt x="304" y="155" on="1"/>
        <pt x="308" y="173" on="0"/>
        <pt x="325" y="259" on="0"/>
        <pt x="333" y="302" on="1"/>
        <pt x="360" y="437" on="1"/>
        <pt x="334" y="448" on="0"/>
        <pt x="309" y="448" on="1"/>
        <pt x="265" y="448" on="0"/>
        <pt x="201" y="367" on="0"/>
        <pt x="167" y="229" on="0"/>
        <pt x="167" y="145" on="1"/>
        <pt x="167" y="106" on="0"/>
        <pt x="184" y="73" on="0"/>
        <pt x="201" y="73" on="1"/>
      </contour>
    </TTGlyph>
    <TTGlyph name="ae" xMin="30" yMin="-10" xMax="730" yMax="533">
      <contour>
        <pt x="349" y="-10" on="0"/>
        <pt x="322" y="98" on="1"/>
        <pt x="276" y="43" on="0"/>
        <pt x="198" y="-9" on="0"/>
        <pt x="162" y="-9" on="1"/>
        <pt x="30" y="-9" on="0"/>
        <pt x="30" y="143" on="1"/>
        <pt x="30" y="252" on="0"/>
        <pt x="105" y="422" on="0"/>
        <pt x="232" y="515" on="0"/>
        <pt x="308" y="515" on="1"/>
        <pt x="329" y="515" on="0"/>
        <pt x="371" y="508" on="0"/>
        <pt x="398" y="501" on="0"/>
        <pt x="402" y="500" on="1"/>
        <pt x="435" y="533" on="1"/>
        <pt x="488" y="520" on="1"/>
        <pt x="478" y="477" on="1"/>
        <pt x="497" y="492" on="0"/>
        <pt x="572" y="515" on="0"/>
        <pt x="603" y="515" on="1"/>
        <pt x="662" y="515" on="0"/>
        <pt x="730" y="465" on="0"/>
        <pt x="730" y="416" on="1"/>
        <pt x="730" y="330" on="0"/>
        <pt x="585" y="234" on="0"/>
        <pt x="451" y="234" on="1"/>
        <pt x="447" y="203" on="0"/>
        <pt x="447" y="172" on="1"/>
        <pt x="447" y="120" on="0"/>
        <pt x="486" y="67" on="0"/>
        <pt x="532" y="67" on="1"/>
        <pt x="589" y="67" on="0"/>
        <pt x="637" y="85" on="1"/>
        <pt x="649" y="36" on="1"/>
        <pt x="618" y="16" on="0"/>
        <pt x="536" y="-10" on="0"/>
        <pt x="474" y="-10" on="1"/>
      </contour>
      <contour>
        <pt x="222" y="73" on="0"/>
        <pt x="285" y="125" on="0"/>
        <pt x="302" y="152" on="1"/>
        <pt x="326" y="272" on="1"/>
        <pt x="354" y="426" on="0"/>
        <pt x="358" y="437" on="1"/>
        <pt x="332" y="448" on="0"/>
        <pt x="307" y="448" on="1"/>
        <pt x="263" y="448" on="0"/>
        <pt x="199" y="367" on="0"/>
        <pt x="165" y="229" on="0"/>
        <pt x="165" y="145" on="1"/>
        <pt x="165" y="106" on="0"/>
        <pt x="182" y="73" on="0"/>
        <pt x="199" y="73" on="1"/>
      </contour>
      <contour>
        <pt x="528" y="289" on="0"/>
        <pt x="614" y="350" on="0"/>
        <pt x="614" y="403" on="1"/>
        <pt x="614" y="422" on="0"/>
        <pt x="597" y="444" on="0"/>
        <pt x="574" y="444" on="1"/>
        <pt x="532" y="444" on="0"/>
        <pt x="471" y="362" on="0"/>
        <pt x="458" y="289" on="1"/>
      </contour>
    </TTGlyph>
    <TTGlyph name="aeacute" xMin="30" yMin="-10" xMax="730" yMax="742">
      <component glyphName=".ttfautohint" x="30" y="0" flags="0x0"/>
      <component glyphName="ae" x="0" y="0" flags="0x0"/>
      <component glyphName="acute" x="238" y="0" flags="0x0"/>
    </TTGlyph>
    <TTGlyph name="agrave" xMin="32" yMin="-10" xMax="505" yMax="744">
      <contour>
        <pt x="180" y="687" on="1"/>
        <pt x="184" y="710" on="1"/>
        <pt x="281" y="744" on="1"/>
        <pt x="435" y="613" on="1"/>
        <pt x="412" y="578" on="1"/>
      </contour>
      <contour>
        <pt x="435" y="155" on="0"/>
        <pt x="430" y="69" on="0"/>
        <pt x="429" y="66" on="1"/>
        <pt x="503" y="66" on="1"/>
        <pt x="503" y="18" on="1"/>
        <pt x="434" y="-10" on="0"/>
        <pt x="362" y="-10" on="1"/>
        <pt x="331" y="-10" on="0"/>
        <pt x="295" y="16" on="0"/>
        <pt x="295" y="43" on="1"/>
        <pt x="295" y="55" on="0"/>
        <pt x="298" y="82" on="0"/>
        <pt x="299" y="87" on="1"/>
        <pt x="270" y="42" on="0"/>
        <pt x="201" y="-9" on="0"/>
        <pt x="164" y="-9" on="1"/>
        <pt x="32" y="-9" on="0"/>
        <pt x="32" y="143" on="1"/>
        <pt x="32" y="252" on="0"/>
        <pt x="107" y="422" on="0"/>
        <pt x="234" y="515" on="0"/>
        <pt x="310" y="515" on="1"/>
        <pt x="331" y="515" on="0"/>
        <pt x="373" y="508" on="0"/>
        <pt x="400" y="501" on="0"/>
        <pt x="404" y="500" on="1"/>
        <pt x="437" y="533" on="1"/>
        <pt x="505" y="523" on="1"/>
        <pt x="446" y="215" on="1"/>
      </contour>
      <contour>
        <pt x="224" y="73" on="0"/>
        <pt x="286" y="127" on="0"/>
        <pt x="304" y="155" on="1"/>
        <pt x="308" y="173" on="0"/>
        <pt x="325" y="259" on="0"/>
        <pt x="333" y="302" on="1"/>
        <pt x="360" y="437" on="1"/>
        <pt x="334" y="448" on="0"/>
        <pt x="309" y="448" on="1"/>
        <pt x="265" y="448" on="0"/>
        <pt x="201" y="367" on="0"/>
        <pt x="167" y="229" on="0"/>
        <pt x="167" y="145" on="1"/>
        <pt x="167" y="106" on="0"/>
        <pt x="184" y="73" on="0"/>
        <pt x="201" y="73" on="1"/>
      </contour>
    </TTGlyph>
    <TTGlyph name="amacron" xMin="32" yMin="-10" xMax="505" yMax="697">
      <contour>
        <pt x="457" y="697" on="1"/>
        <pt x="446" y="618" on="1"/>
        <pt x="205" y="618" on="1"/>
        <pt x="216" y="697" on="1"/>
      </contour>
      <contour>
        <pt x="435" y="155" on="0"/>
        <pt x="430" y="69" on="0"/>
        <pt x="429" y="66" on="1"/>
        <pt x="503" y="66" on="1"/>
        <pt x="503" y="18" on="1"/>
        <pt x="434" y="-10" on="0"/>
        <pt x="362" y="-10" on="1"/>
        <pt x="331" y="-10" on="0"/>
        <pt x="295" y="16" on="0"/>
        <pt x="295" y="43" on="1"/>
        <pt x="295" y="55" on="0"/>
        <pt x="298" y="82" on="0"/>
        <pt x="299" y="87" on="1"/>
        <pt x="270" y="42" on="0"/>
        <pt x="201" y="-9" on="0"/>
        <pt x="164" y="-9" on="1"/>
        <pt x="32" y="-9" on="0"/>
        <pt x="32" y="143" on="1"/>
        <pt x="32" y="252" on="0"/>
        <pt x="107" y="422" on="0"/>
        <pt x="234" y="515" on="0"/>
        <pt x="310" y="515" on="1"/>
        <pt x="331" y="515" on="0"/>
        <pt x="373" y="508" on="0"/>
        <pt x="400" y="501" on="0"/>
        <pt x="404" y="500" on="1"/>
        <pt x="437" y="533" on="1"/>
        <pt x="505" y="523" on="1"/>
        <pt x="446" y="215" on="1"/>
      </contour>
      <contour>
        <pt x="224" y="73" on="0"/>
        <pt x="286" y="127" on="0"/>
        <pt x="304" y="155" on="1"/>
        <pt x="308" y="173" on="0"/>
        <pt x="325" y="259" on="0"/>
        <pt x="333" y="302" on="1"/>
        <pt x="360" y="437" on="1"/>
        <pt x="334" y="448" on="0"/>
        <pt x="309" y="448" on="1"/>
        <pt x="265" y="448" on="0"/>
        <pt x="201" y="367" on="0"/>
        <pt x="167" y="229" on="0"/>
        <pt x="167" y="145" on="1"/>
        <pt x="167" y="106" on="0"/>
        <pt x="184" y="73" on="0"/>
        <pt x="201" y="73" on="1"/>
      </contour>
    </TTGlyph>
    <TTGlyph name="ampersand" xMin="20" yMin="-12" xMax="588" yMax="629">
      <contour>
        <pt x="470" y="36" on="1"/>
        <pt x="365" y="-12" on="0"/>
        <pt x="231" y="-12" on="1"/>
        <pt x="134" y="-12" on="0"/>
        <pt x="20" y="74" on="0"/>
        <pt x="20" y="153" on="1"/>
        <pt x="20" y="202" on="0"/>
        <pt x="70" y="290" on="0"/>
        <pt x="160" y="353" on="0"/>
        <pt x="219" y="365" on="1"/>
        <pt x="185" y="382" on="0"/>
        <pt x="143" y="437" on="0"/>
        <pt x="143" y="476" on="1"/>
        <pt x="143" y="528" on="0"/>
        <pt x="207" y="597" on="0"/>
        <pt x="307" y="629" on="0"/>
        <pt x="362" y="629" on="1"/>
        <pt x="446" y="629" on="0"/>
        <pt x="534" y="597" on="1"/>
        <pt x="500" y="448" on="1"/>
        <pt x="436" y="448" on="1"/>
        <pt x="432" y="535" on="1"/>
        <pt x="393" y="549" on="0"/>
        <pt x="353" y="549" on="1"/>
        <pt x="315" y="549" on="0"/>
        <pt x="275" y="505" on="0"/>
        <pt x="275" y="469" on="1"/>
        <pt x="275" y="430" on="0"/>
        <pt x="311" y="390" on="0"/>
        <pt x="356" y="380" on="1"/>
        <pt x="356" y="317" on="1"/>
        <pt x="286" y="313" on="0"/>
        <pt x="199" y="284" on="0"/>
        <pt x="154" y="216" on="0"/>
        <pt x="154" y="155" on="1"/>
        <pt x="154" y="108" on="0"/>
        <pt x="216" y="62" on="0"/>
        <pt x="266" y="62" on="1"/>
        <pt x="313" y="62" on="0"/>
        <pt x="364" y="79" on="1"/>
        <pt x="388" y="201" on="1"/>
        <pt x="324" y="205" on="1"/>
        <pt x="317" y="273" on="1"/>
        <pt x="588" y="273" on="1"/>
        <pt x="588" y="191" on="1"/>
        <pt x="500" y="195" on="1"/>
      </contour>
    </TTGlyph>
    <TTGlyph name="aogonek" xMin="32" yMin="-236" xMax="505" yMax="533">
      <contour>
        <pt x="338" y="-236" on="0"/>
        <pt x="295" y="-193" on="0"/>
        <pt x="295" y="-160" on="1"/>
        <pt x="295" y="-87" on="0"/>
        <pt x="394" y="-8" on="1"/>
        <pt x="372" y="-10" on="0"/>
        <pt x="362" y="-10" on="1"/>
        <pt x="331" y="-10" on="0"/>
        <pt x="295" y="16" on="0"/>
        <pt x="295" y="43" on="1"/>
        <pt x="295" y="55" on="0"/>
        <pt x="298" y="82" on="0"/>
        <pt x="299" y="87" on="1"/>
        <pt x="270" y="42" on="0"/>
        <pt x="201" y="-9" on="0"/>
        <pt x="164" y="-9" on="1"/>
        <pt x="32" y="-9" on="0"/>
        <pt x="32" y="143" on="1"/>
        <pt x="32" y="252" on="0"/>
        <pt x="107" y="422" on="0"/>
        <pt x="234" y="515" on="0"/>
        <pt x="310" y="515" on="1"/>
        <pt x="331" y="515" on="0"/>
        <pt x="373" y="508" on="0"/>
        <pt x="400" y="501" on="0"/>
        <pt x="404" y="500" on="1"/>
        <pt x="437" y="533" on="1"/>
        <pt x="505" y="523" on="1"/>
        <pt x="446" y="215" on="1"/>
        <pt x="435" y="155" on="0"/>
        <pt x="430" y="69" on="0"/>
        <pt x="429" y="66" on="1"/>
        <pt x="503" y="66" on="1"/>
        <pt x="503" y="18" on="1"/>
        <pt x="433" y="-19" on="0"/>
        <pt x="383" y="-106" on="0"/>
        <pt x="383" y="-133" on="1"/>
        <pt x="383" y="-152" on="0"/>
        <pt x="403" y="-174" on="0"/>
        <pt x="421" y="-174" on="1"/>
        <pt x="450" y="-174" on="0"/>
        <pt x="485" y="-152" on="1"/>
        <pt x="505" y="-174" on="1"/>
        <pt x="505" y="-176" on="0"/>
        <pt x="473" y="-208" on="0"/>
        <pt x="421" y="-236" on="0"/>
        <pt x="387" y="-236" on="1"/>
      </contour>
      <contour>
        <pt x="224" y="73" on="0"/>
        <pt x="286" y="127" on="0"/>
        <pt x="304" y="155" on="1"/>
        <pt x="308" y="173" on="0"/>
        <pt x="325" y="259" on="0"/>
        <pt x="333" y="302" on="1"/>
        <pt x="360" y="437" on="1"/>
        <pt x="334" y="448" on="0"/>
        <pt x="309" y="448" on="1"/>
        <pt x="265" y="448" on="0"/>
        <pt x="201" y="367" on="0"/>
        <pt x="167" y="229" on="0"/>
        <pt x="167" y="145" on="1"/>
        <pt x="167" y="106" on="0"/>
        <pt x="184" y="73" on="0"/>
        <pt x="201" y="73" on="1"/>
      </contour>
    </TTGlyph>
    <TTGlyph name="approxequal" xMin="30" yMin="154" xMax="480" yMax="446">
      <contour>
        <pt x="30" y="341" on="1"/>
        <pt x="81" y="446" on="0"/>
        <pt x="155" y="446" on="1"/>
        <pt x="179" y="446" on="0"/>
        <pt x="226" y="430" on="0"/>
        <pt x="258" y="416" on="1"/>
        <pt x="287" y="403" on="0"/>
        <pt x="326" y="389" on="0"/>
        <pt x="345" y="389" on="1"/>
        <pt x="372" y="389" on="0"/>
        <pt x="407" y="414" on="0"/>
        <pt x="428" y="446" on="1"/>
        <pt x="480" y="419" on="1"/>
        <pt x="419" y="308" on="0"/>
        <pt x="340" y="308" on="1"/>
        <pt x="318" y="308" on="0"/>
        <pt x="274" y="323" on="0"/>
        <pt x="246" y="337" on="1"/>
        <pt x="215" y="352" on="0"/>
        <pt x="174" y="366" on="0"/>
        <pt x="151" y="366" on="1"/>
        <pt x="131" y="366" on="0"/>
        <pt x="98" y="341" on="0"/>
        <pt x="79" y="313" on="1"/>
      </contour>
      <contour>
        <pt x="30" y="187" on="1"/>
        <pt x="81" y="292" on="0"/>
        <pt x="155" y="292" on="1"/>
        <pt x="179" y="292" on="0"/>
        <pt x="226" y="276" on="0"/>
        <pt x="258" y="262" on="1"/>
        <pt x="287" y="249" on="0"/>
        <pt x="326" y="235" on="0"/>
        <pt x="345" y="235" on="1"/>
        <pt x="372" y="235" on="0"/>
        <pt x="407" y="260" on="0"/>
        <pt x="428" y="292" on="1"/>
        <pt x="480" y="265" on="1"/>
        <pt x="419" y="154" on="0"/>
        <pt x="340" y="154" on="1"/>
        <pt x="318" y="154" on="0"/>
        <pt x="274" y="169" on="0"/>
        <pt x="246" y="183" on="1"/>
        <pt x="215" y="198" on="0"/>
        <pt x="174" y="212" on="0"/>
        <pt x="151" y="212" on="1"/>
        <pt x="131" y="212" on="0"/>
        <pt x="98" y="187" on="0"/>
        <pt x="79" y="159" on="1"/>
      </contour>
    </TTGlyph>
    <TTGlyph name="aring" xMin="32" yMin="-10" xMax="505" yMax="770">
      <contour>
        <pt x="269" y="558" on="0"/>
        <pt x="218" y="605" on="0"/>
        <pt x="218" y="643" on="1"/>
        <pt x="218" y="696" on="0"/>
        <pt x="288" y="770" on="0"/>
        <pt x="348" y="770" on="1"/>
        <pt x="397" y="770" on="0"/>
        <pt x="448" y="720" on="0"/>
        <pt x="448" y="680" on="1"/>
        <pt x="448" y="625" on="0"/>
        <pt x="376" y="558" on="0"/>
        <pt x="318" y="558" on="1"/>
      </contour>
      <contour>
        <pt x="353" y="610" on="0"/>
        <pt x="374" y="649" on="0"/>
        <pt x="374" y="682" on="1"/>
        <pt x="374" y="699" on="0"/>
        <pt x="360" y="717" on="0"/>
        <pt x="341" y="717" on="1"/>
        <pt x="292" y="717" on="0"/>
        <pt x="292" y="641" on="1"/>
        <pt x="292" y="626" on="0"/>
        <pt x="307" y="610" on="0"/>
        <pt x="325" y="610" on="1"/>
      </contour>
      <contour>
        <pt x="32" y="-9" on="0"/>
        <pt x="32" y="143" on="1"/>
        <pt x="32" y="252" on="0"/>
        <pt x="107" y="422" on="0"/>
        <pt x="234" y="515" on="0"/>
        <pt x="310" y="515" on="1"/>
        <pt x="331" y="515" on="0"/>
        <pt x="373" y="508" on="0"/>
        <pt x="400" y="501" on="0"/>
        <pt x="404" y="500" on="1"/>
        <pt x="437" y="533" on="1"/>
        <pt x="505" y="523" on="1"/>
        <pt x="446" y="215" on="1"/>
        <pt x="435" y="155" on="0"/>
        <pt x="430" y="69" on="0"/>
        <pt x="429" y="66" on="1"/>
        <pt x="503" y="66" on="1"/>
        <pt x="503" y="18" on="1"/>
        <pt x="434" y="-10" on="0"/>
        <pt x="362" y="-10" on="1"/>
        <pt x="331" y="-10" on="0"/>
        <pt x="295" y="16" on="0"/>
        <pt x="295" y="43" on="1"/>
        <pt x="295" y="55" on="0"/>
        <pt x="298" y="82" on="0"/>
        <pt x="299" y="87" on="1"/>
        <pt x="270" y="42" on="0"/>
        <pt x="201" y="-9" on="0"/>
        <pt x="164" y="-9" on="1"/>
      </contour>
      <contour>
        <pt x="224" y="73" on="0"/>
        <pt x="286" y="127" on="0"/>
        <pt x="304" y="155" on="1"/>
        <pt x="308" y="173" on="0"/>
        <pt x="325" y="259" on="0"/>
        <pt x="333" y="302" on="1"/>
        <pt x="360" y="437" on="1"/>
        <pt x="334" y="448" on="0"/>
        <pt x="309" y="448" on="1"/>
        <pt x="265" y="448" on="0"/>
        <pt x="201" y="367" on="0"/>
        <pt x="167" y="229" on="0"/>
        <pt x="167" y="145" on="1"/>
        <pt x="167" y="106" on="0"/>
        <pt x="184" y="73" on="0"/>
        <pt x="201" y="73" on="1"/>
      </contour>
    </TTGlyph>
    <TTGlyph name="aringacute" xMin="32" yMin="-10" xMax="560" yMax="858">
      <contour>
        <pt x="560" y="801" on="1"/>
        <pt x="340" y="696" on="1"/>
        <pt x="347" y="697" on="0"/>
        <pt x="364" y="697" on="1"/>
        <pt x="411" y="697" on="0"/>
        <pt x="456" y="653" on="0"/>
        <pt x="457" y="617" on="1"/>
        <pt x="457" y="576" on="0"/>
        <pt x="407" y="519" on="0"/>
        <pt x="366" y="509" on="1"/>
        <pt x="381" y="506" on="0"/>
        <pt x="401" y="501" on="0"/>
        <pt x="404" y="500" on="1"/>
        <pt x="437" y="533" on="1"/>
        <pt x="505" y="523" on="1"/>
        <pt x="446" y="215" on="1"/>
        <pt x="435" y="155" on="0"/>
        <pt x="430" y="69" on="0"/>
        <pt x="429" y="66" on="1"/>
        <pt x="503" y="66" on="1"/>
        <pt x="503" y="18" on="1"/>
        <pt x="434" y="-10" on="0"/>
        <pt x="362" y="-10" on="1"/>
        <pt x="331" y="-10" on="0"/>
        <pt x="295" y="16" on="0"/>
        <pt x="295" y="43" on="1"/>
        <pt x="295" y="55" on="0"/>
        <pt x="298" y="82" on="0"/>
        <pt x="299" y="87" on="1"/>
        <pt x="270" y="42" on="0"/>
        <pt x="201" y="-9" on="0"/>
        <pt x="164" y="-9" on="1"/>
        <pt x="32" y="-9" on="0"/>
        <pt x="32" y="143" on="1"/>
        <pt x="32" y="244" on="0"/>
        <pt x="97" y="405" on="0"/>
        <pt x="208" y="502" on="0"/>
        <pt x="276" y="513" on="1"/>
        <pt x="253" y="521" on="0"/>
        <pt x="229" y="553" on="0"/>
        <pt x="229" y="576" on="1"/>
        <pt x="229" y="621" on="0"/>
        <pt x="279" y="685" on="0"/>
        <pt x="330" y="694" on="1"/>
        <pt x="305" y="727" on="1"/>
        <pt x="461" y="858" on="1"/>
        <pt x="560" y="824" on="1"/>
      </contour>
      <contour>
        <pt x="384" y="632" on="0"/>
        <pt x="366" y="649" on="0"/>
        <pt x="349" y="649" on="1"/>
        <pt x="323" y="649" on="0"/>
        <pt x="302" y="611" on="0"/>
        <pt x="302" y="584" on="1"/>
        <pt x="302" y="568" on="0"/>
        <pt x="314" y="552" on="0"/>
        <pt x="334" y="552" on="1"/>
        <pt x="362" y="552" on="0"/>
        <pt x="384" y="591" on="0"/>
        <pt x="384" y="618" on="1"/>
      </contour>
      <contour>
        <pt x="308" y="173" on="0"/>
        <pt x="325" y="259" on="0"/>
        <pt x="333" y="302" on="1"/>
        <pt x="360" y="437" on="1"/>
        <pt x="334" y="448" on="0"/>
        <pt x="309" y="448" on="1"/>
        <pt x="265" y="448" on="0"/>
        <pt x="201" y="367" on="0"/>
        <pt x="167" y="229" on="0"/>
        <pt x="167" y="145" on="1"/>
        <pt x="167" y="106" on="0"/>
        <pt x="184" y="73" on="0"/>
        <pt x="201" y="73" on="1"/>
        <pt x="224" y="73" on="0"/>
        <pt x="286" y="127" on="0"/>
        <pt x="304" y="155" on="1"/>
      </contour>
    </TTGlyph>
    <TTGlyph name="arrowdown" xMin="61" yMin="28" xMax="495" yMax="504">
      <contour>
        <pt x="102" y="365" on="1"/>
        <pt x="244" y="208" on="1"/>
        <pt x="233" y="504" on="1"/>
        <pt x="339" y="504" on="1"/>
        <pt x="325" y="210" on="1"/>
        <pt x="457" y="366" on="1"/>
        <pt x="495" y="325" on="1"/>
        <pt x="293" y="28" on="1"/>
        <pt x="277" y="28" on="1"/>
        <pt x="61" y="325" on="1"/>
      </contour>
    </TTGlyph>
    <TTGlyph name="arrowleft" xMin="40" yMin="44" xMax="516" yMax="477">
      <contour>
        <pt x="516" y="322" on="1"/>
        <pt x="516" y="216" on="1"/>
        <pt x="218" y="227" on="1"/>
        <pt x="376" y="83" on="1"/>
        <pt x="336" y="44" on="1"/>
        <pt x="40" y="259" on="1"/>
        <pt x="40" y="276" on="1"/>
        <pt x="336" y="477" on="1"/>
        <pt x="377" y="440" on="1"/>
        <pt x="220" y="308" on="1"/>
      </contour>
    </TTGlyph>
    <TTGlyph name="arrowright" xMin="42" yMin="44" xMax="518" yMax="477">
      <contour>
        <pt x="181" y="83" on="1"/>
        <pt x="338" y="227" on="1"/>
        <pt x="42" y="216" on="1"/>
        <pt x="42" y="322" on="1"/>
        <pt x="337" y="308" on="1"/>
        <pt x="180" y="440" on="1"/>
        <pt x="220" y="477" on="1"/>
        <pt x="518" y="276" on="1"/>
        <pt x="518" y="259" on="1"/>
        <pt x="220" y="44" on="1"/>
      </contour>
    </TTGlyph>
    <TTGlyph name="arrowup" xMin="62" yMin="19" xMax="496" yMax="493">
      <contour>
        <pt x="456" y="159" on="1"/>
        <pt x="314" y="316" on="1"/>
        <pt x="325" y="19" on="1"/>
        <pt x="220" y="19" on="1"/>
        <pt x="233" y="314" on="1"/>
        <pt x="99" y="158" on="1"/>
        <pt x="62" y="199" on="1"/>
        <pt x="262" y="493" on="1"/>
        <pt x="281" y="493" on="1"/>
        <pt x="496" y="199" on="1"/>
      </contour>
    </TTGlyph>
</ttFont>
